<svg xmlns="http://www.w3.org/2000/svg" viewBox="0 0 512 512"><defs><style>.cls-1{fill:#f7bb38;}.cls-2{fill:#41c0e3;}.cls-3{fill:#fff;}.cls-4{fill:#3ab3ce;}.cls-5{fill:#e0e0e0;}.cls-6{fill:#7cc8fb;}.cls-7{fill:#f6c752;}.cls-8{fill:#e88032;}</style></defs><title>Country Flags</title><g id="BULINE"><circle class="cls-1" cx="256" cy="256" r="256"/></g><g id="Icons"><path class="cls-2" d="M496.14,167.12H15.85C52,69.54,145.86,0,256,0S460,69.54,496.14,167.12Z"/><path class="cls-3" d="M496.14,344.87H15.85a256.53,256.53,0,0,1,0-177.75H496.14a253,253,0,0,1,8.91,29.41,257.31,257.31,0,0,1-8.91,148.34Z"/><path class="cls-2" d="M256,512A256.09,256.09,0,0,1,15.85,344.87H496.14a252.21,252.21,0,0,1-13.05,29.41A256,256,0,0,1,256,512Z"/><path class="cls-4" d="M289.5,2.17c-95.38,12.47-174.24,77.43-206.65,165h-67C52,69.54,145.86,0,256,0A259.05,259.05,0,0,1,289.5,2.17Z"/><path class="cls-5" d="M67,256a255.41,255.41,0,0,0,15.85,88.87h-67a256.53,256.53,0,0,1,0-177.75h67A252.91,252.91,0,0,0,74,196.53,256.16,256.16,0,0,0,67,256Z"/><path class="cls-4" d="M289.5,509.83A258.82,258.82,0,0,1,256,512,256.09,256.09,0,0,1,15.85,344.87h67a256.15,256.15,0,0,0,206.65,165Z"/><circle class="cls-6" cx="420.17" cy="99.02" r="16.28"/><circle class="cls-6" cx="396.19" cy="75.04" r="11.53"/><path class="cls-7" d="M251.85,232a2.51,2.51,0,0,1-2.51-2.51v-6.82a34.93,34.93,0,0,0-.65-6.52,22.06,22.06,0,0,1,.76-10.54l.08-.27.14-.24c.06-.11,1.83-3.48-.15-8.52-.71-1.68-3.86-9.83-.09-14.17a3.88,3.88,0,0,0,.71-1.06,7,7,0,0,0-.41-6.5,2.51,2.51,0,1,1,4.24-2.69,12,12,0,0,1,.83,11.08,8.81,8.81,0,0,1-1.57,2.46c-1.25,1.44-.26,6.12.93,8.95l0,.05c2.56,6.49.61,11.34,0,12.6a16.9,16.9,0,0,0-.55,7.93,40.38,40.38,0,0,1,.72,7.44v6.82A2.51,2.51,0,0,1,251.85,232Z"/><path class="cls-7" d="M245,232.93a2.5,2.5,0,0,1-2.42-1.87l-1.77-6.58a35.38,35.38,0,0,0-2.31-6.14,21.94,21.94,0,0,1-2-10.37v-.28l.07-.27c0-.13.87-3.83-2.35-8.19-1.12-1.44-6.28-8.5-3.76-13.67a4,4,0,0,0,.41-1.2,6.94,6.94,0,0,0-2.08-6.18,2.52,2.52,0,1,1,3.41-3.7A12,12,0,0,1,235.87,185a8.7,8.7,0,0,1-.88,2.79c-.84,1.72,1.33,6,3.22,8.39l0,.06c4.15,5.6,3.53,10.79,3.26,12.16a17,17,0,0,0,1.52,7.81,39.78,39.78,0,0,1,2.63,7l1.76,6.58a2.52,2.52,0,0,1-2.43,3.17Z"/><path class="cls-7" d="M238.61,235.57a2.51,2.51,0,0,1-2.18-1.26l-3.41-5.9a36.13,36.13,0,0,0-3.82-5.33,22.06,22.06,0,0,1-4.61-9.5l-.06-.27V213c0-.13-.16-3.93-4.39-7.31-1.46-1.1-8.27-6.58-7.17-12.23a4.28,4.28,0,0,0,.09-1.27,7,7,0,0,0-3.61-5.42,2.52,2.52,0,0,1,2.33-4.46,12,12,0,0,1,6.26,9.19,8.92,8.92,0,0,1-.13,2.92c-.37,1.87,2.83,5.43,5.28,7.28l.05,0c5.46,4.34,6.2,9.51,6.3,10.91a17,17,0,0,0,3.48,7.15,39.54,39.54,0,0,1,4.36,6.08l3.41,5.9a2.51,2.51,0,0,1-2.18,3.77Z"/><path class="cls-7" d="M233.12,239.78a2.48,2.48,0,0,1-1.78-.74l-4.82-4.82a35.53,35.53,0,0,0-5.06-4.15,22,22,0,0,1-6.92-8l-.13-.25-.07-.27c0-.12-1.17-3.75-6.13-5.92-1.7-.68-9.69-4.22-10.09-10a3.89,3.89,0,0,0-.25-1.24,6.94,6.94,0,0,0-4.89-4.31,2.52,2.52,0,0,1,1.1-4.91,12,12,0,0,1,8.42,7.25,8.42,8.42,0,0,1,.63,2.86c.14,1.91,4.15,4.52,7,5.66l.06,0a15.77,15.77,0,0,1,8.91,8.9,16.91,16.91,0,0,0,5.21,6,40.6,40.6,0,0,1,5.78,4.75l4.82,4.82a2.51,2.51,0,0,1,0,3.55A2.47,2.47,0,0,1,233.12,239.78Z"/><path class="cls-7" d="M228.91,245.27a2.45,2.45,0,0,1-1.25-.34l-5.91-3.41a35.08,35.08,0,0,0-6-2.7,22.14,22.14,0,0,1-8.75-5.93l-.19-.2-.14-.25c-.07-.11-2.09-3.32-7.45-4.13-1.81-.22-10.45-1.57-12.32-7a4.24,4.24,0,0,0-.56-1.15,7,7,0,0,0-5.84-2.89,2.51,2.51,0,1,1-.21-5,12,12,0,0,1,10,4.82,8.48,8.48,0,0,1,1.35,2.6c.63,1.81,5.17,3.29,8.21,3.66H200a15.8,15.8,0,0,1,10.91,6.3,17,17,0,0,0,6.59,4.45,39.58,39.58,0,0,1,6.81,3.09l5.9,3.4a2.52,2.52,0,0,1-1.26,4.7Z"/><path class="cls-7" d="M226.27,251.65a2.36,2.36,0,0,1-.65-.08L219,249.8a35.25,35.25,0,0,0-6.47-1.06,22.06,22.06,0,0,1-10-3.46l-.24-.15-.19-.2c-.1-.09-2.89-2.67-8.27-2.06-1.81.25-10.5,1.19-13.72-3.58a4,4,0,0,0-.84-1,6.92,6.92,0,0,0-6.38-1.28,2.51,2.51,0,0,1-1.5-4.8,12,12,0,0,1,10.91,2.07,8.52,8.52,0,0,1,2,2.16c1.07,1.59,5.85,1.84,8.88,1.41h.06a15.8,15.8,0,0,1,12.17,3.25,16.7,16.7,0,0,0,7.52,2.59,39.9,39.9,0,0,1,7.37,1.23l6.59,1.76a2.51,2.51,0,0,1-.65,4.94Z"/><path class="cls-7" d="M184,260.23a8.52,8.52,0,0,1-5.69-1.81,3.86,3.86,0,0,0-1.05-.71,7,7,0,0,0-6.51.41,2.51,2.51,0,1,1-2.69-4.25,12,12,0,0,1,11.08-.83,8.68,8.68,0,0,1,2.47,1.58c1.44,1.25,6.12.26,8.94-.94l.06,0c6.49-2.57,11.34-.62,12.59,0a16.85,16.85,0,0,0,7.94.56,40.43,40.43,0,0,1,7.44-.73h6.81a2.52,2.52,0,1,1,0,5h-6.81a35.85,35.85,0,0,0-6.53.64,22,22,0,0,1-10.53-.75l-.27-.09-.25-.14c-.11-.06-3.47-1.83-8.51.15A23.88,23.88,0,0,1,184,260.23Z"/><path class="cls-7" d="M172.19,279.86a2.52,2.52,0,0,1-1.85-4.22A12,12,0,0,1,180.83,272a8.77,8.77,0,0,1,2.79.88c1.72.84,6-1.33,8.39-3.22l.05,0a15.81,15.81,0,0,1,12.17-3.26,17,17,0,0,0,7.8-1.51,39.78,39.78,0,0,1,7-2.63l6.59-1.77a2.52,2.52,0,1,1,1.3,4.86L220.33,267a36.45,36.45,0,0,0-6.13,2.31,22,22,0,0,1-10.37,2h-.29l-.27-.07c-.12,0-3.83-.87-8.19,2.35-1.44,1.12-8.5,6.27-13.67,3.75a3.86,3.86,0,0,0-1.2-.41A7,7,0,0,0,174,279,2.53,2.53,0,0,1,172.19,279.86Z"/><path class="cls-7" d="M180.42,299.75a2.55,2.55,0,0,1-1.16-.29,2.52,2.52,0,0,1-1.06-3.4,12,12,0,0,1,9.18-6.25,8.46,8.46,0,0,1,2.93.13c1.86.35,5.42-2.84,7.27-5.29l0,0c4.34-5.46,9.51-6.2,10.9-6.3a16.84,16.84,0,0,0,7.15-3.48,40.43,40.43,0,0,1,6.08-4.35l5.91-3.41a2.52,2.52,0,0,1,2.51,4.36l-5.9,3.4a35.11,35.11,0,0,0-5.33,3.82,21.94,21.94,0,0,1-9.5,4.62l-.28.06h-.28c-.13,0-3.92.15-7.3,4.39-1.1,1.46-6.58,8.26-12.23,7.17a3.7,3.7,0,0,0-1.27-.09,7,7,0,0,0-5.43,3.61A2.51,2.51,0,0,1,180.42,299.75Z"/><path class="cls-7" d="M193.53,316.83a2.64,2.64,0,0,1-.55-.06,2.52,2.52,0,0,1-1.9-3,12,12,0,0,1,7.25-8.42,8.8,8.8,0,0,1,2.86-.63c1.91-.13,4.51-4.14,5.66-7l0-.06c2.78-6.4,7.58-8.45,8.91-8.91a16.92,16.92,0,0,0,6-5.22,40.57,40.57,0,0,1,4.74-5.77l4.82-4.82a2.51,2.51,0,0,1,3.56,3.55l-4.82,4.82a35,35,0,0,0-4.16,5.07,22.08,22.08,0,0,1-8,6.91l-.25.14-.27.07c-.13,0-3.76,1.16-5.92,6.13-.69,1.69-4.22,9.69-10,10.09a4,4,0,0,0-1.25.24,6.93,6.93,0,0,0-4.3,4.89A2.54,2.54,0,0,1,193.53,316.83Z"/><path class="cls-7" d="M210.61,329.93a2.51,2.51,0,0,1-2.51-2.41,12,12,0,0,1,4.83-10,8.88,8.88,0,0,1,2.59-1.35c1.81-.62,3.29-5.17,3.66-8.21v-.06c1-6.9,5.14-10.13,6.29-10.91a16.88,16.88,0,0,0,4.45-6.59,41.16,41.16,0,0,1,3.09-6.81l3.41-5.91a2.52,2.52,0,0,1,4.36,2.52l-3.41,5.9a35.2,35.2,0,0,0-2.71,6,22,22,0,0,1-5.92,8.74l-.21.19-.24.14c-.11.07-3.32,2.1-4.13,7.46-.23,1.81-1.57,10.44-7,12.32a3.76,3.76,0,0,0-1.14.56,6.93,6.93,0,0,0-2.89,5.84,2.53,2.53,0,0,1-2.41,2.61Z"/><path class="cls-7" d="M230.5,338.17a2.52,2.52,0,0,1-2.4-1.76,12,12,0,0,1,2.07-10.92,9.08,9.08,0,0,1,2.16-2c1.59-1.07,1.84-5.84,1.41-8.87v-.07c-.79-6.93,2.34-11.11,3.26-12.16a17,17,0,0,0,2.59-7.52,40.74,40.74,0,0,1,1.22-7.38l1.77-6.58a2.51,2.51,0,1,1,4.85,1.3l-1.76,6.58a36.25,36.25,0,0,0-1.07,6.47,22,22,0,0,1-3.45,10l-.15.24-.2.2c-.09.09-2.67,2.88-2.06,8.27.25,1.81,1.18,10.5-3.58,13.71a4,4,0,0,0-1,.84,7,7,0,0,0-1.29,6.39,2.51,2.51,0,0,1-1.65,3.15A2.43,2.43,0,0,1,230.5,338.17Z"/><path class="cls-7" d="M251.85,341a2.49,2.49,0,0,1-2.12-1.17,12,12,0,0,1-.83-11.08,8.81,8.81,0,0,1,1.57-2.46c1.25-1.44.26-6.12-.93-8.95l0-.06a15.77,15.77,0,0,1,0-12.59,16.9,16.9,0,0,0,.55-7.93,40.38,40.38,0,0,1-.72-7.44v-6.82a2.51,2.51,0,0,1,5,0v6.82a35.8,35.8,0,0,0,.65,6.52,22.06,22.06,0,0,1-.76,10.54l-.08.27-.14.24c-.06.11-1.83,3.48.15,8.52.71,1.68,3.86,9.83.09,14.17a3.88,3.88,0,0,0-.71,1.06,7,7,0,0,0,.41,6.5,2.51,2.51,0,0,1-2.12,3.86Z"/><path class="cls-7" d="M273.2,338.17a2.55,2.55,0,0,1-1.71-.66A12,12,0,0,1,267.83,327a8.62,8.62,0,0,1,.88-2.79c.84-1.72-1.33-6-3.22-8.39l0-.06c-4.15-5.6-3.53-10.79-3.26-12.16a17,17,0,0,0-1.52-7.81,39.78,39.78,0,0,1-2.63-7l-1.76-6.58a2.51,2.51,0,1,1,4.85-1.3l1.77,6.58a35.38,35.38,0,0,0,2.31,6.14,22,22,0,0,1,2,10.37l0,.28-.07.27c0,.13-.87,3.83,2.35,8.19,1.13,1.45,6.28,8.5,3.76,13.67a4,4,0,0,0-.41,1.2,6.94,6.94,0,0,0,2.08,6.18,2.51,2.51,0,0,1-1.7,4.36Z"/><path class="cls-7" d="M293.09,329.93a2.55,2.55,0,0,1-1.17-.28,12,12,0,0,1-6.26-9.19,8.92,8.92,0,0,1,.13-2.92c.37-1.87-2.83-5.43-5.28-7.28l-.05,0c-5.46-4.34-6.2-9.51-6.3-10.91a17,17,0,0,0-3.48-7.15,40,40,0,0,1-4.36-6.08l-3.4-5.9a2.51,2.51,0,1,1,4.35-2.52l3.41,5.91a36.13,36.13,0,0,0,3.82,5.33,22.06,22.06,0,0,1,4.61,9.5l.06.27V299c0,.13.16,3.93,4.39,7.31,1.46,1.1,8.27,6.58,7.17,12.23a4.28,4.28,0,0,0-.09,1.27,7,7,0,0,0,3.61,5.42,2.51,2.51,0,0,1-1.16,4.74Z"/><path class="cls-7" d="M310.17,316.83a2.57,2.57,0,0,1-.55-.06,12,12,0,0,1-8.42-7.25,8.42,8.42,0,0,1-.63-2.86c-.14-1.91-4.15-4.52-7-5.66l-.06,0a15.77,15.77,0,0,1-8.91-8.9,16.91,16.91,0,0,0-5.21-6,40.6,40.6,0,0,1-5.78-4.75l-4.82-4.82a2.51,2.51,0,0,1,3.56-3.55l4.82,4.82a35.09,35.09,0,0,0,5.07,4.15,22.13,22.13,0,0,1,6.91,8l.13.25.07.27c0,.12,1.17,3.75,6.13,5.92,1.7.68,9.69,4.22,10.09,9.95a3.9,3.9,0,0,0,.25,1.25,6.94,6.94,0,0,0,4.89,4.31,2.52,2.52,0,0,1-.55,5Z"/><path class="cls-7" d="M325.51,299.75a12,12,0,0,1-9.5-4.83,8.94,8.94,0,0,1-1.35-2.6c-.62-1.81-5.16-3.29-8.21-3.66h-.06c-6.9-1-10.13-5.14-10.91-6.3a17,17,0,0,0-6.59-4.45,39.58,39.58,0,0,1-6.81-3.09l-5.9-3.4a2.52,2.52,0,0,1,2.51-4.36l5.9,3.41a35.56,35.56,0,0,0,6,2.7,22.12,22.12,0,0,1,8.74,5.93l.19.2.14.25c.07.11,2.1,3.32,7.46,4.13,1.81.22,10.45,1.57,12.32,7a4.24,4.24,0,0,0,.56,1.15,6.93,6.93,0,0,0,5.84,2.89,2.51,2.51,0,0,1,.2,5Z"/><path class="cls-7" d="M328.78,280.28a12.5,12.5,0,0,1-7.43-2.61,8.52,8.52,0,0,1-2-2.16c-1.07-1.59-5.84-1.84-8.88-1.41h-.06c-6.93.8-11.11-2.34-12.17-3.26a16.78,16.78,0,0,0-7.52-2.58,39.9,39.9,0,0,1-7.37-1.23l-6.59-1.76a2.52,2.52,0,1,1,1.3-4.86l6.59,1.77a35.25,35.25,0,0,0,6.47,1.06,22.06,22.06,0,0,1,10,3.46l.24.15.2.2c.09.09,2.88,2.67,8.26,2.06,1.81-.25,10.5-1.19,13.72,3.58a4,4,0,0,0,.84,1,7,7,0,0,0,6.38,1.28,2.51,2.51,0,0,1,1.5,4.8A11.72,11.72,0,0,1,328.78,280.28Z"/><path class="cls-7" d="M329.5,259.93a13.39,13.39,0,0,1-4.91-1,8.68,8.68,0,0,1-2.47-1.58c-1.43-1.25-6.11-.26-8.94.94l-.06,0c-6.49,2.57-11.33.62-12.59,0a16.81,16.81,0,0,0-7.93-.56,40.62,40.62,0,0,1-7.45.73h-6.81a2.52,2.52,0,1,1,0-5h6.81a35.85,35.85,0,0,0,6.53-.64,22,22,0,0,1,10.53.75l.27.09.25.14c.11.06,3.47,1.83,8.52-.15,1.68-.72,9.83-3.87,14.17-.1a3.74,3.74,0,0,0,1.06.71,6.93,6.93,0,0,0,6.5-.41,2.51,2.51,0,0,1,2.69,4.25A11.38,11.38,0,0,1,329.5,259.93Z"/><path class="cls-7" d="M277.43,251.65a2.51,2.51,0,0,1-.65-4.94l6.59-1.76a36.13,36.13,0,0,0,6.13-2.31,22,22,0,0,1,10.37-2h.29l.27.07c.12,0,3.83.87,8.19-2.35,1.44-1.12,8.5-6.27,13.67-3.75a3.86,3.86,0,0,0,1.2.41,7,7,0,0,0,6.17-2.08,2.51,2.51,0,1,1,3.7,3.4A12,12,0,0,1,322.87,240a8.77,8.77,0,0,1-2.79-.88c-1.72-.84-6,1.33-8.39,3.22l-.05,0a15.81,15.81,0,0,1-12.17,3.26,17,17,0,0,0-7.8,1.51,39.78,39.78,0,0,1-7,2.63l-6.59,1.77A2.36,2.36,0,0,1,277.43,251.65Z"/><path class="cls-7" d="M274.79,245.27a2.52,2.52,0,0,1-1.26-4.7l5.9-3.4a35.11,35.11,0,0,0,5.33-3.82,22,22,0,0,1,9.5-4.62l.28-.06h.28c.13,0,3.93-.15,7.3-4.39,1.11-1.46,6.58-8.27,12.23-7.17a3.7,3.7,0,0,0,1.27.09,7,7,0,0,0,5.43-3.61,2.51,2.51,0,0,1,4.45,2.33,12,12,0,0,1-9.18,6.26,8.7,8.7,0,0,1-2.93-.13c-1.88-.37-5.43,2.83-7.27,5.28l0,.06c-4.34,5.46-9.51,6.2-10.9,6.29a17,17,0,0,0-7.15,3.49,40.43,40.43,0,0,1-6.08,4.35L276,244.93A2.45,2.45,0,0,1,274.79,245.27Z"/><path class="cls-7" d="M270.58,239.78a2.48,2.48,0,0,1-1.78-.74,2.51,2.51,0,0,1,0-3.55l4.82-4.82a35,35,0,0,0,4.16-5.07,22.08,22.08,0,0,1,8-6.91l.25-.14.27-.07c.13,0,3.76-1.16,5.92-6.13.69-1.69,4.22-9.69,10-10.09a4,4,0,0,0,1.25-.24,6.93,6.93,0,0,0,4.3-4.89,2.52,2.52,0,1,1,4.91,1.1,12,12,0,0,1-7.25,8.42,8.8,8.8,0,0,1-2.86.63c-1.91.13-4.51,4.14-5.66,7l0,.06c-2.78,6.4-7.58,8.45-8.91,8.91a16.92,16.92,0,0,0-6,5.22,40.57,40.57,0,0,1-4.74,5.77L272.36,239A2.48,2.48,0,0,1,270.58,239.78Z"/><path class="cls-7" d="M265.09,235.57a2.54,2.54,0,0,1-1.25-.33,2.51,2.51,0,0,1-.92-3.44l3.4-5.9a35.2,35.2,0,0,0,2.71-6,22,22,0,0,1,5.92-8.74l.21-.19.24-.14c.11-.07,3.32-2.1,4.13-7.46.23-1.81,1.57-10.44,7-12.32a3.76,3.76,0,0,0,1.14-.56,6.93,6.93,0,0,0,2.89-5.84,2.52,2.52,0,0,1,5-.2,12,12,0,0,1-4.83,10,8.88,8.88,0,0,1-2.59,1.35c-1.81.62-3.29,5.17-3.66,8.21v.06A15.77,15.77,0,0,1,278.22,215a16.92,16.92,0,0,0-4.45,6.59,41.16,41.16,0,0,1-3.09,6.81l-3.41,5.9A2.51,2.51,0,0,1,265.09,235.57Z"/><path class="cls-7" d="M258.71,232.93a2.52,2.52,0,0,1-2.43-3.17l1.76-6.59a36,36,0,0,0,1.07-6.46,21.94,21.94,0,0,1,3.46-10l.14-.24.2-.2c.09-.09,2.67-2.88,2.06-8.27-.25-1.81-1.18-10.5,3.58-13.71a4,4,0,0,0,1-.84,7,7,0,0,0,1.29-6.39,2.51,2.51,0,0,1,4.8-1.5,12,12,0,0,1-2.07,10.92,8.67,8.67,0,0,1-2.16,2c-1.59,1.08-1.84,5.85-1.41,8.88v.07c.79,6.93-2.34,11.11-3.26,12.16a17,17,0,0,0-2.59,7.52,40.74,40.74,0,0,1-1.22,7.38l-1.77,6.58A2.5,2.5,0,0,1,258.71,232.93Z"/><circle class="cls-8" cx="251.85" cy="255.99" r="36.44"/><circle class="cls-7" cx="251.7" cy="255.99" r="31.26"/><path class="cls-8" d="M251.7,267a11.81,11.81,0,0,1-7.41-2.45c-1.69-.88-2.57-2-2.63-3.32-.07-1.78,1.46-3.14,2.25-3.73l2.83-10.09a8.13,8.13,0,0,0-16.26.16,1.26,1.26,0,0,1-2.52,0,10.65,10.65,0,0,1,21.29,0v.18l-3.18,11.35-.42.25c-.63.4-1.5,1.24-1.48,1.77,0,.36.54.83,1.39,1.25l.16.08.13.13a9.14,9.14,0,0,0,5.85,1.9,1.26,1.26,0,1,1,0,2.52Z"/><path class="cls-8" d="M252,267a1.26,1.26,0,0,1,0-2.52,9.34,9.34,0,0,0,5.85-1.9l.13-.13.16-.08c.85-.42,1.37-.89,1.39-1.25,0-.53-.85-1.37-1.49-1.77l-.41-.26-.14-.47-3-10.87v-.18a10.65,10.65,0,0,1,21.29,0,1.26,1.26,0,0,1-2.52,0,8.13,8.13,0,0,0-16.26-.16l2.83,10.09c.79.59,2.32,1.95,2.25,3.73-.06,1.32-.94,2.44-2.63,3.32A11.81,11.81,0,0,1,252,267Z"/><path class="cls-8" d="M251.85,278.6c-4.48,0-8-3.9-8.12-4.07l-.73-.83.73-.83c.15-.17,3.64-4.07,8.12-4.07s8,3.9,8.12,4.07l.73.83-.73.83C259.82,274.7,256.33,278.6,251.85,278.6Zm-5.36-4.9a7.23,7.23,0,0,0,10.72,0,7.21,7.21,0,0,0-10.72,0Z"/><path class="cls-8" d="M267.4,255.14c-3.72,0-6.61-3.23-6.74-3.37l-.73-.83.73-.83c.13-.14,3-3.37,6.74-3.37s6.62,3.23,6.74,3.37l.73.83-.73.83C274,251.91,271.13,255.14,267.4,255.14Zm-3.95-4.2a5.5,5.5,0,0,0,7.91,0,5.47,5.47,0,0,0-7.91,0Z"/><path class="cls-8" d="M236.53,255.14c-3.72,0-6.61-3.23-6.73-3.37l-.74-.83.74-.83c.12-.14,3-3.37,6.73-3.37s6.62,3.23,6.74,3.37l.73.83-.73.83C243.15,251.91,240.26,255.14,236.53,255.14Zm-3.95-4.2a5.5,5.5,0,0,0,7.91,0,5.47,5.47,0,0,0-7.91,0Z"/><path class="cls-8" d="M259,285.56a1.27,1.27,0,0,1-.94-.43s-2.9-3.21-6.23-3.21-6.2,3.18-6.23,3.21a1.26,1.26,0,0,1-1.89-1.66c.15-.17,3.64-4.07,8.12-4.07s8,3.9,8.12,4.07a1.26,1.26,0,0,1-.12,1.77A1.19,1.19,0,0,1,259,285.56Z"/></g></svg>