<svg xmlns="http://www.w3.org/2000/svg" viewBox="0 0 512 512"><defs><style>.cls-1{fill:#27273d;}.cls-2{fill:#1b35a5;}.cls-3{fill:#fff;}.cls-4{fill:#db1b1b;}.cls-5{fill:#1a358e;}.cls-6{fill:#dddbdb;}.cls-7{fill:#bf1b1b;}.cls-8{fill:#2548b7;}</style></defs><title>Country Flags</title><g id="BULINE"><circle class="cls-1" cx="256" cy="256" r="256"/></g><g id="Icons"><path class="cls-2" d="M512,256c0,141.38-114.62,256-256,256S0,397.38,0,256q0-9.67.71-19.17.57-7.7,1.59-15.26a254.91,254.91,0,0,1,7.85-37.17q2.82-9.71,6.38-19.08,3.63-9.58,8-18.78A256.06,256.06,0,0,1,58.8,92.75c1.2-1.46,2.43-2.9,3.66-4.32q4.59-5.3,9.45-10.33Q73.94,76,76,74c.91-.9,1.83-1.8,2.75-2.68s1.83-1.74,2.75-2.61q6.77-6.3,14-12.12l.06,0a256.06,256.06,0,0,1,43.29-28.18q6.9-3.57,14-6.71a252.15,252.15,0,0,1,31.54-11.48Q191.94,8,199.67,6.22q10.19-2.29,20.68-3.76c2.54-.35,5.09-.67,7.65-.94,2.12-.24,4.24-.44,6.38-.61C241.5.3,248.72,0,256,0,397.38,0,512,114.62,512,256Z"/><path class="cls-3" d="M234.38.91V25.08L185.49,74,166.71,92.75l-17.52,17.52-32.45,32.45-21.2,21.19-14,14L22.62,236.83H.71q.57-7.7,1.59-15.26a254.91,254.91,0,0,1,7.85-37.17L81.5,113.05l2.79-2.78L95.54,99l6.27-6.26,51.06-51.06,31.54-31.54Q191.94,8,199.67,6.22q10.19-2.29,20.68-3.76c2.54-.35,5.09-.67,7.65-.94C230.12,1.28,232.24,1.08,234.38.91Z"/><path class="cls-3" d="M234.38,195.46v41.37H210.86l-58-58L84.29,110.27,66.78,92.75l-4.32-4.32q4.59-5.3,9.45-10.33Q73.94,76,76,74c.91-.9,1.83-1.8,2.75-2.68s1.83-1.74,2.75-2.61q6.77-6.3,14-12.12l21.26,21.26,32.45,32.45,36.27,36.27,18.78,18.78Z"/><path class="cls-4" d="M228,1.52,151.42,78.1H127.79l11-11,14-14,46.8-46.8q10.19-2.29,20.68-3.76C222.89,2.11,225.44,1.79,228,1.52Z"/><polygon class="cls-4" points="234.38 203.71 234.38 227.34 176.49 169.46 200.12 169.46 234.38 203.71"/><path class="cls-4" d="M85.56,78.1H71.91Q73.94,76,76,74c.91-.9,1.83-1.8,2.75-2.68Z"/><path class="cls-3" d="M234.38,74v91.35H152.87v71.51H81.5V165.32h-65q3.63-9.58,8-18.78A256.06,256.06,0,0,1,58.8,92.75c1.2-1.46,2.43-2.9,3.66-4.32q4.59-5.3,9.45-10.33Q73.94,76,76,74h5.5V68.68q6.77-6.3,14-12.12l.06,0a256.06,256.06,0,0,1,43.29-28.18q6.9-3.57,14-6.71V74Z"/><polygon class="cls-3" points="228.4 379.86 189.69 354.49 214.38 317.78 171 333.8 156.98 289.75 142.96 333.8 99.58 317.78 124.28 354.49 85.56 379.86 131.62 383.19 124.28 431.25 156.98 395.21 189.69 431.25 182.34 383.19 228.4 379.86"/><polygon class="cls-3" points="404.05 101.73 385.58 89.63 397.36 72.12 376.67 79.76 369.98 58.75 363.29 79.76 342.6 72.12 354.38 89.63 335.91 101.73 357.88 103.33 354.38 126.25 369.98 109.06 385.58 126.25 382.08 103.33 404.05 101.73"/><polygon class="cls-3" points="324.14 233.29 305.67 221.19 317.45 203.68 296.75 211.32 290.07 190.3 283.38 211.32 262.69 203.68 274.47 221.19 256 233.29 277.97 234.88 274.47 257.8 290.07 240.61 305.67 257.8 302.17 234.88 324.14 233.29"/><polygon class="cls-3" points="482.14 184.4 463.67 172.3 475.45 154.79 454.75 162.43 448.07 141.42 441.38 162.43 420.69 154.79 432.47 172.3 414 184.4 435.97 185.99 432.47 208.92 448.07 191.72 463.67 208.92 460.17 185.99 482.14 184.4"/><polygon class="cls-3" points="404.05 429.23 385.58 417.13 397.36 399.62 376.67 407.26 369.98 386.25 363.29 407.26 342.6 399.62 354.38 417.13 335.91 429.23 357.88 430.82 354.38 453.75 369.98 436.56 385.58 453.75 382.08 430.82 404.05 429.23"/><polygon class="cls-3" points="422.34 276.03 428.41 294.72 448.07 294.72 432.17 306.28 438.24 324.97 422.34 313.42 406.44 324.97 412.51 306.28 396.61 294.72 416.26 294.72 422.34 276.03"/><path class="cls-5" d="M281,510.79Q268.66,512,256,512C114.62,512,0,397.38,0,256q0-9.67.71-19.17.57-7.7,1.59-15.26a254.91,254.91,0,0,1,7.85-37.17q2.82-9.71,6.38-19.08,3.63-9.58,8-18.78A256.06,256.06,0,0,1,58.8,92.75c1.2-1.46,2.43-2.9,3.66-4.32q4.59-5.3,9.45-10.33Q73.94,76,76,74c.91-.9,1.83-1.8,2.75-2.68s1.83-1.74,2.75-2.61q6.77-6.3,14-12.12l.06,0a256.06,256.06,0,0,1,43.29-28.18q6.9-3.57,14-6.71a252.15,252.15,0,0,1,31.54-11.48Q191.94,8,199.67,6.22q10.19-2.29,20.68-3.76c2.54-.35,5.09-.67,7.65-.94,2.12-.24,4.24-.44,6.38-.61C241.5.3,248.72,0,256,0q12.64,0,25,1.21a254.21,254.21,0,0,0-46.61,8.94Q222.71,13.54,211.53,18a255.28,255.28,0,0,0-50.82,27.19L152.87,53V50.81q-7.22,5.4-14,11.29A255.87,255.87,0,0,0,74.5,146.54q-4.36,9.19-8,18.78c-.52,1.37-1,2.75-1.52,4.14q-3.39,9.38-6,19.09-2.12,7.75-3.75,15.7A257.18,257.18,0,0,0,50,256C50,389,151.33,498.24,281,510.79Z"/><path class="cls-6" d="M234.38.91v9.24Q222.71,13.54,211.53,18a255.28,255.28,0,0,0-50.82,27.19L152.87,53V50.81q-7.22,5.4-14,11.29A255.87,255.87,0,0,0,74.5,146.54q-4.36,9.19-8,18.78c-.52,1.37-1,2.75-1.52,4.14q-3.39,9.38-6,19.09-2.12,7.75-3.75,15.7L22.62,236.83H.71q.57-7.7,1.59-15.26a254.91,254.91,0,0,1,7.85-37.17l19.08-19.08L48,146.54,81.5,113.05l2.79-2.78L95.54,99l6.27-6.26,14.93-14.93,22.09-22.09,14-14,31.54-31.54Q191.94,8,199.67,6.22q10.19-2.29,20.68-3.76c2.54-.35,5.09-.67,7.65-.94C230.12,1.28,232.24,1.08,234.38.91Z"/><path class="cls-3" d="M119.51,80.59A257.64,257.64,0,0,0,91,117l-6.69-6.69L66.78,92.75l-4.32-4.32q4.59-5.3,9.45-10.33Q73.94,76,76,74c.91-.9,1.83-1.8,2.75-2.68s1.83-1.74,2.75-2.61q6.77-6.3,14-12.12Z"/><path class="cls-7" d="M228,1.52,211.53,18a255.28,255.28,0,0,0-50.82,27.19l39-39q10.19-2.29,20.68-3.76C222.89,2.11,225.44,1.79,228,1.52Z"/><path class="cls-4" d="M85.56,78.1H71.91Q73.94,76,76,74c.91-.9,1.83-1.8,2.75-2.68Z"/><path class="cls-6" d="M152.87,21.63V50.81q-7.22,5.4-14,11.29A255.87,255.87,0,0,0,74.5,146.54q-4.36,9.19-8,18.78h-50q3.63-9.58,8-18.78A256.06,256.06,0,0,1,58.8,92.75c1.2-1.46,2.43-2.9,3.66-4.32q4.59-5.3,9.45-10.33Q73.94,76,76,74h5.5V68.68q6.77-6.3,14-12.12l.06,0a256.06,256.06,0,0,1,43.29-28.18Q145.73,24.77,152.87,21.63Z"/><path class="cls-4" d="M234.38,92.75v53.79H138.83v90.29H95.54V146.54h-71A256.06,256.06,0,0,1,58.8,92.75H95.54V56.52a256.06,256.06,0,0,1,43.29-28.18V92.75Z"/><path class="cls-7" d="M138.83,28.34V62.1A255.87,255.87,0,0,0,74.5,146.54h-50A256.06,256.06,0,0,1,58.8,92.75H95.54V56.52A256.06,256.06,0,0,1,138.83,28.34Z"/><path class="cls-4" d="M78,169.46,10.67,236.83H.71q.57-7.7,1.59-15.26l52.12-52.11Z"/><path class="cls-7" d="M65,169.46q-3.39,9.38-6,19.09L10.67,236.83H.71q.57-7.7,1.59-15.26l52.12-52.11Z"/><circle class="cls-8" cx="475.25" cy="276.08" r="16.28"/><circle class="cls-8" cx="475.25" cy="242.17" r="11.53"/></g></svg>