<svg xmlns="http://www.w3.org/2000/svg" viewBox="0 0 512 512"><defs><style>.cls-1{fill:#27273d;}.cls-2{fill:#04a558;}.cls-3{fill:#03914a;}.cls-4{fill:#fcc13d;}.cls-5{fill:#dda22c;}.cls-6{fill:#00b564;}.cls-7{fill:#3e436d;}.cls-8{fill:#fff;}</style></defs><title>Country Flags</title><g id="BULINE"><circle class="cls-1" cx="256" cy="256" r="256"/></g><g id="Icons"><circle class="cls-2" cx="256" cy="256" r="256"/><path class="cls-3" d="M295.5,509a257.29,257.29,0,0,1-39.5,3C114.62,512,0,397.39,0,256S114.62,0,256,0a257.29,257.29,0,0,1,39.5,3C185.05,20.14,97.92,107.86,81.71,218.61a259.29,259.29,0,0,0,0,74.78C97.92,404.15,185.05,491.87,295.5,509Z"/><polygon class="cls-4" points="256 117.5 17.26 256 17.26 256 256 394.5 494.74 256 494.74 256 256 117.5"/><path class="cls-5" d="M79,256a259,259,0,0,0,2.71,37.39L17.26,256l64.45-37.39A259,259,0,0,0,79,256Z"/><circle class="cls-6" cx="452.31" cy="140.01" r="16.28"/><circle class="cls-6" cx="430.07" cy="114.41" r="11.53"/><path class="cls-7" d="M355,256c0,.25,0,.49,0,.74a98,98,0,1,1,0-.74Z"/><path class="cls-8" d="M355,256.74a98.47,98.47,0,0,1-7.05,36c-19.67-35.52-52.07-60.92-96.74-75.75-33.93-11.25-65.67-13-79.4-13.1a99,99,0,0,1,22-24.94,293.18,293.18,0,0,1,64.76,13.1C299.33,205.45,331.84,227.37,355,256.74Z"/><circle class="cls-8" cx="188" cy="287" r="7"/><circle class="cls-8" cx="221" cy="328" r="7"/><circle class="cls-8" cx="256" cy="309.67" r="7"/><circle class="cls-8" cx="270" cy="335" r="7"/><circle class="cls-8" cx="318" cy="299.67" r="7"/><circle class="cls-8" cx="299" cy="322.34" r="7"/><circle class="cls-8" cx="270" cy="256" r="7"/><circle class="cls-8" cx="188" cy="230" r="7"/><circle class="cls-8" cx="221" cy="294" r="7"/></g></svg>