<?xml version="1.0" encoding="UTF-8" standalone="no"?>
<!DOCTYPE svg PUBLIC "-//W3C//DTD SVG 1.1//EN" "http://www.w3.org/Graphics/SVG/1.1/DTD/svg11.dtd">
<svg width="100%" height="100%" viewBox="0 0 512 512" version="1.1" xmlns="http://www.w3.org/2000/svg" xmlns:xlink="http://www.w3.org/1999/xlink" xml:space="preserve" xmlns:serif="http://www.serif.com/" style="fill-rule:evenodd;clip-rule:evenodd;stroke-linejoin:round;stroke-miterlimit:2;">
    <g transform="matrix(1,0,0,1,0.29891,-0.201349)">
        <g id="BULINE">
            <circle cx="256" cy="256" r="256" style="fill:rgb(248,128,48);"/>
        </g>
        <g transform="matrix(7.94934,0,0,7.94934,3.53392,0.217059)">
            <path d="M46.103,27.444C46.74,23.186 43.498,20.897 39.065,19.37L40.503,13.602L36.992,12.727L35.592,18.343C34.669,18.113 33.721,17.896 32.779,17.681L34.189,12.028L30.68,11.153L29.241,16.919C28.477,16.745 27.727,16.573 26.999,16.392L27.003,16.374L22.161,15.165L21.227,18.915C21.227,18.915 23.832,19.512 23.777,19.549C25.199,19.904 25.456,20.845 25.413,21.591L21.473,37.392C21.299,37.824 20.858,38.472 19.864,38.226C19.899,38.277 17.312,37.589 17.312,37.589L15.569,41.608L20.138,42.747C20.988,42.96 21.821,43.183 22.641,43.393L21.188,49.227L24.695,50.102L26.134,44.33C27.092,44.59 28.022,44.83 28.932,45.056L27.498,50.801L31.009,51.676L32.462,45.853C38.449,46.986 42.951,46.529 44.846,41.114C46.373,36.754 44.77,34.239 41.62,32.599C43.914,32.07 45.642,30.561 46.103,27.444ZM38.081,38.693C36.996,43.053 29.655,40.696 27.275,40.105L29.203,32.376C31.583,32.97 39.215,34.146 38.081,38.693ZM39.167,27.381C38.177,31.347 32.067,29.332 30.085,28.838L31.833,21.828C33.815,22.322 40.198,23.244 39.167,27.381Z" style="fill:white;fill-rule:nonzero;"/>
        </g>
    </g>
    <g id="Icons">
        <g transform="matrix(1,0,0,1,0.0451896,-246.849)">
            <circle cx="442.44" cy="370.72" r="16.28" style="fill:white;fill-opacity:0.2;"/>
        </g>
        <g transform="matrix(1,0,0,1,-43.8249,-250.679)">
            <circle cx="466.42" cy="346.74" r="11.53" style="fill:white;fill-opacity:0.2;"/>
        </g>
        <path d="M0,255.91C0.142,115.499 115.719,0.039 256.13,0.039C266.704,0.039 277.267,0.694 287.76,2C160.281,17.891 63.542,127.453 63.55,255.91L63.55,256C63.559,384.474 160.28,494.046 287.76,510C277.225,511.317 266.617,511.978 256,511.978C115.571,511.978 0.012,396.429 -0,256L0,255.91Z" style="fill:rgb(17,17,17);fill-opacity:0.1;"/>
    </g>
</svg>
