<svg xmlns="http://www.w3.org/2000/svg" viewBox="0 0 512 512"><defs><style>.cls-1{fill:#7cc8fb;}.cls-2{fill:#db1b1b;}.cls-3{fill:#fff;}.cls-4{fill:#e0e0e0;}.cls-5{fill:#c11616;}.cls-6{fill:#ea3434;}.cls-7{fill:#ccc;}.cls-8{fill:#ec2227;}</style></defs><title>Country Flags</title><g id="BULINE"><circle class="cls-1" cx="256" cy="256" r="256"/></g><g id="Icons"><path class="cls-2" d="M512,256A256.2,256.2,0,0,1,196.53,505.07a252.91,252.91,0,0,1-29.41-8.9C69.54,460,0,366.16,0,256S69.54,52,167.12,15.88A253,253,0,0,1,196.53,7a257.31,257.31,0,0,1,148.34,8.91,252.21,252.21,0,0,1,29.41,13.05A256,256,0,0,1,512,256Z"/><path class="cls-2" d="M167.12,15.84V496.13C69.54,460,0,366.12,0,256S69.54,52,167.12,15.84Z"/><path class="cls-3" d="M344.87,15.84V496.13a256.53,256.53,0,0,1-177.75,0V15.84a253,253,0,0,1,29.41-8.91,257.31,257.31,0,0,1,148.34,8.91Z"/><path class="cls-2" d="M512,256A256.09,256.09,0,0,1,344.87,496.13V15.84a252.21,252.21,0,0,1,29.41,13.05A256,256,0,0,1,512,256Z"/><path class="cls-4" d="M196.53,6.93V505a252.91,252.91,0,0,1-29.41-8.9V15.84A253,253,0,0,1,196.53,6.93Z"/><path class="cls-5" d="M374.28,28.89V483.08a253.9,253.9,0,0,1-29.41,13.05V15.84A252.21,252.21,0,0,1,374.28,28.89Z"/><circle class="cls-6" cx="444.71" cy="166.36" r="16.28"/><circle class="cls-6" cx="444.71" cy="132.44" r="11.53"/><path class="cls-5" d="M57.87,256A255.68,255.68,0,0,0,167.12,465.81v30.32C69.54,460,0,366.12,0,256S69.54,52,167.12,15.84V46.25A255.66,255.66,0,0,0,57.87,256Z"/><path class="cls-4" d="M196.53,483.61a254.3,254.3,0,0,0,88.19,26.78A259.42,259.42,0,0,1,256,512a256.16,256.16,0,0,1-59.47-7,252.91,252.91,0,0,1-29.41-8.9V465.81A253.77,253.77,0,0,0,196.53,483.61Z"/><path class="cls-4" d="M196.53,28.45a253.77,253.77,0,0,0-29.41,17.8V15.84a253,253,0,0,1,29.41-8.91A256.16,256.16,0,0,1,256,0a260.14,260.14,0,0,1,29.17,1.64A254.1,254.1,0,0,0,196.53,28.45Z"/><path class="cls-7" d="M196.53,6.93V28.45a253.77,253.77,0,0,0-29.41,17.8V15.84A253,253,0,0,1,196.53,6.93Z"/><path class="cls-7" d="M167.12,465.81a253.77,253.77,0,0,0,29.41,17.8V505a252.91,252.91,0,0,1-29.41-8.9Z"/><path class="cls-8" d="M295.92,289.93l31.63-27.43a2.7,2.7,0,0,0-.89-4.6L324,257a3.31,3.31,0,0,1-2.15-3.82l4.4-20.37a2.71,2.71,0,0,0-3.12-3.24L307,232.39a3.31,3.31,0,0,1-3.68-2.1l-1.91-5.1a2.71,2.71,0,0,0-4.51-.9L284,238a3.24,3.24,0,0,1-3.32.87h0a3.22,3.22,0,0,1-2.21-3.78l7.24-33.49a2.71,2.71,0,0,0-3.36-3.19L272.91,201a3.31,3.31,0,0,1-3.7-1.47L258.32,181.6a2.71,2.71,0,0,0-4.64,0l-10.89,17.93a3.31,3.31,0,0,1-3.7,1.47l-9.45-2.58a2.71,2.71,0,0,0-3.36,3.19l7.24,33.49a3.22,3.22,0,0,1-2.21,3.78h0A3.24,3.24,0,0,1,228,238L215.1,224.29a2.71,2.71,0,0,0-4.51.9l-1.91,5.1a3.31,3.31,0,0,1-3.68,2.1l-16.08-2.86a2.71,2.71,0,0,0-3.12,3.24l4.4,20.37a3.31,3.31,0,0,1-2.15,3.82l-2.71.94a2.7,2.7,0,0,0-.89,4.6l31.63,27.43a5.1,5.1,0,0,1,1.59,5.11l-1.6,6.24a2.7,2.7,0,0,0,3,3.35l27.75-4a4.29,4.29,0,0,1,4.89,4.49L250,336.06a6.19,6.19,0,0,0,5.55,6.59,6.07,6.07,0,0,0,6.56-6.4l-1.77-31.11a4.29,4.29,0,0,1,4.89-4.49l27.75,4a2.7,2.7,0,0,0,3-3.35l-1.6-6.24A5.1,5.1,0,0,1,295.92,289.93Z"/></g></svg>