<svg xmlns="http://www.w3.org/2000/svg" viewBox="0 0 512 512"><defs><style>.cls-1{fill:#a99bd4;}.cls-2{fill:#db1b1b;}.cls-3{fill:#c61717;}.cls-4{fill:#fff;}.cls-5{fill:#e03636;}</style></defs><title>Country Flags</title><g id="BULINE"><circle class="cls-1" cx="256" cy="256" r="256"/></g><g id="Icons"><circle class="cls-2" cx="256" cy="256" r="256"/><path class="cls-3" d="M289.5,509.89a258.49,258.49,0,0,1-33,2.11C115.12,512,.5,397.38.5,256S115.12,0,256.5,0a258.49,258.49,0,0,1,33,2.11C163.7,18.3,66.5,125.79,66.5,256S163.7,493.7,289.5,509.89Z"/><path class="cls-4" d="M407,213.13H306.53a7.66,7.66,0,0,1-7.66-7.66V105a7.65,7.65,0,0,0-7.65-7.66H220.78a7.65,7.65,0,0,0-7.65,7.66V205.47a7.66,7.66,0,0,1-7.66,7.66H105a7.65,7.65,0,0,0-7.66,7.65v70.44a7.66,7.66,0,0,0,7.66,7.65H205.47a7.66,7.66,0,0,1,7.66,7.65V407a7.64,7.64,0,0,0,7.65,7.65h70.44a7.64,7.64,0,0,0,7.65-7.65V306.52a7.66,7.66,0,0,1,7.66-7.65H407a7.66,7.66,0,0,0,7.66-7.65V220.78A7.65,7.65,0,0,0,407,213.13Z"/><circle class="cls-5" cx="445.56" cy="142.83" r="16.28"/><circle class="cls-5" cx="421.58" cy="118.85" r="11.53"/></g></svg>