<svg xmlns="http://www.w3.org/2000/svg" viewBox="0 0 512 512"><defs><style>.cls-1{fill:#7cc8fb;}.cls-2{fill:#db1b1b;}.cls-3{fill:#f6c752;}.cls-4{fill:#c41616;}.cls-5{fill:#e0ad3d;}.cls-6{fill:#ef3a3a;}</style></defs><title>Country Flags</title><g id="BULINE"><circle class="cls-1" cx="256" cy="256" r="256"/></g><g id="Icons"><circle class="cls-2" cx="256" cy="256" r="256"/><polygon class="cls-3" points="306 125.65 320.93 148.57 347.34 141.45 330.15 162.74 345.08 185.66 319.53 175.89 302.35 197.17 303.74 169.85 278.19 160.09 304.6 152.97 306 125.65"/><polygon class="cls-3" points="220.4 66.75 245.39 77.87 263.69 57.54 260.83 84.75 285.82 95.87 259.07 101.56 256.21 128.76 242.53 105.08 215.78 110.77 234.08 90.44 220.4 66.75"/><polygon class="cls-3" points="283.26 312.18 260.34 327.11 267.46 353.52 246.18 336.34 223.26 351.27 233.03 325.72 211.74 308.53 239.06 309.93 248.83 284.38 255.95 310.79 283.26 312.18"/><polygon class="cls-3" points="342.17 226.58 331.04 251.57 351.37 269.88 324.17 267.02 313.05 292.01 307.36 265.25 280.15 262.4 303.84 248.72 298.15 221.96 318.48 240.26 342.17 226.58"/><path class="cls-4" d="M293.4,509.28A257.75,257.75,0,0,1,256,512C114.61,512,0,397.38,0,256S114.61,0,256,0a257.75,257.75,0,0,1,37.4,2.72C194.3,17.22,113.65,88.49,85.52,182.47A254.7,254.7,0,0,0,75,246.8c-.12,3.06-.17,6.12-.17,9.2q0,12.71,1.22,25.09C87.42,398.31,177.88,492.38,293.4,509.28Z"/><polygon class="cls-3" points="118 114.36 140.13 182.47 211.74 182.47 153.81 224.57 175.94 292.68 118 250.58 60.06 292.68 82.19 224.57 24.26 182.47 95.87 182.47 118 114.36"/><path class="cls-5" d="M74.8,256q0,12.71,1.22,25.09l-16,11.59L75,246.8C74.85,249.86,74.8,252.92,74.8,256Z"/><path class="cls-5" d="M85.52,182.47a254.81,254.81,0,0,0-8.34,38.46L24.25,182.47Z"/><circle class="cls-6" cx="433" cy="139.6" r="23.61"/><circle class="cls-6" cx="398.22" cy="104.82" r="16.72"/></g></svg>