<?xml version="1.0" encoding="UTF-8" standalone="no"?>
<!DOCTYPE svg PUBLIC "-//W3C//DTD SVG 1.1//EN" "http://www.w3.org/Graphics/SVG/1.1/DTD/svg11.dtd">
<svg width="100%" height="100%" viewBox="0 0 512 512" version="1.1" xmlns="http://www.w3.org/2000/svg" xmlns:xlink="http://www.w3.org/1999/xlink" xml:space="preserve" xmlns:serif="http://www.serif.com/" style="fill-rule:evenodd;clip-rule:evenodd;stroke-linejoin:round;stroke-miterlimit:2;">
    <g transform="matrix(1,0,0,1,0.29891,-0.201349)">
        <g id="BULINE">
            <circle cx="256" cy="256" r="256" style="fill:rgb(4,61,174);"/>
        </g>
    </g>
    <g id="Icons">
        <g transform="matrix(28.7593,0,0,28.3486,-146.331,-27.6877)">
            <path d="M13.057,4.276L14,4L14.943,4.276L14.667,3.333L14.943,2.39L14,2.667L13.057,2.391L13.333,3.333L13.057,4.276ZM13.057,17.61L14,17.333L14.943,17.61L14.667,16.667L14.943,15.724L14,16L13.057,15.724L13.333,16.667L13.057,17.609L13.057,17.61ZM20.667,10.667L19.724,10.943L20,10L19.724,9.057L20.667,9.333L21.609,9.057L21.333,10L21.61,10.943L20.667,10.667ZM6.39,10.943L7.333,10.667L8.276,10.943L8,10L8.276,9.057L7.333,9.333L6.391,9.057L6.667,10L6.391,10.943L6.39,10.943ZM19.773,7.333L18.831,7.609L19.107,6.667L18.831,5.724L19.773,6L20.716,5.724L20.44,6.667L20.716,7.609L19.773,7.333ZM7.284,14.276L8.227,14L9.169,14.276L8.893,13.333L9.169,12.39L8.227,12.667L7.284,12.39L7.56,13.333L7.284,14.276ZM17.333,4.893L16.391,5.169L16.667,4.226L16.39,3.284L17.333,3.56L18.276,3.284L18,4.226L18.276,5.169L17.333,4.893ZM9.724,16.716L10.667,16.44L11.61,16.716L11.333,15.773L11.61,14.831L10.667,15.107L9.724,14.831L10,15.774L9.724,16.716ZM19.773,14L18.831,14.276L19.107,13.333L18.831,12.39L19.773,12.667L20.716,12.39L20.44,13.333L20.716,14.276L19.773,14ZM7.284,7.61L8.227,7.333L9.169,7.609L8.893,6.667L9.169,5.724L8.227,6L7.284,5.724L7.56,6.667L7.284,7.609L7.284,7.61ZM17.333,16.44L16.391,16.716L16.667,15.773L16.39,14.831L17.333,15.107L18.276,14.831L18,15.774L18.276,16.716L17.333,16.44ZM9.724,5.17L10.667,4.893L11.61,5.169L11.333,4.226L11.61,3.284L10.667,3.56L9.724,3.284L10,4.226L9.724,5.169L9.724,5.17Z" style="fill:rgb(255,212,41);fill-opacity:0.5;fill-rule:nonzero;"/>
        </g>
        <g transform="matrix(1,0,0,1,24.0483,-32.2494)">
            <circle cx="442.44" cy="370.72" r="16.28" style="fill:white;fill-opacity:0.2;"/>
        </g>
        <g transform="matrix(1,0,0,1,10.737,-38.7606)">
            <circle cx="466.42" cy="346.74" r="11.53" style="fill:white;fill-opacity:0.2;"/>
        </g>
        <path d="M0,255.91C0.142,115.499 115.719,0.039 256.13,0.039C266.704,0.039 277.267,0.694 287.76,2C160.281,17.891 63.542,127.453 63.55,255.91L63.55,256C63.559,384.474 160.28,494.046 287.76,510C277.225,511.317 266.617,511.978 256,511.978C115.571,511.978 0.012,396.429 -0,256L0,255.91Z" style="fill:rgb(51,51,51);fill-opacity:0.2;"/>
    </g>
</svg>
