<?xml version="1.0" encoding="UTF-8" standalone="no"?>
<!DOCTYPE svg PUBLIC "-//W3C//DTD SVG 1.1//EN" "http://www.w3.org/Graphics/SVG/1.1/DTD/svg11.dtd">
<svg width="100%" height="100%" viewBox="0 0 512 512" version="1.1" xmlns="http://www.w3.org/2000/svg" xmlns:xlink="http://www.w3.org/1999/xlink" xml:space="preserve" xmlns:serif="http://www.serif.com/" style="fill-rule:evenodd;clip-rule:evenodd;stroke-linejoin:round;stroke-miterlimit:2;">
    <g transform="matrix(1,0,0,1,0.29891,-0.201349)">
        <g id="BULINE">
            <circle cx="256" cy="256" r="256" style="fill:rgb(238,28,37);"/>
        </g>
    </g>
    <g id="Icons">
        <g transform="matrix(1,0,0,1,24.0483,-32.2494)">
            <circle cx="442.44" cy="370.72" r="16.28" style="fill:white;fill-opacity:0.2;"/>
        </g>
        <g transform="matrix(1,0,0,1,10.737,-38.7606)">
            <circle cx="466.42" cy="346.74" r="11.53" style="fill:white;fill-opacity:0.2;"/>
        </g>
        <g transform="matrix(1,0,0,1,-193.985,-43.3194)">
            <path d="M492.936,125.196C481.406,128.887 473.531,139.677 473.531,151.784C473.531,157.18 475.096,162.462 478.034,166.988C482.79,174.31 485.321,182.857 485.321,191.588C485.321,209.701 474.427,226.137 457.745,233.192C443.47,239.229 434.149,253.292 434.149,268.79C434.149,279.734 438.797,290.179 446.928,297.505C416.903,276.142 409.272,234.153 429.86,203.591C429.474,203.26 429.104,202.911 428.751,202.544C407.689,233.57 415.163,276.302 445.506,298.337C411.299,284.636 388.754,251.32 388.754,214.472C388.754,164.911 429.536,124.129 479.096,124.129C483.73,124.129 488.357,124.486 492.936,125.196" style="fill:white;fill-rule:nonzero;"/>
        </g>
        <g transform="matrix(1,0,0,1,-193.985,-43.3194)">
            <path d="M451.979,181.099L424.415,193.121L453.781,199.597L433.83,177.097L436.745,207.027" style="fill:rgb(238,28,37);fill-rule:nonzero;"/>
        </g>
        <g id="a" transform="matrix(0.309017,0.951057,-0.951057,0.309017,402.274,-264)">
            <path d="M492.936,125.196C481.406,128.887 473.531,139.677 473.531,151.784C473.531,157.18 475.096,162.462 478.034,166.988C482.79,174.31 485.321,182.857 485.321,191.588C485.321,209.701 474.427,226.137 457.745,233.192C443.47,239.229 434.149,253.292 434.149,268.79C434.149,279.734 438.797,290.179 446.928,297.505C416.903,276.142 409.272,234.153 429.86,203.591C429.474,203.26 429.104,202.911 428.751,202.544C407.689,233.57 415.163,276.302 445.506,298.337C411.299,284.636 388.754,251.32 388.754,214.472C388.754,164.911 429.536,124.129 479.096,124.129C483.73,124.129 488.357,124.486 492.936,125.196" style="fill:white;fill-rule:nonzero;"/>
            <path d="M451.979,181.099L424.415,193.121L453.781,199.597L433.83,177.097L436.745,207.027" style="fill:rgb(238,28,37);fill-rule:nonzero;"/>
        </g>
        <g id="a1" serif:id="a" transform="matrix(-0.809017,-0.587785,0.587785,-0.809017,443.737,763.889)">
            <path d="M492.936,125.196C481.406,128.887 473.531,139.677 473.531,151.784C473.531,157.18 475.096,162.462 478.034,166.988C482.79,174.31 485.321,182.857 485.321,191.588C485.321,209.701 474.427,226.137 457.745,233.192C443.47,239.229 434.149,253.292 434.149,268.79C434.149,279.734 438.797,290.179 446.928,297.505C416.903,276.142 409.272,234.153 429.86,203.591C429.474,203.26 429.104,202.911 428.751,202.544C407.689,233.57 415.163,276.302 445.506,298.337C411.299,284.636 388.754,251.32 388.754,214.472C388.754,164.911 429.536,124.129 479.096,124.129C483.73,124.129 488.357,124.486 492.936,125.196" style="fill:white;fill-rule:nonzero;"/>
            <path d="M451.979,181.099L424.415,193.121L453.781,199.597L433.83,177.097L436.745,207.027" style="fill:rgb(238,28,37);fill-rule:nonzero;"/>
        </g>
        <g id="a2" serif:id="a" transform="matrix(-0.809017,0.587785,-0.587785,-0.809017,796.408,234.882)">
            <path d="M492.936,125.196C481.406,128.887 473.531,139.677 473.531,151.784C473.531,157.18 475.096,162.462 478.034,166.988C482.79,174.31 485.321,182.857 485.321,191.588C485.321,209.701 474.427,226.137 457.745,233.192C443.47,239.229 434.149,253.292 434.149,268.79C434.149,279.734 438.797,290.179 446.928,297.505C416.903,276.142 409.272,234.153 429.86,203.591C429.474,203.26 429.104,202.911 428.751,202.544C407.689,233.57 415.163,276.302 445.506,298.337C411.299,284.636 388.754,251.32 388.754,214.472C388.754,164.911 429.536,124.129 479.096,124.129C483.73,124.129 488.357,124.486 492.936,125.196" style="fill:white;fill-rule:nonzero;"/>
            <path d="M451.979,181.099L424.415,193.121L453.781,199.597L433.83,177.097L436.745,207.027" style="fill:rgb(238,28,37);fill-rule:nonzero;"/>
        </g>
        <g id="a3" serif:id="a" transform="matrix(0.309017,-0.951057,0.951057,0.309017,-168.36,591.951)">
            <path d="M492.936,125.196C481.406,128.887 473.531,139.677 473.531,151.784C473.531,157.18 475.096,162.462 478.034,166.988C482.79,174.31 485.321,182.857 485.321,191.588C485.321,209.701 474.427,226.137 457.745,233.192C443.47,239.229 434.149,253.292 434.149,268.79C434.149,279.734 438.797,290.179 446.928,297.505C416.903,276.142 409.272,234.153 429.86,203.591C429.474,203.26 429.104,202.911 428.751,202.544C407.689,233.57 415.163,276.302 445.506,298.337C411.299,284.636 388.754,251.32 388.754,214.472C388.754,164.911 429.536,124.129 479.096,124.129C483.73,124.129 488.357,124.486 492.936,125.196" style="fill:white;fill-rule:nonzero;"/>
            <path d="M451.979,181.099L424.415,193.121L453.781,199.597L433.83,177.097L436.745,207.027" style="fill:rgb(238,28,37);fill-rule:nonzero;"/>
        </g>
        <path d="M0,255.91C0.142,115.499 115.719,0.039 256.13,0.039C266.704,0.039 277.267,0.694 287.76,2C160.281,17.891 63.542,127.453 63.55,255.91L63.55,256C63.559,384.474 160.28,494.046 287.76,510C277.225,511.317 266.617,511.978 256,511.978C115.571,511.978 0.012,396.429 -0,256L0,255.91Z" style="fill:rgb(17,17,17);fill-opacity:0.1;"/>
    </g>
</svg>
