<svg xmlns="http://www.w3.org/2000/svg" viewBox="0 0 512 512"><defs><style>.cls-1{fill:#27273d;}.cls-2{fill:#c11a1a;}.cls-3{fill:#fff;}.cls-4{fill:#00914c;}.cls-5{fill:#aa1818;}.cls-6{fill:#e2e2e2;}.cls-7{fill:#03753c;}.cls-8{fill:#d82323;}</style></defs><title>Country Flags</title><g id="BULINE"><circle class="cls-1" cx="256" cy="256" r="256"/></g><g id="Icons"><path class="cls-2" d="M496.14,167.12H15.85C52,69.54,145.86,0,256,0S460,69.54,496.14,167.12Z"/><path class="cls-3" d="M496.14,344.87H15.85a256.53,256.53,0,0,1,0-177.75H496.14a253,253,0,0,1,8.91,29.41,257.31,257.31,0,0,1-8.91,148.34Z"/><path class="cls-4" d="M256,512A256.09,256.09,0,0,1,15.85,344.87H496.14a252.21,252.21,0,0,1-13.05,29.41A256,256,0,0,1,256,512Z"/><path class="cls-5" d="M289.5,2.17c-95.38,12.47-174.24,77.43-206.65,165h-67C52,69.54,145.86,0,256,0A259.05,259.05,0,0,1,289.5,2.17Z"/><path class="cls-6" d="M67,256a255.41,255.41,0,0,0,15.85,88.87h-67a256.53,256.53,0,0,1,0-177.75h67A252.91,252.91,0,0,0,74,196.53,256.16,256.16,0,0,0,67,256Z"/><path class="cls-7" d="M289.5,509.83A258.82,258.82,0,0,1,256,512,256.09,256.09,0,0,1,15.85,344.87h67a256.15,256.15,0,0,0,206.65,165Z"/><circle class="cls-8" cx="420.71" cy="103.17" r="18.07"/><circle class="cls-8" cx="394.1" cy="76.56" r="12.8"/></g></svg>