<?xml version="1.0" encoding="UTF-8" standalone="no"?>
<!DOCTYPE svg PUBLIC "-//W3C//DTD SVG 1.1//EN" "http://www.w3.org/Graphics/SVG/1.1/DTD/svg11.dtd">
<svg width="100%" height="100%" viewBox="0 0 512 512" version="1.1" xmlns="http://www.w3.org/2000/svg" xmlns:xlink="http://www.w3.org/1999/xlink" xml:space="preserve" xmlns:serif="http://www.serif.com/" style="fill-rule:evenodd;clip-rule:evenodd;stroke-linejoin:round;stroke-miterlimit:2;">
    <g id="BULINE">
    </g>
    <g id="Icons">
        <path d="M512,255.91L512,256C512,397.38 397.38,512 256,512C115.563,512 0,396.437 0,256L0,255.91L512,255.91Z" style="fill:white;fill-rule:nonzero;"/>
        <path d="M512,255.91L512,256L0,256L0,255.91C0.049,115.507 115.597,-0 256,0C397.35,0 512,114.56 512,255.91Z" style="fill:rgb(255,0,0);fill-rule:nonzero;"/>
        <path d="M0,255.91C0.142,115.499 115.719,0.039 256.13,0.039C266.704,0.039 277.267,0.694 287.76,2C160.281,17.891 63.542,127.453 63.55,255.91L63.55,256C63.559,384.474 160.28,494.046 287.76,510C277.225,511.317 266.617,511.978 256,511.978C115.571,511.978 0.012,396.429 -0,256L0,255.91Z" style="fill:rgb(17,17,17);fill-opacity:0.1;"/>
        <g transform="matrix(1,0,0,1,5.17297,-231.735)">
            <circle cx="442.44" cy="370.72" r="16.28" style="fill:white;fill-opacity:0.2;"/>
        </g>
        <g transform="matrix(1,0,0,1,-40.8447,-236.509)">
            <circle cx="466.42" cy="346.74" r="11.53" style="fill:white;fill-opacity:0.2;"/>
        </g>
    </g>
</svg>
