<svg xmlns="http://www.w3.org/2000/svg" viewBox="0 0 512 512"><defs><style>.cls-1{fill:#3586cb;}.cls-2{fill:#fff;}.cls-3{fill:#3e436d;}.cls-4{fill:#dbdbdb;}.cls-5{fill:#32314b;}.cls-6{fill:#4f4f74;}</style></defs><title>Country Flags</title><g id="BULINE"><circle class="cls-1" cx="256" cy="256" r="256"/></g><g id="Icons"><path class="cls-2" d="M512,256a255.46,255.46,0,1,1-25.61-111.71A254.76,254.76,0,0,1,512,256Z"/><path class="cls-3" d="M325.39,260.67l28.19-47.21A10,10,0,0,0,345,198.33H288.16l-23.58-39.46a10,10,0,0,0-17.16,0l-23.58,39.46H167a10,10,0,0,0-8.58,15.13l28.19,47.21-28.19,47.2A10,10,0,0,0,167,323h56.84l23.58,39.46a10,10,0,0,0,17.16,0L288.16,323H345a10,10,0,0,0,8.58-15.13Zm2-42.34-13.64,22.84L300.1,218.33ZM256,183.5l8.86,14.83H247.14Zm-71.38,34.83H211.9l-13.64,22.84Zm0,84.67,13.64-22.83L211.9,303ZM256,337.83,247.14,323h17.72ZM276.81,303H235.19l-25.28-42.33,25.28-42.34h41.62l25.28,42.34Zm23.29,0,13.64-22.83L327.38,303Z"/><path class="cls-4" d="M153,443.42a255.19,255.19,0,0,0,138.7,66.11A257.74,257.74,0,0,1,256,512,256,256,0,1,1,256,0a257.74,257.74,0,0,1,35.69,2.47,256,256,0,0,0-138.7,441Z"/><path class="cls-3" d="M483.32,373.83a256.89,256.89,0,0,1-52.93,69.59H81.61a256.89,256.89,0,0,1-52.93-69.59Z"/><path class="cls-3" d="M486.39,144.29H25.61A256.42,256.42,0,0,1,75.25,74.71h361.5A256.42,256.42,0,0,1,486.39,144.29Z"/><path class="cls-5" d="M153,443.42H81.61a256.89,256.89,0,0,1-52.93-69.59h71.38A256.89,256.89,0,0,0,153,443.42Z"/><path class="cls-5" d="M146.63,74.71A256.42,256.42,0,0,0,97,144.29H25.61A256.42,256.42,0,0,1,75.25,74.71Z"/><circle class="cls-6" cx="416.89" cy="109.5" r="16.28"/><circle class="cls-6" cx="382.97" cy="109.5" r="11.53"/></g></svg>