<svg xmlns="http://www.w3.org/2000/svg" viewBox="0 0 512 512"><defs><style>.cls-1{fill:#27273d;}.cls-2{fill:#e88032;}.cls-3{fill:#fff;}.cls-4{fill:#00b564;}.cls-5{fill:#d8712b;}.cls-6{fill:#e2e2e2;}.cls-7{fill:#049b53;}.cls-8{fill:#ef9050;}.cls-9{fill:#3e436d;}</style></defs><title>Country Flags</title><g id="BULINE"><circle class="cls-1" cx="256" cy="256" r="256"/></g><g id="Icons"><path class="cls-2" d="M496.14,167.12H15.85C52,69.54,145.86,0,256,0S460,69.54,496.14,167.12Z"/><path class="cls-3" d="M496.14,344.87H15.85a256.53,256.53,0,0,1,0-177.75H496.14a253,253,0,0,1,8.91,29.41,257.31,257.31,0,0,1-8.91,148.34Z"/><path class="cls-4" d="M256,512A256.09,256.09,0,0,1,15.85,344.87H496.14a252.21,252.21,0,0,1-13.05,29.41A256,256,0,0,1,256,512Z"/><path class="cls-5" d="M289.5,2.17c-95.38,12.47-174.24,77.43-206.65,165h-67C52,69.54,145.86,0,256,0A259.05,259.05,0,0,1,289.5,2.17Z"/><path class="cls-6" d="M67,256a255.41,255.41,0,0,0,15.85,88.87h-67a256.53,256.53,0,0,1,0-177.75h67A252.91,252.91,0,0,0,74,196.53,256.16,256.16,0,0,0,67,256Z"/><path class="cls-7" d="M289.5,509.83A258.82,258.82,0,0,1,256,512,256.09,256.09,0,0,1,15.85,344.87h67a256.15,256.15,0,0,0,206.65,165Z"/><circle class="cls-8" cx="408.07" cy="96.45" r="16.28"/><circle class="cls-8" cx="384.09" cy="72.47" r="11.53"/><circle class="cls-9" cx="256" cy="256" r="79.86"/><path class="cls-3" d="M318.86,249.5l-3.73-.83c0-.3-.07-.6-.11-.89L318.4,246a2.82,2.82,0,0,0,1.43-3.24l-1.93-7.22a2.84,2.84,0,0,0-2.86-2.1l-3.81.16c-.11-.28-.22-.56-.34-.84l2.8-2.57a2.82,2.82,0,0,0,.54-3.5l-3.74-6.48a2.82,2.82,0,0,0-3.3-1.28l-3.64,1.14c-.18-.24-.37-.47-.55-.7l2.05-3.23a2.84,2.84,0,0,0-.39-3.53l-5.28-5.28a2.84,2.84,0,0,0-3.53-.39L292.62,209l-.7-.55,1.14-3.64a2.82,2.82,0,0,0-1.28-3.3l-6.48-3.74a2.82,2.82,0,0,0-3.5.54l-2.57,2.8-.84-.34.16-3.81a2.84,2.84,0,0,0-2.1-2.86l-7.22-1.93A2.82,2.82,0,0,0,266,193.6L264.22,197l-.89-.11-.83-3.73a2.82,2.82,0,0,0-2.76-2.22h-7.48a2.82,2.82,0,0,0-2.76,2.22l-.83,3.73-.89.11L246,193.6a2.82,2.82,0,0,0-3.24-1.43l-7.22,1.93a2.84,2.84,0,0,0-2.1,2.86l.16,3.81-.84.34-2.57-2.8a2.82,2.82,0,0,0-3.5-.54l-6.48,3.74a2.82,2.82,0,0,0-1.28,3.3l1.14,3.64-.7.55L216.15,207a2.84,2.84,0,0,0-3.53.39l-5.28,5.28a2.84,2.84,0,0,0-.39,3.53l2.05,3.23c-.18.23-.37.46-.55.7l-3.64-1.14a2.82,2.82,0,0,0-3.3,1.28l-3.74,6.48a2.82,2.82,0,0,0,.54,3.5l2.8,2.57c-.12.28-.23.56-.34.84l-3.81-.16a2.84,2.84,0,0,0-2.86,2.1l-1.93,7.22A2.82,2.82,0,0,0,193.6,246l3.38,1.77c0,.29-.07.59-.11.89l-3.73.83a2.82,2.82,0,0,0-2.22,2.76v7.48a2.82,2.82,0,0,0,2.22,2.76l3.73.83c0,.3.07.6.11.89L193.6,266a2.82,2.82,0,0,0-1.43,3.24l1.93,7.22a2.84,2.84,0,0,0,2.86,2.1l3.81-.16c.11.28.22.56.34.84l-2.8,2.57a2.82,2.82,0,0,0-.54,3.5l3.74,6.48a2.82,2.82,0,0,0,3.3,1.28l3.64-1.14c.18.24.37.47.55.7L207,295.85a2.84,2.84,0,0,0,.39,3.53l5.28,5.28a2.84,2.84,0,0,0,3.53.39l3.23-2.05.7.55-1.14,3.64a2.82,2.82,0,0,0,1.28,3.3l6.48,3.74a2.82,2.82,0,0,0,3.5-.54l2.57-2.8.84.34-.16,3.81a2.84,2.84,0,0,0,2.1,2.86l7.22,1.93A2.82,2.82,0,0,0,246,318.4l1.77-3.38.89.11.83,3.73a2.82,2.82,0,0,0,2.76,2.22h7.48a2.82,2.82,0,0,0,2.76-2.22l.83-3.73.89-.11L266,318.4a2.82,2.82,0,0,0,3.24,1.43l7.22-1.93a2.84,2.84,0,0,0,2.1-2.86l-.16-3.81.84-.34,2.57,2.8a2.82,2.82,0,0,0,3.5.54l6.48-3.74a2.82,2.82,0,0,0,1.28-3.3l-1.14-3.64.7-.55,3.23,2.05a2.84,2.84,0,0,0,3.53-.39l5.28-5.28a2.84,2.84,0,0,0,.39-3.53L303,292.62c.18-.23.37-.46.55-.7l3.64,1.14a2.82,2.82,0,0,0,3.3-1.28l3.74-6.48a2.82,2.82,0,0,0-.54-3.5l-2.8-2.57c.12-.28.23-.56.34-.84l3.81.16a2.84,2.84,0,0,0,2.86-2.1l1.93-7.22A2.82,2.82,0,0,0,318.4,266L315,264.22c0-.29.07-.59.11-.89l3.73-.83a2.82,2.82,0,0,0,2.22-2.76v-7.48A2.82,2.82,0,0,0,318.86,249.5Z"/><path class="cls-9" d="M268.28,256a4.11,4.11,0,0,1,0,.7,10,10,0,0,1-.24,1.91,11.84,11.84,0,0,1-.9,2.63,12.32,12.32,0,0,1-1.18,2,11.87,11.87,0,0,1-1.88,2,10.11,10.11,0,0,1-1.45,1.08,11.54,11.54,0,0,1-2.5,1.21,10.8,10.8,0,0,1-2.71.63,10.63,10.63,0,0,1-2.76,0,11.22,11.22,0,0,1-2.15-.43,11,11,0,0,1-2.54-1.1,11.59,11.59,0,0,1-1.7-1.16,11.12,11.12,0,0,1-1.93-2,10.74,10.74,0,0,1-1.3-2,11.18,11.18,0,0,1-.93-2.62,10.14,10.14,0,0,1-.31-2.14,4.11,4.11,0,0,1,0-.7,12.87,12.87,0,0,1,.18-2.08,9.64,9.64,0,0,1,.47-1.83,10.66,10.66,0,0,1,1.18-2.51,9.71,9.71,0,0,1,1.18-1.62,11.87,11.87,0,0,1,2.05-1.88,12.57,12.57,0,0,1,4.81-2.13c.35-.06.68-.11,1-.15s.91-.08,1.38-.08.93,0,1.38.08a9,9,0,0,1,1.63.3,10.74,10.74,0,0,1,2.6,1,10.61,10.61,0,0,1,1.89,1.21,10.35,10.35,0,0,1,2,1.93,9.27,9.27,0,0,1,1.1,1.55,11.55,11.55,0,0,1,1.13,2.53,10.51,10.51,0,0,1,.39,1.61A12.87,12.87,0,0,1,268.28,256Z"/><path class="cls-9" d="M268.28,256a4.11,4.11,0,0,1,0,.7,10,10,0,0,1-.24,1.91,11.84,11.84,0,0,1-.9,2.63,12.32,12.32,0,0,1-1.18,2,11.87,11.87,0,0,1-1.88,2,10.11,10.11,0,0,1-1.45,1.08,11.54,11.54,0,0,1-2.5,1.21,10.8,10.8,0,0,1-2.71.63,10.63,10.63,0,0,1-2.76,0,11.22,11.22,0,0,1-2.15-.43,11,11,0,0,1-2.54-1.1,11.59,11.59,0,0,1-1.7-1.16,11.12,11.12,0,0,1-1.93-2,10.74,10.74,0,0,1-1.3-2,11.18,11.18,0,0,1-.93-2.62,10.14,10.14,0,0,1-.31-2.14,4.11,4.11,0,0,1,0-.7,12.87,12.87,0,0,1,.18-2.08,9.64,9.64,0,0,1,.47-1.83,10.66,10.66,0,0,1,1.18-2.51,9.71,9.71,0,0,1,1.18-1.62,11.87,11.87,0,0,1,2.05-1.88,12.57,12.57,0,0,1,4.81-2.13c.35-.06.68-.11,1-.15s.91-.08,1.38-.08.93,0,1.38.08a9,9,0,0,1,1.63.3,10.74,10.74,0,0,1,2.6,1,10.61,10.61,0,0,1,1.89,1.21,10.35,10.35,0,0,1,2,1.93,9.27,9.27,0,0,1,1.1,1.55,11.55,11.55,0,0,1,1.13,2.53,10.51,10.51,0,0,1,.39,1.61A12.87,12.87,0,0,1,268.28,256Z"/><path class="cls-9" d="M239,256.7H204.71a1.39,1.39,0,1,1,0-2.78h34.37A17.87,17.87,0,0,0,239,256C239,256.23,239,256.47,239,256.7Z"/><path class="cls-9" d="M240.56,263.25,208.93,276a1.45,1.45,0,0,1-.51.1,1.39,1.39,0,0,1-.52-2.68l31.7-12.76A17.42,17.42,0,0,0,240.56,263.25Z"/><path class="cls-9" d="M207.77,235.84a1.41,1.41,0,0,1,1.81-.77l31.5,12.69a16.06,16.06,0,0,0-1.15,2.53l-31.38-12.64A1.4,1.4,0,0,1,207.77,235.84Z"/><path class="cls-9" d="M244.84,268.89l-24.38,24.36a1.39,1.39,0,0,1-1,.42,1.4,1.4,0,0,1-1-2.38l24.39-24.39A16.65,16.65,0,0,0,244.84,268.89Z"/><path class="cls-9" d="M219,220.21a1.37,1.37,0,0,1,0-2,1.39,1.39,0,0,1,1.95,0l24.42,24.42a17.36,17.36,0,0,0-2,1.9Z"/><path class="cls-9" d="M248.13,271.12a14.67,14.67,0,0,0,2.55,1.08l-12.56,31.18a1.41,1.41,0,0,1-1.3.87,1.65,1.65,0,0,1-.52-.1,1.41,1.41,0,0,1-.76-1.82Z"/><path class="cls-9" d="M236.19,208.22a1.38,1.38,0,1,1,2.56-1l13,32.29a15.6,15.6,0,0,0-2.62.91Z"/><path class="cls-9" d="M256,239c-.47,0-.93,0-1.38.05V204.71a1.38,1.38,0,1,1,2.76,0V239C256.93,239,256.47,239,256,239Z"/><path class="cls-9" d="M256,273.05c.47,0,.93,0,1.38-.05v34.29a1.38,1.38,0,1,1-2.76,0V273C255.07,273,255.53,273.05,256,273.05Z"/><path class="cls-9" d="M263.4,240.63a17.57,17.57,0,0,0-2.59-1l13.07-32.44a1.39,1.39,0,1,1,2.58,1Z"/><path class="cls-9" d="M277.1,302.33a1.39,1.39,0,0,1-.77,1.82,1.5,1.5,0,0,1-.52.1,1.39,1.39,0,0,1-1.28-.87L261.89,272a15.89,15.89,0,0,0,2.51-1.16Z"/><path class="cls-9" d="M266.91,242.89l24.14-24.14a1.38,1.38,0,0,1,1.95,2l-24.12,24.13A16.5,16.5,0,0,0,266.91,242.89Z"/><path class="cls-9" d="M293.5,290.8a1.39,1.39,0,0,1-2,2l-24.11-24.11a17.36,17.36,0,0,0,1.9-2Z"/><path class="cls-9" d="M271,248l32-12.91a1.39,1.39,0,0,1,1,2.58l-32,12.88A14.8,14.8,0,0,0,271,248Z"/><path class="cls-9" d="M305.51,275.23a1.41,1.41,0,0,1-1.28.87,1.66,1.66,0,0,1-.53-.1l-32.16-13a18,18,0,0,0,.93-2.61l32.28,13A1.4,1.4,0,0,1,305.51,275.23Z"/><path class="cls-9" d="M308.69,255.3a1.4,1.4,0,0,1-1.4,1.4H273c0-.23,0-.47,0-.7a17.87,17.87,0,0,0-.13-2.08h34.37A1.39,1.39,0,0,1,308.69,255.3Z"/></g></svg>