<svg xmlns="http://www.w3.org/2000/svg" viewBox="0 0 512 512"><defs><style>.cls-1{fill:#7cc8fb;}.cls-2{fill:#fff;}.cls-3{fill:#0f4ea8;}.cls-4{fill:#db1b1b;}.cls-5{fill:#27273d;}.cls-6{fill:#dedfe0;}.cls-7{fill:#1d1d2d;}</style></defs><title>Country Flags</title><g id="BULINE"><circle class="cls-1" cx="256" cy="256" r="256"/></g><g id="Icons"><circle class="cls-2" cx="256" cy="256" r="256"/><path class="cls-3" d="M325.7,256.52c-30.61-21.52-59.71-1-70.77,8.84a65.42,65.42,0,0,1-18.84,11.87c-26.54,10.7-43.06,0-43.06,0-48.66-28-31.83-69.51-23.55-84.45A112,112,0,1,0,350.65,324C364.64,283.79,325.7,256.52,325.7,256.52Z"/><path class="cls-4" d="M256.76,150.93a111.76,111.76,0,0,0-87.28,41.83C161.2,207.7,144.37,249.2,193,277.21c0,0,16.52,10.72,43.06,0a65.42,65.42,0,0,0,18.84-11.87c11.06-9.8,40.16-30.36,70.77-8.84,0,0,38.94,27.27,24.95,67.43a112,112,0,0,0-93.89-173Z"/><path class="cls-5" d="M346.19,418.22a10,10,0,0,1-7.07-17.07l23.33-23.33A10,10,0,0,1,376.6,392L353.26,415.3A10,10,0,0,1,346.19,418.22Z"/><path class="cls-5" d="M366,438A10,10,0,0,1,358.92,421l23.33-23.33a10,10,0,0,1,14.14,14.14l-23.33,23.33A9.93,9.93,0,0,1,366,438Z"/><path class="cls-5" d="M412.66,391.35a10,10,0,0,1-7.07-17.07L428.92,351a10,10,0,0,1,14.14,14.14l-23.33,23.34A10,10,0,0,1,412.66,391.35Z"/><path class="cls-5" d="M392.86,371.56a10,10,0,0,1-7.07-17.08l23.33-23.33a10,10,0,0,1,14.14,14.14l-23.33,23.34A10,10,0,0,1,392.86,371.56Z"/><path class="cls-5" d="M432.46,411.15a10,10,0,0,1-7.07-17.07l23.33-23.33a10,10,0,0,1,14.14,14.14l-23.33,23.33A10,10,0,0,1,432.46,411.15Z"/><path class="cls-5" d="M385.79,457.82a10,10,0,0,1-7.07-17.07l23.33-23.33a10,10,0,0,1,14.14,14.14l-23.33,23.33A9.93,9.93,0,0,1,385.79,457.82Z"/><path class="cls-5" d="M409.12,97.51a9.93,9.93,0,0,1-7.07-2.93L378.72,71.25a10,10,0,0,1,14.14-14.14l23.33,23.33a10,10,0,0,1-7.07,17.07Z"/><path class="cls-5" d="M436,164a10,10,0,0,1-7.07-2.93l-70-70A10,10,0,1,1,373.06,76.9l70,70A10,10,0,0,1,436,164Z"/><path class="cls-5" d="M455.79,144.18a10,10,0,0,1-7.07-2.93l-23.33-23.33a10,10,0,0,1,14.14-14.15l23.33,23.34a10,10,0,0,1-7.07,17.07Z"/><path class="cls-5" d="M416.19,183.78a10,10,0,0,1-7.07-2.93l-23.33-23.33a10,10,0,1,1,14.14-14.15l23.33,23.34a10,10,0,0,1-7.07,17.07Z"/><path class="cls-5" d="M369.52,137.11a10,10,0,0,1-7.07-2.93l-23.33-23.33A10,10,0,0,1,353.26,96.7L376.6,120a10,10,0,0,1-7.08,17.07Z"/><path class="cls-6" d="M285,510.37A257.12,257.12,0,0,1,256,512C114.61,512,0,397.38,0,256S114.61,0,256,0a257.12,257.12,0,0,1,29,1.63,256,256,0,0,0,0,508.74Z"/><path class="cls-5" d="M56.21,144.18a10,10,0,0,1-7.07-17.07l70-70a10,10,0,0,1,14.14,14.14l-70,70A10,10,0,0,1,56.21,144.18Z"/><path class="cls-5" d="M76,164a10,10,0,0,1-7.07-17.07l70-70a10,10,0,0,1,14.14,14.15l-70,70A10,10,0,0,1,76,164Z"/><path class="cls-5" d="M95.81,183.78a10,10,0,0,1-7.07-17.07l70-70a10,10,0,0,1,14.14,14.15l-70,70A10,10,0,0,1,95.81,183.78Z"/><path class="cls-5" d="M165.81,418.22a10,10,0,0,1-7.07-2.92l-70-70a10,10,0,0,1,14.14-14.14l70,70a10,10,0,0,1-7.07,17.07Z"/><path class="cls-5" d="M99.34,391.35a10,10,0,0,1-7.07-2.92L68.94,365.09A10,10,0,1,1,83.08,351l23.33,23.33a10,10,0,0,1-7.07,17.07Z"/><path class="cls-5" d="M146,438a9.93,9.93,0,0,1-7.07-2.93l-23.33-23.33a10,10,0,0,1,14.14-14.14L153.08,421A10,10,0,0,1,146,438Z"/><path class="cls-5" d="M126.21,457.82a9.93,9.93,0,0,1-7.07-2.93l-70-70a10,10,0,0,1,14.14-14.14l70,70a10,10,0,0,1-7.07,17.07Z"/><path class="cls-7" d="M56.21,144.18a10,10,0,0,1-7.07-17.07l70-70a10,10,0,0,1,14.14,14.14l-70,70A10,10,0,0,1,56.21,144.18Z"/><path class="cls-7" d="M99.27,116.57a255.21,255.21,0,0,0-24.21,47.36,10,10,0,0,1-6.13-17Z"/><path class="cls-7" d="M96.4,390.91a9.85,9.85,0,0,1-4.13-2.49L68.93,365.09a10,10,0,0,1,6.13-17A254.28,254.28,0,0,0,96.4,390.91Z"/><path class="cls-7" d="M126.21,457.82a9.93,9.93,0,0,1-7.07-2.93l-70-70a10,10,0,0,1,14.14-14.14l70,70a10,10,0,0,1-7.07,17.07Z"/></g></svg>