<?xml version="1.0" encoding="UTF-8" standalone="no"?>
<!DOCTYPE svg PUBLIC "-//W3C//DTD SVG 1.1//EN" "http://www.w3.org/Graphics/SVG/1.1/DTD/svg11.dtd">
<svg width="100%" height="100%" viewBox="0 0 512 512" version="1.1" xmlns="http://www.w3.org/2000/svg" xmlns:xlink="http://www.w3.org/1999/xlink" xml:space="preserve" xmlns:serif="http://www.serif.com/" style="fill-rule:evenodd;clip-rule:evenodd;stroke-linejoin:round;stroke-miterlimit:2;">
    <g transform="matrix(1,0,0,1,0.29891,-0.201349)">
        <circle cx="256" cy="256" r="256" style="fill:white;"/>
    </g>
    <g transform="matrix(1.00058,0,0,0.542615,-0.299085,438.839)">
        <path d="M125.056,67.49C107.844,48.441 91.945,25.766 77.67,0.039L435.226,0.039C420.951,25.766 405.052,48.441 387.841,67.49L125.056,67.49Z" style="fill:rgb(204,0,0);"/>
    </g>
    <g transform="matrix(1,0,0,1,0.29891,-0.201349)">
        <path d="M46.098,402.511C38.024,390.971 30.877,378.734 24.765,365.911L487.235,365.911C481.123,378.734 473.976,390.971 465.902,402.511L46.098,402.511Z" style="fill:rgb(204,0,0);"/>
    </g>
    <g transform="matrix(1.00058,0,0,0.542615,-0.299085,292.549)">
        <path d="M11.279,67.49C7.733,45.628 5.025,23.102 3.222,0.039L509.674,0.039C507.872,23.102 505.163,45.628 501.618,67.49L11.279,67.49Z" style="fill:rgb(204,0,0);"/>
    </g>
    <g transform="matrix(1.00058,0,0,0.542615,-0.299085,219.409)">
        <path d="M0.598,67.49C0.598,67.348 0.598,67.206 0.598,67.064C0.598,44.312 1.473,21.934 3.165,0.039L509.732,0.039C510.851,14.521 511.612,29.214 512,44.086L512,67.49L0.598,67.49Z" style="fill:rgb(204,0,0);"/>
    </g>
    <g transform="matrix(1.00058,0,0,0.542615,-0.299085,146.269)">
        <path d="M11.141,67.49C14.891,44.206 19.591,21.671 25.157,0.039L487.74,0.039C493.306,21.671 498.005,44.206 501.756,67.49L11.141,67.49Z" style="fill:rgb(204,0,0);"/>
    </g>
    <g transform="matrix(1.00058,0,0,0.542615,-0.299085,73.1188)">
        <path d="M46.353,67.49C55.507,43.253 65.862,20.671 77.259,0.039L435.637,0.039C447.034,20.671 457.389,43.253 466.543,67.49L46.353,67.49Z" style="fill:rgb(204,0,0);"/>
    </g>
    <g transform="matrix(1.00058,0,0,0.542615,-0.299085,-0.021162)">
        <path d="M124.288,67.49C160.137,27.498 201.725,3.272 246.217,0.039L266.679,0.039C311.172,3.272 352.76,27.498 388.608,67.49L124.288,67.49Z" style="fill:rgb(204,0,0);"/>
    </g>
    <g transform="matrix(22.8571,0,0,34.42,0,0)">
        <path d="M0.128,8.5C0.052,8.151 0.013,7.794 0.013,7.432C0.013,3.426 4.791,0.156 10.765,-0L11.661,0C12.465,0.021 13.248,0.099 14,0.227L14,8.5L0.128,8.5Z" style="fill:rgb(0,0,102);"/>
    </g>
    <g transform="matrix(0.0592576,0,0,0.0592576,-19.2789,50.8155)">
        <path d="M4200,720L4307,1452L4721,839L4499,1545L5138,1172L4632,1712L5370,1653L4680,1920L5370,2187L4632,2128L5138,2668L4499,2295L4721,3001L4307,2388L4200,3120L4093,2388L3679,3001L3901,2295L3262,2668L3768,2128L3030,2187L3720,1920L3030,1653L3768,1712L3262,1172L3901,1545L3679,839L4093,1452L4200,720ZM3600,750C3436.54,677.474 3259.69,640 3080.87,640C2378.68,640 1800.87,1217.81 1800.87,1920C1800.87,2622.19 2378.68,3200 3080.87,3200C3259.69,3200 3436.54,3162.53 3600,3090C3355.34,3265.55 3061.66,3360 2760.54,3360C1970.58,3360 1320.54,2709.96 1320.54,1920C1320.54,1130.04 1970.58,480 2760.54,480C3061.66,480 3355.34,574.455 3600,750Z" style="fill:rgb(255,204,0);fill-rule:nonzero;"/>
    </g>
    <g transform="matrix(1,0,0,1,-11.1284,31.59)">
        <circle cx="442.44" cy="370.72" r="16.28" style="fill:white;fill-opacity:0.2;"/>
    </g>
    <g transform="matrix(1,0,0,1,-23.5784,20.97)">
        <circle cx="466.42" cy="346.74" r="11.53" style="fill:white;fill-opacity:0.2;"/>
    </g>
    <path d="M0,255.91C0.142,115.499 115.719,0.039 256.13,0.039C266.704,0.039 277.267,0.694 287.76,2C160.281,17.891 63.542,127.453 63.55,255.91L63.55,256C63.559,384.474 160.28,494.046 287.76,510C277.225,511.317 266.617,511.978 256,511.978C115.571,511.978 0.012,396.429 -0,256L0,255.91Z" style="fill:rgb(17,17,17);fill-opacity:0.1;"/>
</svg>
