<?xml version="1.0" encoding="UTF-8" standalone="no"?>
<!DOCTYPE svg PUBLIC "-//W3C//DTD SVG 1.1//EN" "http://www.w3.org/Graphics/SVG/1.1/DTD/svg11.dtd">
<svg width="100%" height="100%" viewBox="0 0 512 512" version="1.1" xmlns="http://www.w3.org/2000/svg" xmlns:xlink="http://www.w3.org/1999/xlink" xml:space="preserve" xmlns:serif="http://www.serif.com/" style="fill-rule:evenodd;clip-rule:evenodd;stroke-linejoin:round;stroke-miterlimit:2;">
    <g transform="matrix(6.66667,0,0,6.66667,81.7551,300.039)">
        <path d="M27.859,-45C48.276,-44.121 64.582,-27.268 64.582,-6.636C64.582,14.557 47.375,31.764 26.182,31.764C4.988,31.764 -12.218,14.557 -12.218,-6.636C-12.218,-27.268 4.088,-44.121 24.504,-45L27.859,-45Z" style="fill:rgb(0,56,168);"/>
    </g>
    <g transform="matrix(1,0,0,1,0.29891,-0.201349)">
        <path d="M512,256C512,397.29 397.29,512 256,512C114.71,512 -0,397.29 -0,256L512,256Z" style="fill:rgb(206,17,38);"/>
    </g>
    <g transform="matrix(1,0,0,1,0.29891,-0.201349)">
        <path d="M74.07,436.033C28.287,389.771 0,326.163 0,256C0,185.972 28.179,122.473 73.806,76.235L385.531,256.21L74.07,436.033Z" style="fill:white;"/>
    </g>
    <g transform="matrix(4.18272,0,0,4.18272,169.474,255.799)">
        <circle cx="0" cy="0" r="9" style="fill:rgb(252,209,22);"/>
    </g>
    <g id="c" transform="matrix(4.18272,0,0,4.18272,169.474,255.799)">
        <g id="b">
            <path id="a" d="M0,0L-3.164,-15.909L-2.219,-16.855L0,0ZM0,0L-1.169,-17.831L0,-19L1.169,-17.831L0,0ZM0,0L2.219,-16.855L3.164,-15.909L0,0Z" style="fill:rgb(252,209,22);fill-rule:nonzero;"/>
            <g id="a1" serif:id="a" transform="matrix(-1,0,0,-1,0,0)">
                <path d="M0,0L-3.164,-15.909L-2.219,-16.855L0,0ZM0,0L-1.169,-17.831L0,-19L1.169,-17.831L0,0ZM0,0L2.219,-16.855L3.164,-15.909L0,0Z" style="fill:rgb(252,209,22);fill-rule:nonzero;"/>
            </g>
        </g>
        <g id="b1" serif:id="b" transform="matrix(-3.82857e-16,1,-1,-3.82857e-16,0,0)">
            <path id="a2" serif:id="a" d="M0,0L-3.164,-15.909L-2.219,-16.855L0,0ZM0,0L-1.169,-17.831L0,-19L1.169,-17.831L0,0ZM0,0L2.219,-16.855L3.164,-15.909L0,0Z" style="fill:rgb(252,209,22);fill-rule:nonzero;"/>
            <g id="a3" serif:id="a" transform="matrix(-1,0,0,-1,0,0)">
                <path d="M0,0L-3.164,-15.909L-2.219,-16.855L0,0ZM0,0L-1.169,-17.831L0,-19L1.169,-17.831L0,0ZM0,0L2.219,-16.855L3.164,-15.909L0,0Z" style="fill:rgb(252,209,22);fill-rule:nonzero;"/>
            </g>
        </g>
    </g>
    <g id="c1" serif:id="c" transform="matrix(2.95763,2.95763,-2.95763,2.95763,169.474,255.799)">
        <g id="b2" serif:id="b">
            <path id="a4" serif:id="a" d="M0,0L-3.164,-15.909L-2.219,-16.855L0,0ZM0,0L-1.169,-17.831L0,-19L1.169,-17.831L0,0ZM0,0L2.219,-16.855L3.164,-15.909L0,0Z" style="fill:rgb(252,209,22);fill-rule:nonzero;"/>
            <g id="a5" serif:id="a" transform="matrix(-1,0,0,-1,0,0)">
                <path d="M0,0L-3.164,-15.909L-2.219,-16.855L0,0ZM0,0L-1.169,-17.831L0,-19L1.169,-17.831L0,0ZM0,0L2.219,-16.855L3.164,-15.909L0,0Z" style="fill:rgb(252,209,22);fill-rule:nonzero;"/>
            </g>
        </g>
        <g id="b3" serif:id="b" transform="matrix(-3.82857e-16,1,-1,-3.82857e-16,0,0)">
            <path id="a6" serif:id="a" d="M0,0L-3.164,-15.909L-2.219,-16.855L0,0ZM0,0L-1.169,-17.831L0,-19L1.169,-17.831L0,0ZM0,0L2.219,-16.855L3.164,-15.909L0,0Z" style="fill:rgb(252,209,22);fill-rule:nonzero;"/>
            <g id="a7" serif:id="a" transform="matrix(-1,0,0,-1,0,0)">
                <path d="M0,0L-3.164,-15.909L-2.219,-16.855L0,0ZM0,0L-1.169,-17.831L0,-19L1.169,-17.831L0,0ZM0,0L2.219,-16.855L3.164,-15.909L0,0Z" style="fill:rgb(252,209,22);fill-rule:nonzero;"/>
            </g>
        </g>
    </g>
    <g id="s" transform="matrix(4.18272,0,0,4.18272,169.474,255.799)">
        <path d="M40.942,0L37.56,1.176L37.487,4.755L35.324,1.902L31.897,2.939L33.942,0L31.897,-2.939L35.324,-1.902L37.487,-4.755L37.56,-1.176L40.942,0Z" style="fill:rgb(252,209,22);fill-rule:nonzero;"/>
    </g>
    <g id="s1" serif:id="s" transform="matrix(-2.09136,3.62234,-3.62234,-2.09136,156.807,263.112)">
        <path d="M40.942,0L37.56,1.176L37.487,4.755L35.324,1.902L31.897,2.939L33.942,0L31.897,-2.939L35.324,-1.902L37.487,-4.755L37.56,-1.176L40.942,0Z" style="fill:rgb(252,209,22);fill-rule:nonzero;"/>
    </g>
    <g id="s2" serif:id="s" transform="matrix(-2.09136,-3.62234,3.62234,-2.09136,156.807,248.485)">
        <path d="M40.942,0L37.56,1.176L37.487,4.755L35.324,1.902L31.897,2.939L33.942,0L31.897,-2.939L35.324,-1.902L37.487,-4.755L37.56,-1.176L40.942,0Z" style="fill:rgb(252,209,22);fill-rule:nonzero;"/>
    </g>
    <g transform="matrix(1,0,0,1,24.0483,-32.2494)">
        <circle cx="442.44" cy="370.72" r="16.28" style="fill:white;fill-opacity:0.2;"/>
    </g>
    <g transform="matrix(1,0,0,1,10.737,-38.7606)">
        <circle cx="466.42" cy="346.74" r="11.53" style="fill:white;fill-opacity:0.2;"/>
    </g>
    <path d="M0,255.91C0.142,115.499 115.719,0.039 256.13,0.039C266.704,0.039 277.267,0.694 287.76,2C160.281,17.891 63.542,127.453 63.55,255.91L63.55,256C63.559,384.474 160.28,494.046 287.76,510C277.225,511.317 266.617,511.978 256,511.978C115.571,511.978 0.012,396.429 -0,256L0,255.91Z" style="fill:rgb(17,17,17);fill-opacity:0.1;"/>
</svg>
