<svg xmlns="http://www.w3.org/2000/svg" viewBox="0 0 512 512"><defs><style>.cls-1{fill:#934cf5;}.cls-2{fill:#db1b1b;}.cls-3{fill:#fff;}.cls-4{fill:#bc1919;}.cls-5{fill:#cecece;}.cls-6{fill:#e83a3a;}</style></defs><title>Country Flags</title><g id="BULINE"><circle class="cls-1" cx="256" cy="256" r="256"/></g><g id="Icons"><path class="cls-2" d="M512,255.91V256c0,141.38-114.62,256-256,256A256,256,0,0,1,0,256v-.09Z"/><path class="cls-3" d="M512,255.91V256H0v-.09A256,256,0,0,1,256,0C397.35,0,512,114.56,512,255.91Z"/><path class="cls-4" d="M287.76,510A256,256,0,0,1,0,256v-.09H63.55V256A256,256,0,0,0,287.76,510Z"/><path class="cls-5" d="M287.76,2a255.86,255.86,0,0,0-224.21,254V256H0v-.09A256.13,256.13,0,0,1,287.76,2Z"/><circle class="cls-6" cx="442.44" cy="370.72" r="16.28"/><circle class="cls-6" cx="466.42" cy="346.74" r="11.53"/></g></svg>