<svg xmlns="http://www.w3.org/2000/svg" viewBox="0 0 512 512"><defs><style>.cls-1{fill:#27273d;}.cls-2{fill:#366fca;}.cls-3{fill:#f6d372;}.cls-4{fill:#db1b1b;}.cls-5{fill:#f6c752;}.cls-6{fill:#c11616;}.cls-7{fill:#ea3434;}.cls-8{fill:#3067b7;}.cls-9{fill:#f7bb38;}</style></defs><title>Country Flags</title><g id="BULINE"><circle class="cls-1" cx="256" cy="256" r="256"/></g><g id="Icons"><path class="cls-2" d="M167.12,15.86V496.15C69.54,460,0,366.14,0,256S69.54,52,167.12,15.86Z"/><path class="cls-3" d="M344.87,15.86V496.15a256.53,256.53,0,0,1-177.75,0V15.86A253,253,0,0,1,196.53,7a257.31,257.31,0,0,1,148.34,8.91Z"/><path class="cls-4" d="M512,256A256.09,256.09,0,0,1,344.87,496.15V15.86a252.21,252.21,0,0,1,29.41,13.05A256,256,0,0,1,512,256Z"/><path class="cls-5" d="M196.53,7v498.1a252.91,252.91,0,0,1-29.41-8.9V15.86A253,253,0,0,1,196.53,7Z"/><path class="cls-6" d="M374.28,28.91V483.1a253.9,253.9,0,0,1-29.41,13V15.86A252.21,252.21,0,0,1,374.28,28.91Z"/><circle class="cls-7" cx="444.71" cy="166.38" r="16.28"/><circle class="cls-7" cx="444.71" cy="132.46" r="11.53"/><path class="cls-8" d="M57.87,256.05A255.68,255.68,0,0,0,167.12,465.83v30.32C69.54,460,0,366.14,0,256S69.54,52,167.12,15.86V46.27A255.66,255.66,0,0,0,57.87,256.05Z"/><path class="cls-5" d="M196.53,483.63a254.3,254.3,0,0,0,88.19,26.78A259.42,259.42,0,0,1,256,512a256.16,256.16,0,0,1-59.47-6.95,252.91,252.91,0,0,1-29.41-8.9V465.83A253.77,253.77,0,0,0,196.53,483.63Z"/><path class="cls-5" d="M196.53,28.47a253.77,253.77,0,0,0-29.41,17.8V15.86A253,253,0,0,1,196.53,7,256.16,256.16,0,0,1,256,0a260.14,260.14,0,0,1,29.17,1.64A254.1,254.1,0,0,0,196.53,28.47Z"/><path class="cls-9" d="M196.53,7V28.47a253.77,253.77,0,0,0-29.41,17.8V15.86A253,253,0,0,1,196.53,7Z"/><path class="cls-9" d="M167.12,465.83a253.77,253.77,0,0,0,29.41,17.8v21.42a252.91,252.91,0,0,1-29.41-8.9Z"/></g></svg>