<?xml version="1.0" encoding="UTF-8" standalone="no"?>
<!DOCTYPE svg PUBLIC "-//W3C//DTD SVG 1.1//EN" "http://www.w3.org/Graphics/SVG/1.1/DTD/svg11.dtd">
<svg width="100%" height="100%" viewBox="0 0 512 512" version="1.1" xmlns="http://www.w3.org/2000/svg" xmlns:xlink="http://www.w3.org/1999/xlink" xml:space="preserve" xmlns:serif="http://www.serif.com/" style="fill-rule:evenodd;clip-rule:evenodd;stroke-linejoin:round;stroke-miterlimit:2;">
    <g transform="matrix(1,0,0,1,0.29891,-0.201349)">
        <g id="BULINE">
            <circle cx="256" cy="256" r="256" style="fill:rgb(0,84,48);"/>
        </g>
        <g id="shahada" transform="matrix(0.286757,0,0,0.286757,-88.1103,36.1695)">
            <g transform="matrix(7.3042,0,0,-6.7531,1800,635.53)">
                <path d="M0,0C-0.023,4.162 -1.516,15.373 -1.895,19.134C-2.273,22.895 -2.654,26.307 -2.562,27.106C-2.472,27.877 -1.375,26.034 -0.795,25.885C-0.495,25.95 -0.629,27.114 -1.174,28.108C-1.543,28.783 -2.801,31.307 -3.564,32.786C-3.923,33.486 -4.003,33.892 -4.176,33.978C-4.348,34.064 -5.737,31.033 -5.585,30.697C-5.206,30.081 -4.946,29.787 -4.887,28.699C-4.827,27.611 -4.307,19.843 -3.644,13.955C-3.145,9.513 -2.05,-0.057 -2.011,-6.007C-2,-7.948 -2.199,-9.798 -2.438,-10.571C-3.051,-11.785 -4.009,-12.88 -7.577,-15.138C-11.588,-17.677 -16.939,-19.79 -19.239,-21.204C-20.669,-22.086 -20.195,-22.204 -18.95,-21.818C-17.708,-21.432 -11.286,-20.195 -8.166,-18.769C-5.237,-17.427 -3.336,-15.182 -1.893,-11.907C-0.111,-7.858 0.025,-4.422 0,0" style="fill:white;fill-rule:nonzero;"/>
            </g>
            <g transform="matrix(7.3042,0,0,-6.7531,1709.3,422.03)">
                <path d="M0,0C0.31,0.13 2.877,0.273 3.568,0.119C3.114,-0.583 0.036,-2.137 0.023,-2.422C0.107,-2.614 2.149,-2.067 2.793,-1.763C3.214,-1.489 3.495,-1.065 3.807,-0.713C4.543,0.203 5.416,1.902 5.196,2.115C4.839,2.459 1.34,2.245 0.879,2.174C0.57,2.126 -0.214,0.606 -0.358,0.216C-0.499,-0.174 -0.31,-0.13 0,0" style="fill:white;fill-rule:nonzero;"/>
            </g>
            <g transform="matrix(7.3042,0,0,-6.7531,1747.6,588.62)">
                <path d="M0,0C0.535,1.96 0.667,4.338 -0.061,6.841C-0.809,9.418 -2.667,10.989 -4.007,11.794L-4.246,9.313C-4.246,9.313 -2.367,8.303 -1.082,5.76C-0.268,4.147 0.071,1.866 -0.572,-0.677C-0.679,-1.308 -0.262,-0.96 -0,0" style="fill:white;fill-rule:nonzero;"/>
            </g>
            <g transform="matrix(7.3042,0,0,-6.7531,1602.4,672.64)">
                <path d="M0,0C0.482,1.765 0.6,3.906 -0.054,6.16C-0.728,8.481 -2.401,9.896 -3.608,10.618L-3.824,8.385C-3.824,8.385 -2.132,7.475 -0.975,5.187C-0.241,3.736 0.063,1.679 -0.514,-0.61C-0.61,-1.176 -0.235,-0.864 0,-0" style="fill:white;fill-rule:nonzero;"/>
            </g>
            <g transform="matrix(7.3042,0,0,-6.7531,1098.3,444.51)">
                <path d="M0,0C0.774,-1.531 1.095,-3.699 0.486,-6.114C0.384,-6.713 0.778,-6.384 1.029,-5.472C1.535,-3.612 1.661,-1.352 0.969,1.027C0.258,3.476 -1.507,4.967 -2.78,5.73L-3.005,3.374C-3.005,3.374 -1.22,2.415 -0,0" style="fill:white;fill-rule:nonzero;"/>
            </g>
            <g transform="matrix(7.3042,0,0,-6.7531,758,449.86)">
                <path d="M0,0C0.65,-1.648 0.694,-3.873 -0.356,-6.217C-0.56,-6.806 -0.063,-6.527 0.354,-5.646C1.206,-3.845 1.684,-1.591 1.252,0.899C0.809,3.459 -0.969,5.204 -2.3,6.149L-2.904,3.81C-2.904,3.81 -1.025,2.598 0,0" style="fill:white;fill-rule:nonzero;"/>
            </g>
            <g transform="matrix(7.3042,0,0,-6.7531,852.07,698.62)">
                <path d="M0,0C0.826,1.658 1.17,2.774 1.537,4.738C1.858,6.466 1.879,8.462 1.763,10.494C4.235,11.584 7.181,13.393 8.171,13.526C7.494,11.012 9.11,8.299 12.374,8.653C12.624,5.81 12.838,3.313 12.968,1.832C13.234,-1.204 13.194,-5.03 13.186,-5.695C13.175,-6.363 13.622,-6.237 14.081,-4.749C14.693,-2.757 14.882,2.445 14.66,5.885C14.607,6.745 14.517,7.906 14.408,9.229C16.524,10.288 16.876,12.332 17.667,13.203C18.381,10.498 22.311,10.131 23.524,10.71C25.028,11.429 25.521,12.722 25.908,15.723C26.296,18.723 25.166,19.931 24.762,20.258C24.722,19.895 23.738,16.369 23.738,16.369C23.738,16.369 24.671,15.303 24.718,14.779C23.958,14.035 22.355,13.989 21.009,14.463C19.662,14.937 19.249,15.809 19.329,16.394C19.407,16.981 19.914,17.515 19.931,18.23C19.946,18.945 19.629,18.738 19.09,18.105C18.551,17.471 18.203,16.901 17.457,15.54C16.847,14.427 15.857,13.069 14.111,12.681C13.823,15.949 13.494,19.426 13.274,21.61C13.159,22.763 12.01,32.727 11.928,33.842C11.857,34.813 11.724,35.958 11.746,36.496C11.768,36.924 12.016,36.754 12.4,36.306C12.785,35.859 13.458,35.079 13.574,35.14C13.966,35.348 13.565,36.643 13.052,37.803C12.54,38.966 10.792,43.554 10.425,43.743C10.236,43.839 9.056,41.015 8.986,40.459C9.169,40.111 9.647,39.564 9.664,38.008C9.67,37.574 9.928,33.482 10.286,29.613C10.599,26.196 11.014,22.954 11.054,22.577C11.339,19.969 11.685,16.293 12.014,12.679C10.119,13.069 9.615,14.421 9.657,15.192C9.705,16.062 10.068,17.044 9.894,17.266C9.529,17.503 7.357,16.19 4.328,14.779C3.476,14.383 2.516,13.958 1.503,13.555C1.239,16.018 0.891,18.36 0.751,20.151L0.734,20.35C2.726,20.489 4.357,21.577 5.099,22.613C6.026,23.908 6.674,26.573 6.737,28.615C6.8,30.659 5.275,34.396 4.912,35.584C4.546,36.773 4.357,37.597 4.325,38.008C4.292,38.419 5.149,37.532 5.688,37.358C6.053,37.279 5.927,38.134 5.481,38.721C5.038,39.306 2.642,43.239 2.474,42.963C2.371,42.801 1.411,39.908 1.348,39.465C1.726,39.195 2.168,38.451 2.199,37.738C2.231,37.025 2.759,33.89 3.344,32.148C3.931,30.406 5.181,27.064 5.26,26.145C4.367,25.464 2.334,24.311 0.323,24.38C-0.021,27.428 -0.457,30.968 -0.69,33.475C-0.78,34.444 -0.786,35.478 -0.772,36.018C-0.761,36.446 -0.476,36.387 -0.084,35.947C0.31,35.507 0.914,34.867 1.038,34.913C1.308,35.01 1.074,35.981 0.539,37.134C0.004,38.287 -2.122,43.164 -2.495,43.346C-2.684,43.439 -3.636,40.7 -3.696,40.141C-3.506,39.795 -3.019,39.26 -2.971,37.704C-2.933,36.465 -2.375,30.393 -1.897,25.045C-3.887,26.158 -4.566,27.749 -4.812,30.42C-4.984,32.282 -5.001,35.712 -5.615,38.581C-5.961,40.203 -6.69,41.851 -7.554,42.726C-7.76,42.187 -8.68,38.878 -8.68,38.878C-8.38,37.928 -7.447,34.729 -7.479,31.957C-7.51,29.185 -7.712,26.475 -10.584,24.608C-13.454,22.74 -17.759,23.483 -18.822,26.397C-19.885,29.313 -17.522,36.624 -17.553,38.35C-17.585,40.076 -17.87,40.314 -18.537,40.029C-19.203,39.744 -20.566,38.08 -21.74,35.373C-22.914,32.664 -23.436,29.309 -24.103,27.028C-24.768,24.747 -25.833,22.436 -27.481,22.564C-29.129,22.69 -30.016,24.321 -30.523,26.68C-31.031,29.041 -30.72,32.15 -30.582,32.947C-30.238,34.943 -31.035,34.534 -31.523,31.4C-31.825,29.467 -32.125,26.38 -31.062,23.149C-30.001,19.918 -28.192,18.713 -26.607,19.126C-25.021,19.537 -23.627,23.56 -23.135,25.367C-22.644,27.171 -20.447,35.184 -19.203,35.578C-19.029,34.675 -20.17,31.764 -20.535,28.359C-20.899,24.954 -20.05,20.38 -16.054,19.589C-12.058,18.797 -9.347,21.6 -8.364,23.546C-7.38,25.495 -6.921,27.538 -6.81,28.567C-6.682,25.955 -5.034,21.876 -1.833,20.713L-1.503,20.61C-1.306,18.472 -0.985,15.681 -0.69,12.75C-1.313,12.542 -1.942,12.354 -2.568,12.192C-2.648,12.473 -2.736,12.748 -2.843,13.001C-3.82,15.274 -5.437,17.369 -7.678,17.224C-9.967,17.077 -12.463,13.773 -12.354,11.36C-12.282,9.737 -11.456,8.405 -8.452,8.064C-7.08,7.907 -5.623,8.072 -4.118,8.427C-3.906,7.756 -3.772,7.089 -3.757,6.481C-4.709,5.277 -12.586,-1.149 -18.484,-1.767C-24.382,-2.384 -26.181,0.96 -26.24,4.317C-26.284,6.871 -24.864,9.42 -23.866,11.184C-22.438,12.314 -21.266,13.727 -20.526,14.817C-20.325,14.683 -20.134,14.559 -19.952,14.444C-19.247,14.001 -18.966,13.339 -18.966,13.339C-18.836,13.555 -18.23,14.735 -18.467,15.312C-18.576,15.454 -19.109,15.809 -19.75,16.23C-19.077,18.044 -19.086,19.855 -19.958,20.258C-20.933,20.707 -22.206,19.459 -22.755,18.698C-23.04,18.302 -23.149,17.853 -23.151,17.476C-23.155,16.991 -22.944,16.553 -22.422,16.163C-21.902,15.779 -21.419,15.431 -20.965,15.117C-22.254,13.653 -25.3,11.508 -27.164,10.248C-27.233,10.433 -27.506,10.238 -27.873,9.77L-28.378,9.433C-29.865,8.449 -33.431,6.288 -34.132,5.759C-34.834,5.229 -34.394,5.325 -34.132,5.443C-33.637,5.732 -32.987,6.082 -32.257,6.468C-31.223,7.015 -30.02,7.634 -28.844,8.255C-29.192,7.617 -29.552,6.871 -29.871,6.057C-31.274,2.474 -33.542,-4.952 -28.636,-9.42C-23.942,-13.697 -15.874,-12.07 -9.183,-7.625C-2.491,-3.179 -1.046,-1.616 0,0M-21.816,17.664C-22.048,17.849 -22.08,18.096 -21.891,18.268C-21.65,18.49 -21.342,18.7 -20.992,18.771C-20.25,18.92 -19.954,17.998 -20.252,16.562C-20.816,16.935 -21.396,17.327 -21.816,17.664M-6.468,11.607C-9.875,11.59 -10.032,12.259 -9.968,12.687C-9.905,13.113 -8.844,14.282 -7.498,13.511C-6.929,13.184 -6.288,12.5 -5.695,11.641C-5.957,11.62 -6.215,11.609 -6.468,11.607M-16.903,-7.772C-23.34,-9.672 -29.619,-6.728 -29.999,-0.899C-30.29,3.552 -28.789,6.906 -27.821,8.796C-26.898,9.29 -26.026,9.77 -25.305,10.2C-26.99,7.265 -27.976,3.334 -27.317,0.004C-26.571,-3.768 -23.537,-6.055 -18.4,-5.317C-13.314,-4.588 -6.437,0.644 -4.487,2.617C-3.893,3.329 -3.501,3.971 -2.967,5.279C-2.747,5.816 -2.438,6.525 -2.323,7.326C-2.248,7.848 -2.208,8.406 -2.199,8.974C-1.602,9.167 -1.002,9.383 -0.398,9.615C-0.193,7.227 -0.042,4.873 -0.033,2.837C-3.202,-1.183 -10.466,-5.871 -16.903,-7.772" style="fill:white;fill-rule:nonzero;"/>
            </g>
            <g transform="matrix(7.3042,0,0,-6.7531,1551,647.88)">
                <path d="M0,0C-0.218,3.9 -0.744,10.959 -1.038,14.54C-1.298,17.727 -1.809,22.095 -2.183,25.94C-2.277,26.908 -2.287,27.835 -2.277,28.374C-2.266,28.8 -1.872,28.636 -1.478,28.198C-1.084,27.76 -0.468,27.21 -0.352,27.277C0.033,27.493 -0.428,28.561 -0.969,29.71C-1.51,30.861 -3.655,35.622 -4.028,35.803C-4.218,35.895 -5.223,33.043 -5.281,32.484C-5.089,32.14 -4.598,31.607 -4.545,30.051C-4.491,28.494 -3.764,21.336 -3.239,15.547C-2.875,11.523 -2.405,4.957 -2.063,0.006C-2.08,-0.002 -1.74,-4.701 -1.703,-5.229C-1.493,-8.269 -1.602,-12.094 -1.623,-12.758C-1.646,-13.425 -1.195,-13.309 -0.711,-11.829C-0.218,-10.318 0.063,-6.944 0.101,-3.898L0,0Z" style="fill:white;fill-rule:nonzero;"/>
            </g>
            <g transform="matrix(7.3042,0,0,-6.7531,1417.5,555.68)">
                <path d="M0,0C-0.66,-0.218 -1.696,0.537 -1.617,2.12C-1.545,3.55 -0.979,4.889 -0.761,5.734C-0.461,6.9 -0.459,8.024 -0.713,7.387C-1.285,5.963 -2.35,3.21 -2.57,1.342C-2.791,-0.526 -2.231,-1.73 -1.47,-2.141C-0.522,-2.656 0.161,-1.839 0.623,-0.635C1.067,0.518 0.983,1.864 0.675,1.547C0.417,1.216 0.321,0.107 0,0" style="fill:white;fill-rule:nonzero;"/>
            </g>
            <g transform="matrix(7.3042,0,0,-6.7531,1348.2,594.54)">
                <path d="M0,0C0.35,1.006 0.432,1.992 0.163,1.451C-0.444,0.239 -1.581,-2.103 -1.914,-3.73C-2.246,-5.357 -1.843,-6.458 -1.203,-6.875C-0.405,-7.397 0.252,-6.728 0.749,-5.703C1.224,-4.722 1.248,-3.531 0.956,-3.789C0.704,-4.061 0.537,-5.028 0.249,-5.099C-0.35,-5.242 -1.204,-4.502 -1.019,-3.114C-0.851,-1.864 -0.254,-0.727 0,0" style="fill:white;fill-rule:nonzero;"/>
            </g>
            <g transform="matrix(7.3042,0,0,-6.7531,1146.4,737.86)">
                <path d="M0,0C0.585,1.027 0.876,2.092 0.47,1.554C-0.436,0.352 -2.151,-1.981 -2.843,-3.692C-3.533,-5.403 -3.313,-6.688 -2.698,-7.273C-1.931,-8.003 -1.076,-7.403 -0.329,-6.384C0.388,-5.407 0.656,-4.111 0.281,-4.332C-0.048,-4.581 -0.424,-5.604 -0.755,-5.623C-1.436,-5.659 -2.222,-4.678 -1.74,-3.2C-1.304,-1.866 -0.423,-0.744 0,0" style="fill:white;fill-rule:nonzero;"/>
            </g>
            <g transform="matrix(7.3042,0,0,-6.7531,1500.2,535.46)">
                <path d="M0,0C-0.671,-0.182 -1.663,0.631 -1.497,2.208C-1.346,3.631 -0.705,4.936 -0.442,5.766C-0.076,6.915 -0.013,8.036 -0.302,7.416C-0.95,6.024 -2.166,3.336 -2.491,1.482C-2.816,-0.371 -2.325,-1.604 -1.587,-2.057C-0.667,-2.621 0.057,-1.845 0.587,-0.667C1.094,0.459 1.086,1.807 0.759,1.507C0.484,1.189 0.327,0.088 -0,0" style="fill:white;fill-rule:nonzero;"/>
            </g>
            <g transform="matrix(7.3042,0,0,-6.7531,1498.7,666.11)">
                <path d="M0,0C0.918,-0.564 1.646,0.212 2.174,1.39C2.68,2.516 2.673,3.864 2.348,3.564C2.071,3.248 1.914,2.145 1.587,2.057C0.916,1.876 -0.078,2.688 0.09,4.265C0.241,5.688 0.881,6.994 1.145,7.823C1.51,8.972 1.573,10.095 1.285,9.473C0.635,8.081 -0.579,5.393 -0.904,3.541C-1.229,1.686 -0.738,0.453 -0,0" style="fill:white;fill-rule:nonzero;"/>
            </g>
            <g transform="matrix(7.3042,0,0,-6.7531,1584.4,499.22)">
                <path d="M0,0C0.442,1.39 0.518,2.747 0.168,1.996C-0.618,0.312 -2.088,-2.94 -2.482,-5.185C-2.874,-7.428 -2.279,-8.919 -1.386,-9.468C-0.275,-10.15 0.604,-9.211 1.245,-7.787C1.856,-6.424 1.847,-4.791 1.453,-5.156C1.12,-5.539 0.929,-6.871 0.533,-6.978C-0.277,-7.198 -1.48,-6.215 -1.277,-4.307C-1.094,-2.585 -0.319,-1.006 -0,0" style="fill:white;fill-rule:nonzero;"/>
            </g>
            <g transform="matrix(7.3042,0,0,-6.7531,899.52,661.58)">
                <path d="M0,0C0.723,1.694 0.985,3.39 0.453,2.487C-0.738,0.466 -2.981,-3.447 -3.747,-6.219C-4.514,-8.992 -3.946,-10.94 -2.891,-11.739C-1.575,-12.731 -0.356,-11.655 0.621,-9.944C1.556,-8.303 1.742,-6.248 1.203,-6.659C0.738,-7.099 0.336,-8.753 -0.174,-8.84C-1.222,-9.018 -2.614,-7.636 -2.128,-5.261C-1.688,-3.118 -0.522,-1.226 -0,0" style="fill:white;fill-rule:nonzero;"/>
            </g>
            <g transform="matrix(7.3042,0,0,-6.7531,1639,775)">
                <path d="M0,0C0.554,0.491 5.372,3.298 6.259,3.868C6.259,3.868 7.166,5.468 6.894,5.638C6.621,5.808 4.862,4.078 3.768,4.03C2.673,3.982 1.174,4.852 1.126,5.565C1.268,6.103 2.585,6.911 3.061,6.944C3.537,6.974 3.46,5.802 3.619,5.659C3.778,5.518 4.411,6.468 4.491,6.864C4.569,7.259 4.504,8.913 3.633,8.676C2.254,8.299 0.174,5.533 -0.063,4.663C-0.302,3.791 0.983,3.032 1.921,2.619C1.841,2.587 1.141,2.223 0.698,1.749C0.698,1.749 0.222,1.172 0,-0" style="fill:white;fill-rule:nonzero;"/>
            </g>
            <g transform="matrix(7.3042,0,0,-6.7531,1519,798.48)">
                <path d="M0,0C0.554,0.491 5.372,3.296 6.259,3.868C6.259,3.868 7.168,5.468 6.894,5.638C6.621,5.808 4.862,4.078 3.768,4.03C2.673,3.982 1.174,4.852 1.126,5.565C1.268,6.103 2.585,6.911 3.061,6.942C3.537,6.974 3.46,5.803 3.619,5.661C3.778,5.518 4.411,6.468 4.491,6.864C4.569,7.259 4.502,8.913 3.633,8.676C2.254,8.297 0.174,5.533 -0.063,4.661C-0.302,3.791 0.983,3.032 1.919,2.619C1.841,2.587 1.141,2.224 0.698,1.749C0.698,1.749 0.222,1.172 0,0" style="fill:white;fill-rule:nonzero;"/>
            </g>
            <g transform="matrix(7.3042,0,0,-6.7531,1248.7,458.72)">
                <path d="M0,0C0.432,-0.543 3.262,-4.432 5.479,-6.877C7.695,-9.324 11.494,-13.284 14.285,-15.998C14.825,-16.524 15.398,-17.094 15.981,-17.687C16.685,-23.533 17.499,-30.972 17.841,-34.048C18.178,-37.077 18.228,-40.902 18.235,-41.568C18.241,-42.235 18.685,-42.099 19.107,-40.602C19.673,-38.593 19.738,-33.391 19.438,-29.955C19.252,-27.833 18.813,-23.858 18.388,-20.193C20.036,-21.954 21.593,-23.701 22.642,-25.009C24.571,-27.41 26.194,-29.221 27.183,-31.802C27.883,-33.628 27.812,-35.081 28.099,-35.368C28.347,-35.616 28.621,-33.431 28.315,-31.312C27.819,-27.871 27.139,-26.412 23.055,-21.499C21.497,-19.621 19.663,-17.658 17.87,-15.823C17.801,-15.257 17.738,-14.733 17.681,-14.268C17.539,-13.119 16.155,-3.185 16.046,-2.072C15.953,-1.103 15.79,0.038 15.803,0.577C15.813,1.006 16.065,0.839 16.461,0.401C16.855,-0.036 17.545,-0.801 17.662,-0.734C18.048,-0.518 17.618,0.765 17.077,1.916C16.538,3.065 14.681,7.611 14.308,7.791C14.119,7.883 13.006,5.032 12.949,4.474C13.142,4.13 13.632,3.594 13.685,2.04C13.7,1.606 14.056,-2.48 14.503,-6.338C14.899,-9.747 15.389,-12.98 15.44,-13.354L15.442,-13.383C13.593,-11.559 11.964,-10.01 10.976,-9.037C8.666,-6.766 3.564,-1.377 3.359,-0.57C3.313,-0.315 3.709,-0.472 4.437,-0.598C5.168,-0.725 5.818,-0.994 5.701,-0.606C5.648,-0.423 5.368,0.029 4.671,0.495C3.973,0.962 2.185,2.172 0.855,3.028C-0.478,3.883 -1.138,4.6 -1.413,4.395C-1.549,4.294 -1.428,1.365 -1.348,1C-1.015,0.969 -0.43,0.545 -0,0" style="fill:white;fill-rule:nonzero;"/>
            </g>
            <g transform="matrix(7.3042,0,0,-6.7531,1275.3,423.15)">
                <path d="M0,0C0.547,0.13 3.139,0.059 4.08,-0.155C3.686,-0.451 1.034,-1.9 0.51,-2.245C-0.011,-2.591 -0.143,-2.791 0.119,-2.757C0.879,-2.529 2.592,-2.245 3.413,-1.782C4.187,-1.39 5.506,0.522 6.019,1.235C6.529,1.948 6.529,2.304 6.399,2.495C5.875,2.803 2.497,3.112 0.868,2.675C0.417,2.344 -0.465,0.581 -0.595,0.214C-0.725,-0.155 -0.547,-0.13 0,0" style="fill:white;fill-rule:nonzero;"/>
            </g>
            <g transform="matrix(7.3042,0,0,-6.7531,1380.6,421.6)">
                <path d="M0,0C0.442,0.105 2.531,0.048 3.288,-0.124C2.971,-0.363 0.835,-1.531 0.413,-1.811C-0.01,-2.088 -0.115,-2.25 0.096,-2.222C0.709,-2.04 2.09,-1.811 2.751,-1.436C3.374,-1.12 4.437,0.421 4.85,0.994C5.261,1.57 5.261,1.856 5.156,2.009C4.736,2.26 2.013,2.508 0.7,2.155C0.336,1.889 -0.373,0.468 -0.478,0.172C-0.585,-0.124 -0.44,-0.105 -0,0" style="fill:white;fill-rule:nonzero;"/>
            </g>
            <g transform="matrix(7.3042,0,0,-6.7531,1466.2,420.5)">
                <path d="M0,0C0.44,0.105 2.529,0.048 3.286,-0.124C2.971,-0.363 0.834,-1.531 0.411,-1.809C-0.01,-2.088 -0.115,-2.25 0.096,-2.222C0.709,-2.04 2.197,-1.809 2.858,-1.436C3.482,-1.12 4.221,0.421 4.634,0.996C5.047,1.57 5.047,1.858 4.94,2.009C4.52,2.26 2.011,2.508 0.7,2.157C0.336,1.889 -0.375,0.468 -0.48,0.172C-0.585,-0.124 -0.442,-0.105 0,-0" style="fill:white;fill-rule:nonzero;"/>
            </g>
            <g transform="matrix(7.3042,0,0,-6.7531,1412.8,462.19)">
                <path d="M0,0C-0.694,-1.182 0.176,-2.136 0.493,-3.091C0.065,-3.514 -0.593,-3.128 -0.813,-2.757C-1.281,-1.996 -1.124,-0.445 -1.675,-0.206C-1.816,-0.625 -1.908,-1.09 -1.908,-1.09C-1.908,-1.09 -1.489,-2.151 -1.594,-2.853C-1.661,-3.277 -2.007,-3.772 -2.464,-3.782C-3.682,-3.814 -3.082,-1.864 -3.552,-0.759C-3.648,-1.029 -3.717,-1.319 -3.829,-1.572C-3.743,-1.86 -3.696,-2.264 -3.682,-2.497C-3.654,-2.96 -3.688,-3.459 -3.615,-3.854C-3.514,-4.413 -3.227,-4.784 -2.789,-4.82C-1.879,-4.898 -1.464,-4.101 -1.327,-3.447C-1.17,-4.114 0.033,-4.849 0.625,-4.03C1.409,-2.95 0.782,-2.025 0.38,-1.009C0.09,-0.258 0.174,0.235 -0,-0" style="fill:white;fill-rule:nonzero;"/>
            </g>
            <g transform="matrix(7.3042,0,0,-6.7531,1163.1,441.02)">
                <path d="M0,0C0.063,-0.486 0.294,-0.818 0.671,-0.868C1.449,-0.975 1.843,-0.306 1.99,0.25C2.093,-0.331 3.099,-1.015 3.646,-0.337C4.369,0.56 3.868,1.384 3.566,2.277C3.35,2.939 3.443,3.359 3.283,3.164C2.633,2.178 3.342,1.315 3.573,0.478C3.185,0.134 2.636,0.495 2.462,0.822C2.092,1.499 2.294,2.828 1.832,3.059C1.692,2.703 1.593,2.308 1.593,2.308C1.593,2.308 1.906,1.375 1.784,0.776C1.709,0.413 1.39,0.002 0.994,0.013C-0.055,0.038 0.547,1.692 0.189,2.663C0.096,2.436 0.023,2.187 -0.086,1.977C-0.023,1.723 -0,1.375 -0,1.172C0.008,0.772 -0.044,0.346 -0,0" style="fill:white;fill-rule:nonzero;"/>
            </g>
            <g transform="matrix(7.3042,0,0,-6.7531,1344.4,750.3)">
                <path d="M0,0C0.117,0.201 0.375,0.753 0.31,1.13C0.245,1.507 -0.182,3.08 -1.011,3.474C-1.835,3.868 -2.459,3.042 -2.854,1.893L-3.128,1.9C-3.193,1.73 -3.275,1.476 -3.34,1.017C-3.432,0.354 -3.606,-0.073 -4.657,-1.105C-5.541,-1.969 -8.405,-4.044 -10.261,-5.019C-12.119,-5.996 -13.456,-6.839 -13.949,-7.095C-14.44,-7.347 -14.297,-7.441 -13.806,-7.282C-13.316,-7.124 -10.85,-6.265 -9.867,-5.827C-8.886,-5.386 -7.686,-4.661 -6.24,-3.646C-4.632,-2.518 -3.671,-1.39 -3.348,-0.39C-3.118,0.323 -3.059,0.608 -3.059,0.608C-3.059,0.608 -2.455,0.222 -1.43,-0.031C-0.409,-0.285 -0.119,-0.203 0,-0M-1.386,2.235C-0.931,2.048 -0.654,1.512 -0.572,1.187C-1.094,1.174 -2.055,1.461 -2.464,1.661C-2.218,2.176 -1.79,2.399 -1.386,2.235" style="fill:white;fill-rule:nonzero;"/>
            </g>
            <g transform="matrix(7.3042,0,0,-6.7531,1264.9,757.77)">
                <path d="M0,0C-1.426,0.214 -5.019,0.805 -5.898,3.061C-5.16,4.225 -1.761,5.699 2.497,7.078C6.755,8.454 11.204,10.24 12.4,11.102C12.662,11.198 13.169,11.169 13.169,11.169C13.383,11.836 14.452,14.178 14.519,14.668C13.329,14.595 5.994,14.012 2.736,13.823C-0.524,13.633 -6.802,13.679 -8.894,13.704C-7.611,14.702 -4.566,16.65 -0.214,18.312C0.35,18.528 0.872,18.723 1.359,18.899C1.721,18.201 1.99,17.511 2.046,16.91C2.323,17.218 2.531,18.239 2.461,19.287C4.998,20.163 6.305,20.453 6.869,20.618C7.225,21.117 7.856,23.135 7.95,24.602C7.571,25.349 6.384,26.279 5.328,27.078C3.873,28.177 2.304,29.135 0.738,28.716C-1.403,28.148 -1.832,23.894 -1.333,22.992C-1.174,22.707 -0.797,22.202 -0.352,21.579C-1.916,20.914 -3.552,20.132 -4.994,19.31C-8.206,17.48 -11.792,15.478 -12.838,13.553L-13.138,13.395C-13.222,13.213 -13.884,10.234 -13.98,9.913C-13.312,9.938 -8.324,9.928 -4.85,10.045C-1.378,10.165 1.658,10.284 2.847,10.284C1.086,9.833 -3.529,7.978 -4.856,6.887C-6.183,5.793 -7.017,4.13 -7.039,1.279C-8.276,1.803 -10.575,3 -12.534,5.866C-14.718,9.06 -14.266,12.345 -15.14,16.656C-16.41,22.912 -19.122,28.194 -20.811,29.81C-21.38,27.602 -21.453,25.938 -21.453,25.938C-21.453,25.938 -19.337,20.878 -18.266,17.648C-17.195,14.417 -16.28,11.234 -16.325,10.521C-17.207,8.429 -22.428,4.047 -26.779,1.482C-30.905,-0.95 -34.54,-1.212 -35.828,0.52C-36.081,0.858 -36.253,1.258 -36.35,1.711C-35.79,1.994 -35.228,2.279 -34.652,2.564C-30.942,4.392 -24.353,8.24 -22.809,10.259C-21.143,12.706 -21.166,16.151 -22.143,18.123C-23.116,20.094 -24.642,22.376 -24.761,23.183C-24.854,23.564 -23.77,23.028 -23.13,22.992C-22.82,23.017 -22.975,23.468 -23.64,24.181C-24.172,24.749 -26.229,26.592 -27.015,27.311C-27.212,27.494 -27.359,27.42 -27.399,27.227C-27.552,26.491 -27.865,24.915 -27.986,24.137L-27.902,23.745C-27.676,23.6 -27.416,23.437 -27.29,23.03C-27.112,22.453 -26.489,20.843 -25.468,18.811C-24.445,16.78 -22.967,14.538 -22.822,13.406C-24.024,11.748 -30.085,8.217 -35.989,5.307C-35.624,6.531 -35.048,7.915 -34.284,9.452C-34.067,9.712 -33.869,10.033 -33.685,10.395C-33.096,11.559 -33.039,12.982 -33.396,12.681C-33.702,12.362 -33.922,11.207 -34.272,11.129C-34.989,10.97 -35.995,11.875 -35.742,13.53C-35.513,15.023 -34.775,16.371 -34.456,17.234C-34.014,18.428 -33.893,19.608 -34.228,18.966C-34.981,17.532 -36.394,14.754 -36.828,12.813C-37.26,10.875 -36.801,9.55 -36.044,9.037C-35.761,8.842 -35.49,8.781 -35.232,8.819C-35.75,7.753 -36.39,6.445 -36.857,4.885C-39.231,3.736 -41.541,2.709 -43.453,1.969C-50.326,-0.692 -55.224,-2.26 -58.65,-3.424L-58.784,-3.489C-58.532,-2.608 -58.566,-1.856 -58.836,-2.082C-59.142,-2.403 -59.361,-3.558 -59.711,-3.634C-60.428,-3.793 -61.434,-2.889 -61.182,-1.233C-60.952,0.26 -60.214,1.606 -59.895,2.47C-59.455,3.663 -59.333,4.845 -59.667,4.202C-60.421,2.768 -61.833,-0.01 -62.267,-1.95C-62.7,-3.889 -62.241,-5.214 -61.485,-5.728C-60.543,-6.368 -59.74,-5.583 -59.124,-4.369L-58.908,-3.87C-58.694,-3.87 -58.333,-3.816 -57.794,-3.686C-56.224,-3.304 -52.299,-2.688 -46.902,-1.927C-42.906,-1.365 -40.147,-0.178 -37.48,1.143C-37.492,0.824 -37.495,0.499 -37.482,0.164C-37.337,-3.797 -34.937,-4.915 -31.655,-4.174C-28.489,-3.455 -24.074,-0.315 -21.428,1.803C-18.669,4.011 -17.077,5.984 -16.671,6.672C-15.935,8.359 -15.733,10.223 -15.683,11.102C-15.442,8.68 -15.247,5.328 -13.129,2.453C-11.179,-0.193 -7.183,-3.885 0.333,-3.986C0.358,-3.019 -0,-0 -0,-0M-0.497,24.544C0.579,25.85 2.875,24.996 4.598,23.34C3.715,23.116 2.516,22.717 1.193,22.206C0.407,23.231 -0.47,24.219 -0.497,24.544" style="fill:white;fill-rule:nonzero;"/>
            </g>
            <g transform="matrix(7.3042,0,0,-6.7531,952.63,471.1)">
                <path d="M0,0C0.488,0.241 1.981,0.967 3.59,1.981C5.196,2.988 6.705,4.208 7.443,5.019C7.726,5.33 7.978,5.573 8.139,5.862C8.621,5.646 8.953,5.422 9.16,5.334C9.471,5.204 9.886,5.017 10.156,5.975C10.425,6.932 10.068,7.55 9.542,8.288C9.097,8.907 8.391,9.837 7.818,10.068C7.332,10.265 7.101,9.091 7.175,9.12L7.5,9.12L7.563,9.087C6.894,8.722 6.376,7.586 6.324,7.187C6.271,6.753 6.347,6.433 7.307,6.166L7.693,6.043C6.892,5.017 5.399,3.956 4.382,3.204C2.939,2.134 0.891,0.797 0.308,0.411C-0.275,0.027 -0.226,-0.094 -0,-0M8.672,7.538L8.724,8.051C9.399,7.219 9.9,6.229 9.85,6.089C9.54,6.062 9.154,6.372 8.479,6.684C8.554,6.932 8.617,7.206 8.672,7.538M6.734,7.537C6.73,7.693 6.99,8.127 7.54,8.364C8.089,8.603 8.332,7.936 8.38,7.124L8.217,6.799L7.722,6.984C7.198,7.15 6.844,7.244 6.734,7.537" style="fill:white;fill-rule:nonzero;"/>
            </g>
            <g transform="matrix(7.3042,0,0,-6.7531,1215.5,576.87)">
                <path d="M0,0C0.792,0.566 2.969,2.266 4.204,3.38C5.063,4.154 6.072,5.294 6.757,6.258C7.187,5.957 7.588,5.69 7.953,5.458C8.657,5.013 8.94,4.353 8.94,4.353C9.07,4.569 9.676,5.751 9.439,6.326C9.297,6.514 8.431,7.061 7.546,7.647C7.995,8.737 8.613,10.622 7.728,11.282C6.971,11.842 5.694,10.915 5.103,9.712C4.615,8.716 4.552,7.871 5.483,7.179C5.745,6.984 5.996,6.8 6.242,6.625C5.303,5.514 3.573,3.87 2.342,2.751C0.813,1.367 -0.633,0.01 -0.885,-0.314L-0.958,-0.44C-1.292,0.566 -1.201,1.187 -1.449,0.853C-2.52,-0.964 -1.178,-2.436 -0.69,-3.906C-1.35,-4.554 -2.361,-3.959 -2.7,-3.392C-3.422,-2.218 -3.181,0.166 -4.026,0.535C-4.244,-0.109 -4.386,-0.826 -4.386,-0.826C-4.386,-0.826 -3.743,-2.459 -3.906,-3.537C-4.007,-4.189 -4.541,-4.952 -5.242,-4.965C-7.118,-5.017 -6.193,-2.015 -6.917,-0.315C-7.064,-0.732 -7.169,-1.178 -7.345,-1.564C-7.212,-2.011 -7.139,-2.631 -7.12,-2.99C-7.072,-3.703 -7.126,-4.468 -7.015,-5.08C-6.86,-5.94 -6.418,-6.512 -5.743,-6.565C-4.344,-6.688 -3.705,-5.458 -3.493,-4.455C-3.252,-5.481 -1.399,-6.609 -0.488,-5.351C0.719,-3.688 -0.247,-2.264 -0.864,-0.7L-0.937,-0.497C-0.851,-0.53 -0.528,-0.377 0,-0M5.472,9.364C5.936,10.295 6.913,10.374 7.206,9.886C7.439,9.498 7.458,8.741 7.108,7.942C6.246,8.527 5.477,9.1 5.472,9.364" style="fill:white;fill-rule:nonzero;"/>
            </g>
            <g transform="matrix(7.3042,0,0,-6.7531,992.43,536.89)">
                <path d="M0,0C-1.648,0.126 -2.535,1.759 -3.042,4.118C-3.55,6.477 -3.239,9.588 -3.101,10.385C-2.963,11.181 -3.74,10.77 -4.042,8.837C-4.342,6.906 -4.644,3.818 -3.581,0.585C-2.52,-2.644 -0.711,-3.849 0.874,-3.436C2.459,-3.025 3.854,0.998 4.346,2.803C4.837,4.609 7.034,11.974 8.278,12.37C8.452,11.467 7.311,9.202 6.946,5.797C6.583,2.392 7.215,-2.074 11.211,-2.866C15.207,-3.659 17.918,-0.855 18.901,1.094C19.885,3.04 20.344,5.086 20.455,6.114C20.583,3.501 22.231,-0.579 25.432,-1.742C28.525,-2.866 30.888,-1.837 31.932,-0.38C32.859,0.914 33.614,3.579 33.679,5.623C33.742,7.665 32.11,11.402 31.745,12.592C31.379,13.779 31.19,14.603 31.158,15.014C31.127,15.425 31.984,14.538 32.523,14.364C32.888,14.285 32.76,15.14 32.316,15.727C31.873,16.312 29.475,20.245 29.307,19.971C29.204,19.807 28.244,16.914 28.181,16.471C28.561,16.201 29.001,15.457 29.034,14.744C29.064,14.031 29.699,10.896 30.286,9.154C30.873,7.412 32.014,4.07 32.094,3.151C30.953,2.281 28.383,1.174 25.942,2.296C23.501,3.422 22.722,5.053 22.453,7.967C22.281,9.829 22.264,13.259 21.65,16.127C21.304,17.748 20.575,19.396 19.709,20.271C19.505,19.734 18.585,16.423 18.585,16.423C18.885,15.473 19.818,12.274 19.788,9.502C19.755,6.732 19.553,4.021 16.681,2.153C13.811,0.285 9.722,1.029 8.659,3.944C7.596,6.858 9.959,13.414 9.928,15.14C9.896,16.866 9.609,17.105 8.944,16.819C8.278,16.534 6.913,14.87 5.741,12.163C4.567,9.454 4.046,6.747 3.378,4.466C2.713,2.185 1.648,-0.126 0,0" style="fill:white;fill-rule:nonzero;"/>
            </g>
            <g transform="matrix(7.3042,0,0,-6.7531,642.92,468.66)">
                <path d="M0,0C2.028,0.159 3.742,1.822 4.185,2.264C4.629,2.709 4.868,3.372 4.55,3.12C2.204,0.855 -0.935,0.791 -1.111,1.172C-1.031,1.552 -0.205,2.17 1,3.04C1.732,3.569 2.384,4.065 2.872,4.768L3.005,4.743C3.898,4.531 4.929,4.109 5.244,4.447C5.757,4.994 5.825,5.89 5.269,6.856C4.799,7.676 3.703,8.439 2.751,8.99C1.801,9.538 1.617,8.663 1.495,8.351C1.378,8.06 1.426,7.812 1.627,7.806C1.321,7.355 1.103,6.774 1.023,6.294C0.971,5.984 1.013,5.73 1.13,5.521C1.164,5.462 1.34,5.229 1.673,5.091L2.086,4.952C1.375,4.242 0.556,3.686 0.126,3.405C-0.65,2.898 -1.57,2.011 -1.855,1.094C-2.141,0.174 -2.03,-0.159 0,-0M3.585,6.47L3.663,6.938L3.663,7.238C4.306,6.732 5.334,5.774 5.271,5.2C4.864,5.3 4.088,5.477 3.351,5.682C3.445,5.921 3.522,6.183 3.585,6.47M1.679,6.324C1.206,6.732 1.667,7.139 2.086,7.401C2.627,7.739 2.944,7.46 3.221,6.573C3.124,6.319 2.988,6.072 2.828,5.835C2.407,5.976 1.814,6.202 1.679,6.324" style="fill:white;fill-rule:nonzero;"/>
            </g>
            <g transform="matrix(7.3042,0,0,-6.7531,687.36,635.95)">
                <path d="M0,0C-0.583,-0.547 -0.809,-2.327 -0.69,-2.434C-0.572,-2.541 1.25,-3.206 1.535,-3.35L1.665,-2.814C2.533,-3.657 3.495,-7.863 3.709,-7.875C3.923,-7.886 4.233,-7.399 4.436,-6.282C4.623,-5.246 4.81,-3.696 5.005,-2.434C5.187,-1.279 5.47,-0.618 6.112,-0.486C6.755,-0.356 7.231,-1.247 7.397,-1.853C7.397,-1.853 7.848,-0.688 7.944,0.036C7.837,0.417 6.837,1.853 6.017,1.378C5.196,0.902 4.682,-1.113 4.516,-2.373C4.349,-3.631 4.221,-5.191 4.019,-5.441C3.807,-4.367 3.128,-2.445 2.308,-1.365C1.386,-0.155 0.308,0.289 0,-0" style="fill:white;fill-rule:nonzero;"/>
            </g>
            <g transform="matrix(7.3042,0,0,-6.7531,630.59,621.43)">
                <path d="M0,0C0.761,0.226 2.474,0.51 3.294,0.973C4.067,1.365 5.386,3.277 5.898,3.99C6.409,4.703 6.41,5.061 6.28,5.25C5.757,5.56 2.378,5.867 0.748,5.43C0.298,5.101 -0.583,3.338 -0.713,2.969C-0.845,2.602 -0.665,2.625 -0.119,2.755C0.428,2.887 3.021,2.816 3.959,2.602C3.568,2.304 0.916,0.855 0.392,0.51C-0.13,0.166 -0.262,-0.036 -0,-0" style="fill:white;fill-rule:nonzero;"/>
            </g>
            <g transform="matrix(7.3042,0,0,-6.7531,1778.1,690.36)">
                <path d="M0,0C-0.078,2.137 -1.046,5.418 -4.726,10.452C-5.996,12.19 -7.783,14.452 -9.668,16.769C-9.72,17.559 -9.772,18.281 -9.819,18.901C-10.066,22.09 -10.903,28.596 -11.263,32.442C-11.351,33.412 -11.358,34.444 -11.345,34.983C-11.332,35.411 -11.047,35.354 -10.655,34.914C-10.263,34.475 -9.659,33.834 -9.533,33.878C-9.265,33.978 -9.498,34.949 -10.033,36.1C-10.567,37.253 -12.586,41.916 -12.957,42.097C-13.148,42.189 -14.1,39.451 -14.159,38.891C-13.97,38.547 -13.482,38.012 -13.435,36.455C-13.385,34.899 -12.517,25.709 -12.018,19.918L-11.991,19.595C-14.809,22.998 -17.463,26.101 -18.555,27.359C-18.744,27.577 -18.952,27.825 -19.176,28.091C-19.354,29.64 -19.518,31.116 -19.631,32.335C-19.723,33.303 -19.729,34.337 -19.713,34.876C-19.704,35.303 -19.417,35.245 -19.025,34.805C-18.631,34.366 -18.029,33.725 -17.903,33.771C-17.635,33.869 -17.868,34.84 -18.404,35.993C-18.937,37.146 -21.042,41.916 -21.415,42.097C-21.604,42.189 -22.6,39.233 -22.659,38.677C-22.468,38.331 -21.981,37.796 -21.933,36.239C-21.914,35.578 -21.755,33.574 -21.543,31.045C-23.411,33.446 -25.24,35.96 -25.37,36.471C-25.416,36.723 -25.021,36.568 -24.29,36.44C-23.562,36.314 -22.879,36.077 -22.996,36.467C-23.051,36.648 -23.329,37.1 -24.026,37.568C-24.724,38.035 -26.512,39.245 -27.842,40.099C-29.175,40.954 -29.835,41.673 -30.11,41.468C-30.246,41.367 -30.125,38.436 -30.047,38.073C-29.712,38.04 -29.093,37.771 -28.699,37.201C-28.301,36.631 -25.753,32.767 -23.738,30.154C-23.158,29.402 -22.25,28.236 -21.187,26.89C-20.979,24.483 -20.761,21.996 -20.581,19.918C-20.172,15.178 -18.702,2.677 -18.688,-1.386C-19.773,-2.487 -21.992,-4.023 -24.275,-4.055C-26.558,-4.086 -27.81,-3.436 -28.73,-1.6C-29.014,-1.031 -29.278,-0.459 -29.54,0.059C-30.162,1.29 -31.55,1.981 -32.888,1.642L-33.092,1.583L-33.456,1.394C-34.362,0.881 -35.299,0.021 -36.215,-1.313C-37.799,-3.627 -38.811,-6.137 -39.983,-8.311C-41.204,-10.575 -42.141,-12.094 -44.283,-11.731C-45.791,-11.475 -46.936,-10.076 -47.642,-8.355C-45.659,-6.871 -44.219,-4.935 -43.166,-2.252C-41.795,1.235 -41.306,5.166 -41.428,9.586C-41.545,13.746 -43.298,23.533 -43.761,27.284C-44.223,31.037 -44.887,34.117 -44.81,34.918C-44.738,35.691 -43.6,33.871 -43.017,33.735C-42.719,33.807 -42.879,34.968 -43.445,35.949C-43.829,36.616 -45.045,39.65 -45.841,41.113C-46.215,41.805 -46.305,42.206 -46.479,42.288C-46.651,42.373 -47.976,39.312 -47.816,38.979C-47.424,38.373 -47.156,38.084 -47.074,36.998C-46.99,35.912 -46.082,27.94 -45.288,22.069C-44.69,17.639 -43.369,9.592 -43.199,3.644C-43.143,1.703 -43.399,0.31 -43.621,-0.468C-44.191,-1.66 -45.12,-2.984 -48.384,-5.497C-48.888,-1.946 -48.34,0.939 -48.818,1.206C-49.357,1.143 -49.443,-0.512 -49.504,-2.554C-49.534,-3.497 -49.496,-4.803 -49.332,-6.206C-53.341,-9.104 -58.637,-11.743 -61.124,-13.152C-62.583,-13.98 -62.057,-14.173 -60.822,-13.76C-59.587,-13.345 -52.8,-11.42 -49.177,-9.359L-48.787,-9.125C-48.603,-9.816 -48.38,-10.485 -48.106,-11.102C-46.887,-13.842 -45.145,-15.469 -43.258,-15.31C-41.671,-15.178 -40.52,-13.341 -39.516,-11.15C-38.501,-8.932 -36.786,-4.72 -35.104,-3.153C-34.458,-2.549 -33.79,-2.071 -33.14,-1.784C-33.14,-1.784 -31.991,-1.369 -30.934,-2.116C-30.555,-2.386 -30.272,-2.77 -30.093,-3.2C-29.676,-4.187 -29.183,-5.443 -28.175,-6.495C-26.399,-8.345 -23.543,-7.963 -21.401,-6.887C-19.262,-5.81 -18.17,-4.13 -17.694,-2.134C-16.882,1.281 -17.012,4.78 -17.167,7.888C-17.346,11.435 -17.87,15.06 -18.168,18.901C-18.264,20.136 -18.451,21.854 -18.666,23.717C-16.58,21.113 -14.414,18.47 -13.1,17.025C-12.647,16.526 -12.169,15.972 -11.678,15.387C-11.286,9.573 -10.909,2.298 -10.71,-0.755C-10.513,-3.797 -10.64,-7.621 -10.663,-8.286C-10.687,-8.951 -10.345,-8.837 -9.854,-7.361C-9.196,-5.38 -8.783,-0.185 -8.927,3.26C-9.013,5.307 -9.202,9.039 -9.406,12.569C-7.787,10.488 -6.25,8.387 -5.25,6.969C-3.472,4.451 -1.839,1.457 -1.268,-0.411C-0.698,-2.281 -0.635,-2.835 -0.524,-3.168C-0.413,-3.501 0.078,-2.137 -0,-0" style="fill:white;fill-rule:nonzero;"/>
            </g>
        </g>
        <g id="sword" transform="matrix(0.286757,0,0,0.286757,-88.1103,36.1695)">
            <path d="M1558.8,1170.7C1557.63,1167.35 1554.04,1164.88 1549.74,1164.88C1545.44,1164.88 1541.86,1167.35 1540.68,1170.7L1500,1170.7C1499.59,1166.19 1499.99,1161.65 1501.27,1157.24L1585.25,1157.18L1587.59,1161.12C1589.7,1164.68 1592.37,1167.89 1595.46,1170.7L1558.8,1170.7ZM1614.4,1131.67L1513.48,1131.67C1521.23,1126.08 1525.3,1117.91 1524.21,1109.64C1523.51,1104.44 1518.35,1100.55 1512.06,1100.02L1508.9,1100.02C1501.25,1100.77 1495.7,1106.28 1496.51,1112.34L1496.81,1114.67L1497.19,1118.25C1497.6,1122.75 1497.2,1127.27 1495.93,1131.67L749.964,1131.67C761.041,1147.79 781.237,1157.67 803.046,1157.66L1483.76,1157.24C1475.97,1162.85 1471.89,1171.03 1472.99,1179.31C1473.79,1185.37 1480.64,1189.68 1488.29,1188.93C1495.94,1188.19 1501.49,1182.67 1500.69,1176.6L1500.38,1174.28L1540.39,1174.28C1541.09,1178.19 1544.99,1181.18 1549.74,1181.18C1554.49,1181.18 1558.39,1178.19 1559.1,1174.28L1599.79,1174.28L1599.79,1174.19C1608.29,1180.21 1619.09,1183.68 1630.51,1183.68C1641.26,1183.68 1649.97,1176.21 1649.97,1167L1649.97,1162.18C1649.97,1145.34 1634.04,1131.67 1614.4,1131.67" style="fill:white;fill-rule:nonzero;"/>
        </g>
    </g>
    <g id="Icons">
        <g transform="matrix(1,0,0,1,24.0483,-32.2494)">
            <circle cx="442.44" cy="370.72" r="16.28" style="fill:white;fill-opacity:0.1;"/>
        </g>
        <g transform="matrix(1,0,0,1,10.737,-38.7606)">
            <circle cx="466.42" cy="346.74" r="11.53" style="fill:white;fill-opacity:0.1;"/>
        </g>
        <path d="M0,255.91C0.142,115.499 115.719,0.039 256.13,0.039C266.704,0.039 277.267,0.694 287.76,2C160.281,17.891 63.542,127.453 63.55,255.91L63.55,256C63.559,384.474 160.28,494.046 287.76,510C277.225,511.317 266.617,511.978 256,511.978C115.571,511.978 0.012,396.429 -0,256L0,255.91Z" style="fill:rgb(17,17,17);fill-opacity:0.1;"/>
    </g>
</svg>
