<svg xmlns="http://www.w3.org/2000/svg" viewBox="0 0 512 512"><defs><style>.cls-1{fill:#fcc8bc;}.cls-2{fill:#366fca;}.cls-3{fill:#3368b5;}.cls-4{fill:#f6c752;}.cls-5{fill:#f7bb38;}.cls-6{fill:#4f84d3;}</style></defs><title>Country Flags</title><g id="BULINE"><circle class="cls-1" cx="256" cy="256" r="256"/></g><g id="Icons"><circle class="cls-2" cx="255.93" cy="255.98" r="256"/><path class="cls-3" d="M269.59,505.07c7.55,1.79,15.2,3.26,23,4.36a258.64,258.64,0,0,1-71.15.26q-11.94-1.6-23.5-4.31l-1.34-.31a254.67,254.67,0,0,1-78.16-33.16A256.26,256.26,0,0,1,6.21,312q-2.59-11.57-4.11-23.5A259.41,259.41,0,0,1,.07,256q0-11.91,1.07-23.54C1.85,224.53,3,216.7,4.38,209a256.31,256.31,0,0,1,162.8-193.1A253,253,0,0,1,196.59,7l1.34-.31Q209.49,4,221.43,2.35a258.64,258.64,0,0,1,71.15.26c-7.79,1.1-15.44,2.57-23,4.36a253,253,0,0,0-29.41,8.91c-6.36,2.36-12.63,5-18.75,7.81A256.22,256.22,0,0,0,77.38,209c-1.43,7.72-2.53,15.55-3.24,23.5Q73.06,244.11,73.07,256a259.41,259.41,0,0,0,2,32.46q1.52,11.94,4.11,23.5a255.38,255.38,0,0,0,62.72,118.73,256.3,256.3,0,0,0,79.5,57.65c6.12,2.84,12.39,5.45,18.75,7.81A252.91,252.91,0,0,0,269.59,505.07Z"/><path class="cls-4" d="M512.07,256a257.64,257.64,0,0,1-2,32.46H197.93v216.9l-1.34-.31a253.39,253.39,0,0,1-54.66-19.84V288.48H2.1A259.41,259.41,0,0,1,.07,256q0-11.91,1.07-23.54H141.93V26.82A254.09,254.09,0,0,1,196.59,7l1.34-.31V232.48H511Q512.07,244.11,512.07,256Z"/><path class="cls-5" d="M197.93,475.93v29.45l-1.34-.31a253.39,253.39,0,0,1-54.66-19.84V430.71A257.44,257.44,0,0,0,197.93,475.93Z"/><path class="cls-5" d="M75.1,288.48H2.1A259.41,259.41,0,0,1,.07,256q0-11.91,1.07-23.54h73Q73.06,244.11,73.07,256A259.41,259.41,0,0,0,75.1,288.48Z"/><path class="cls-5" d="M197.93,6.66V36.12a256.81,256.81,0,0,0-56,45.21V26.82A254.09,254.09,0,0,1,196.59,7Z"/><circle class="cls-6" cx="426.61" cy="120.1" r="16.28"/><circle class="cls-6" cx="402.63" cy="96.12" r="11.53"/></g></svg>