<?xml version="1.0" encoding="UTF-8" standalone="no"?>
<!DOCTYPE svg PUBLIC "-//W3C//DTD SVG 1.1//EN" "http://www.w3.org/Graphics/SVG/1.1/DTD/svg11.dtd">
<svg width="100%" height="100%" viewBox="0 0 512 512" version="1.1" xmlns="http://www.w3.org/2000/svg" xmlns:xlink="http://www.w3.org/1999/xlink" xml:space="preserve" xmlns:serif="http://www.serif.com/" style="fill-rule:evenodd;clip-rule:evenodd;stroke-linejoin:round;stroke-miterlimit:2;">
    <g id="Icons">
        <g transform="matrix(0.984241,0,0,0.852998,-0.29891,0.201349)">
            <path d="M260.251,600C116.782,600 0.304,465.575 0.304,300C0.304,134.425 116.782,0 260.251,0C403.719,0 520.198,134.425 520.198,300C520.198,465.575 403.719,600 260.251,600Z" style="fill:rgb(165,25,49);"/>
        </g>
        <g transform="matrix(0.984816,0,0,0.852998,-0.299085,0)">
            <path d="M66.562,500C25.367,446.908 0.304,376.805 0.304,300C0.304,223.195 25.367,153.092 66.562,100L453.94,100C495.134,153.092 520.198,223.195 520.198,300C520.198,376.805 495.134,446.908 453.94,500L66.562,500Z" style="fill:white;"/>
        </g>
        <g transform="matrix(0.984816,0,0,0.852998,-0.299085,0)">
            <path d="M15.119,400C5.525,368.716 0.304,335.056 0.304,300C0.304,264.944 5.525,231.284 15.119,200L505.383,200C514.976,231.284 520.198,264.944 520.198,300C520.198,335.056 514.976,368.716 505.383,400L15.119,400Z" style="fill:rgb(45,42,74);"/>
        </g>
        <path d="M0,255.91C0.142,115.499 115.719,0.039 256.13,0.039C266.704,0.039 277.267,0.694 287.76,2C160.281,17.891 63.542,127.453 63.55,255.91L63.55,256C63.559,384.474 160.28,494.046 287.76,510C277.225,511.317 266.617,511.978 256,511.978C115.571,511.978 0.012,396.429 -0,256L0,255.91Z" style="fill:rgb(17,17,17);fill-opacity:0.1;"/>
        <g transform="matrix(1,0,0,1,37.8387,-54.7573)">
            <circle cx="442.44" cy="370.72" r="16.28" style="fill:white;fill-opacity:0.2;"/>
        </g>
        <g transform="matrix(1,0,0,1,24.8812,-64.6952)">
            <circle cx="466.42" cy="346.74" r="11.53" style="fill:white;fill-opacity:0.2;"/>
        </g>
    </g>
</svg>
