<svg xmlns="http://www.w3.org/2000/svg" viewBox="0 0 512 512"><defs><style>.cls-1{fill:#fcc8bc;}.cls-2{fill:#db1b1b;}.cls-3{fill:#c41c1c;}.cls-4{fill:#fff;}.cls-5{fill:#dbdbdb;}.cls-6{fill:#e23b3b;}</style></defs><title>Country Flags</title><g id="BULINE"><circle class="cls-1" cx="256" cy="256" r="256"/></g><g id="Icons"><circle class="cls-2" cx="256" cy="256" r="256"/><path class="cls-3" d="M300,508.23A257.24,257.24,0,0,1,256,512C114.61,512,0,397.39,0,256S114.61,0,256,0a257.24,257.24,0,0,1,44,3.77,256,256,0,0,0,0,504.46Z"/><path class="cls-4" d="M252.3,377.5a120.81,120.81,0,0,0,58.19-14.83,146,146,0,1,1,0-213.34A121.5,121.5,0,1,0,252.3,377.5Z"/><polygon class="cls-4" points="339.81 194.02 380.83 229.32 427.07 201.21 406.18 251.13 447.2 286.42 393.27 281.98 372.38 331.89 359.94 279.23 306.01 274.79 352.25 246.68 339.81 194.02"/><path class="cls-5" d="M88,256a255,255,0,0,0,23.3,106.85,146,146,0,0,1,0-213.7A255,255,0,0,0,88,256Z"/><circle class="cls-6" cx="444.4" cy="139.55" r="16.28"/><circle class="cls-6" cx="420.42" cy="115.57" r="11.53"/></g></svg>