<svg xmlns="http://www.w3.org/2000/svg" viewBox="0 0 512 512"><defs><style>.cls-1{fill:#fc4581;}.cls-2{fill:#db1b1b;}.cls-3{fill:#fff;}.cls-4{fill:#3e436d;}.cls-5{fill:#dbdbdb;}.cls-6{fill:#c11a1a;}.cls-7{fill:#32314b;}.cls-8{fill:#e54141;}</style></defs><title>Country Flags</title><g id="BULINE"><circle class="cls-1" cx="256" cy="256" r="256"/></g><g id="Icons"><path class="cls-2" d="M392.54,39.43H119.46q7.31-4.62,14.94-8.75A254.37,254.37,0,0,1,251.59.05h8.82c4.9.07,9.76.3,14.59.65A254.4,254.4,0,0,1,392.54,39.43Z"/><path class="cls-3" d="M440.76,78.81H71.24c.24-.26.49-.51.74-.77q7-7.2,14.45-13.83,7.17-6.33,14.81-12.15c5.88-4.46,12-8.69,18.22-12.63H392.54A256,256,0,0,1,440.76,78.81Z"/><path class="cls-2" d="M471.77,118.18H40.23c3.65-5.69,7.52-11.25,11.6-16.62A256.85,256.85,0,0,1,71.24,78.81H440.76A257.87,257.87,0,0,1,471.77,118.18Z"/><path class="cls-3" d="M492.38,157.56H19.62c1.24-3,2.54-5.94,3.91-8.88a256,256,0,0,1,14.73-27.37c.65-1,1.31-2.08,2-3.13H471.77A255.36,255.36,0,0,1,492.38,157.56Z"/><path class="cls-2" d="M505.14,196.93H6.86q2.14-9.15,5-18,3.43-10.92,7.8-21.36H492.38A253.16,253.16,0,0,1,505.14,196.93Z"/><path class="cls-3" d="M511.25,236.31H.75a254,254,0,0,1,6.11-39.38H505.14A254,254,0,0,1,511.25,236.31Z"/><path class="cls-2" d="M512,256q0,9.93-.75,19.69H.75Q0,265.94,0,256V243.25a1.79,1.79,0,0,0,.27.94c0-.69.06-1.38.1-2.06.1-1.95.23-3.88.38-5.82h510.5Q512,246.06,512,256Z"/><path class="cls-3" d="M511.25,275.69a253.79,253.79,0,0,1-6.11,39.38H6.86A253.79,253.79,0,0,1,.75,275.69Z"/><path class="cls-2" d="M505.14,315.07a251.76,251.76,0,0,1-12.76,39.37H19.62A251.76,251.76,0,0,1,6.86,315.07Z"/><path class="cls-3" d="M492.38,354.44a254,254,0,0,1-20.61,39.38H40.23a254,254,0,0,1-20.61-39.38Z"/><path class="cls-2" d="M471.77,393.82a257.46,257.46,0,0,1-31,39.38H71.24a257.46,257.46,0,0,1-31-39.38Z"/><path class="cls-3" d="M440.76,433.2a257.16,257.16,0,0,1-48.22,39.38H119.46A257.16,257.16,0,0,1,71.24,433.2Z"/><path class="cls-2" d="M392.54,472.58A254.44,254.44,0,0,1,261,512H251a254.44,254.44,0,0,1-131.58-39.37Z"/><path class="cls-4" d="M275,.7v275H.75Q0,265.94,0,256V243.25a1.79,1.79,0,0,0,.27.94c0-.69.06-1.38.1-2.06.1-1.95.23-3.88.38-5.82a254,254,0,0,1,6.11-39.38q2.14-9.15,5-18,3.43-10.92,7.8-21.36c1.24-3,2.54-5.94,3.91-8.88a256,256,0,0,1,14.73-27.37c.65-1,1.31-2.08,2-3.13,3.65-5.69,7.52-11.25,11.6-16.62A256.85,256.85,0,0,1,71.24,78.81c.24-.26.49-.51.74-.77q7-7.2,14.45-13.83,7.17-6.33,14.81-12.15c5.88-4.46,12-8.69,18.22-12.63q7.31-4.62,14.94-8.75A254.37,254.37,0,0,1,251.59.05h8.82C265.31.12,270.17.35,275,.7Z"/><path class="cls-3" d="M245.4,16.4l3.5,10.77a1.82,1.82,0,0,0,1.73,1.26H262A1.82,1.82,0,0,1,263,31.72l-9.17,6.66a1.8,1.8,0,0,0-.66,2l3.5,10.78a1.82,1.82,0,0,1-2.8,2l-9.16-6.66a1.83,1.83,0,0,0-2.14,0l-9.17,6.66a1.82,1.82,0,0,1-2.8-2l3.51-10.78a1.83,1.83,0,0,0-.66-2l-9.17-6.66a1.82,1.82,0,0,1,1.07-3.29h11.33a1.83,1.83,0,0,0,1.73-1.26l3.5-10.77A1.82,1.82,0,0,1,245.4,16.4Z"/><path class="cls-3" d="M123.82,39.43a1.86,1.86,0,0,0,0,1l3.51,10.76a1.82,1.82,0,0,1-2.8,2l-9.17-6.65a1.82,1.82,0,0,0-2.13,0l-9.17,6.65a1.81,1.81,0,0,1-2.86-1.15c5.88-4.46,12-8.69,18.22-12.63q7.31-4.62,14.94-8.75a1.83,1.83,0,0,1-.71,1l-9.17,6.66A1.85,1.85,0,0,0,123.82,39.43Z"/><path class="cls-3" d="M245.4,100.22,248.9,111a1.81,1.81,0,0,0,1.73,1.25H262a1.82,1.82,0,0,1,1.07,3.29l-9.17,6.66a1.8,1.8,0,0,0-.66,2L256.7,135a1.82,1.82,0,0,1-2.8,2l-9.16-6.66a1.83,1.83,0,0,0-2.14,0L233.43,137a1.82,1.82,0,0,1-2.8-2l3.51-10.78a1.83,1.83,0,0,0-.66-2l-9.17-6.66a1.82,1.82,0,0,1,1.07-3.29h11.33a1.82,1.82,0,0,0,1.73-1.25l3.5-10.78A1.82,1.82,0,0,1,245.4,100.22Z"/><path class="cls-3" d="M180.73,100.22l3.5,10.78a1.81,1.81,0,0,0,1.73,1.25h11.33a1.82,1.82,0,0,1,1.07,3.29l-9.17,6.66a1.81,1.81,0,0,0-.66,2L192,135a1.81,1.81,0,0,1-2.79,2l-9.17-6.66a1.83,1.83,0,0,0-2.14,0L168.76,137a1.81,1.81,0,0,1-2.79-2l3.5-10.78a1.81,1.81,0,0,0-.66-2l-9.17-6.66a1.82,1.82,0,0,1,1.07-3.29H172a1.81,1.81,0,0,0,1.73-1.25l3.5-10.78A1.82,1.82,0,0,1,180.73,100.22Z"/><path class="cls-3" d="M69,115.55l-3.63,2.63-5.54,4a1.82,1.82,0,0,0-.66,2L62.7,135a1.83,1.83,0,0,1-2.8,2l-9.16-6.67a1.83,1.83,0,0,0-2.14,0l-9.17,6.67a1.83,1.83,0,0,1-2.8-2l3.51-10.77a1.85,1.85,0,0,0-.66-2l-1.22-.89c.65-1,1.31-2.08,2-3.13,3.65-5.69,7.52-11.25,11.6-16.62L54.9,111a1.82,1.82,0,0,0,1.73,1.26H68A1.83,1.83,0,0,1,69,115.55Z"/><path class="cls-3" d="M245.4,185.61l3.5,10.78a1.82,1.82,0,0,0,1.73,1.25H262a1.82,1.82,0,0,1,1.07,3.29l-9.17,6.66a1.8,1.8,0,0,0-.66,2l3.5,10.78a1.82,1.82,0,0,1-2.8,2l-9.16-6.66a1.83,1.83,0,0,0-2.14,0l-9.17,6.66a1.82,1.82,0,0,1-2.8-2l3.51-10.78a1.83,1.83,0,0,0-.66-2l-9.17-6.66a1.82,1.82,0,0,1,1.07-3.29h11.33a1.83,1.83,0,0,0,1.73-1.25l3.5-10.78A1.82,1.82,0,0,1,245.4,185.61Z"/><path class="cls-3" d="M180.73,185.61l3.5,10.78a1.82,1.82,0,0,0,1.73,1.25h11.33a1.82,1.82,0,0,1,1.07,3.29l-9.17,6.66a1.81,1.81,0,0,0-.66,2L192,220.4a1.81,1.81,0,0,1-2.79,2l-9.17-6.66a1.83,1.83,0,0,0-2.14,0l-9.17,6.66a1.81,1.81,0,0,1-2.79-2l3.5-10.78a1.81,1.81,0,0,0-.66-2l-9.17-6.66a1.82,1.82,0,0,1,1.07-3.29H172a1.82,1.82,0,0,0,1.73-1.25l3.5-10.78A1.82,1.82,0,0,1,180.73,185.61Z"/><path class="cls-3" d="M116.06,185.61l3.5,10.78a1.83,1.83,0,0,0,1.73,1.25h11.33a1.82,1.82,0,0,1,1.07,3.29l-9.17,6.66a1.83,1.83,0,0,0-.66,2l3.51,10.78a1.82,1.82,0,0,1-2.8,2l-9.17-6.66a1.82,1.82,0,0,0-2.13,0l-9.17,6.66a1.82,1.82,0,0,1-2.8-2l3.5-10.78a1.8,1.8,0,0,0-.66-2L95,200.93A1.82,1.82,0,0,1,96,197.64h11.33a1.82,1.82,0,0,0,1.73-1.25l3.5-10.78A1.82,1.82,0,0,1,116.06,185.61Z"/><path class="cls-3" d="M51.4,185.61l3.5,10.78a1.82,1.82,0,0,0,1.73,1.25H68A1.82,1.82,0,0,1,69,200.93l-9.17,6.66a1.8,1.8,0,0,0-.66,2l3.5,10.78a1.82,1.82,0,0,1-2.8,2l-9.16-6.66a1.83,1.83,0,0,0-2.14,0l-9.17,6.66a1.82,1.82,0,0,1-2.8-2l3.51-10.78a1.83,1.83,0,0,0-.66-2l-9.17-6.66a1.82,1.82,0,0,1,1.07-3.29H42.71a1.83,1.83,0,0,0,1.73-1.25l3.5-10.78A1.82,1.82,0,0,1,51.4,185.61Z"/><path class="cls-3" d="M213.06,55.91l3.5,10.78a1.82,1.82,0,0,0,1.73,1.25h11.33a1.82,1.82,0,0,1,1.07,3.29l-9.17,6.66a1.83,1.83,0,0,0-.66,2l3.51,10.78a1.82,1.82,0,0,1-2.8,2l-9.17-6.66a1.82,1.82,0,0,0-2.13,0l-9.17,6.66a1.82,1.82,0,0,1-2.8-2l3.5-10.78a1.8,1.8,0,0,0-.66-2L192,71.23A1.82,1.82,0,0,1,193,67.94h11.33a1.81,1.81,0,0,0,1.73-1.25l3.5-10.78A1.82,1.82,0,0,1,213.06,55.91Z"/><path class="cls-3" d="M91.53,78.81a1.86,1.86,0,0,0,0,1.12L95,90.7a1.82,1.82,0,0,1-2.79,2l-9.17-6.67a1.83,1.83,0,0,0-2.14,0l-9.17,6.67a1.82,1.82,0,0,1-2.79-2l3.5-10.77a1.86,1.86,0,0,0,0-1.12A1.65,1.65,0,0,0,72,78q7-7.2,14.45-13.83l.8,2.47A1.82,1.82,0,0,0,89,67.94h11.33a1.83,1.83,0,0,1,1.07,3.3l-9.17,6.65A1.8,1.8,0,0,0,91.53,78.81Z"/><path class="cls-3" d="M40.21,157.56a1.73,1.73,0,0,1-.74,1.25l-9.17,6.67a1.83,1.83,0,0,0-.66,2l3.5,10.78a1.81,1.81,0,0,1-2.79,2l-9.17-6.65a1.77,1.77,0,0,0-2.14,0l-7.22,5.25q3.43-10.92,7.8-21.36c1.24-3,2.54-5.94,3.91-8.88l1.81,5.59a1.83,1.83,0,0,0,1.73,1.27H38.4A1.82,1.82,0,0,1,40.21,157.56Z"/><path class="cls-3" d="M213.06,143.5l3.5,10.78a1.83,1.83,0,0,0,1.73,1.25h11.33a1.82,1.82,0,0,1,1.07,3.29l-9.17,6.66a1.83,1.83,0,0,0-.66,2l3.51,10.78a1.82,1.82,0,0,1-2.8,2l-9.17-6.66a1.82,1.82,0,0,0-2.13,0l-9.17,6.66a1.82,1.82,0,0,1-2.8-2l3.5-10.78a1.8,1.8,0,0,0-.66-2L192,158.82a1.82,1.82,0,0,1,1.07-3.29h11.33a1.82,1.82,0,0,0,1.73-1.25l3.5-10.78A1.82,1.82,0,0,1,213.06,143.5Z"/><path class="cls-3" d="M148.4,143.5l3.5,10.78a1.82,1.82,0,0,0,1.73,1.25H165a1.82,1.82,0,0,1,1.07,3.29l-9.17,6.66a1.8,1.8,0,0,0-.66,2l3.5,10.78a1.82,1.82,0,0,1-2.8,2l-9.16-6.66a1.83,1.83,0,0,0-2.14,0l-9.17,6.66a1.82,1.82,0,0,1-2.8-2l3.51-10.78a1.83,1.83,0,0,0-.66-2l-9.17-6.66a1.82,1.82,0,0,1,1.07-3.29h11.33a1.83,1.83,0,0,0,1.73-1.25l3.5-10.78A1.82,1.82,0,0,1,148.4,143.5Z"/><path class="cls-3" d="M30.3,251.37a1.81,1.81,0,0,0-.66,2l3.5,10.79a1.81,1.81,0,0,1-2.79,2l-9.17-6.65a1.8,1.8,0,0,0-2.14,0L9.88,266.2a1.81,1.81,0,0,1-2.8-2l3.5-10.79a1.79,1.79,0,0,0-.66-2L.75,244.7a1.78,1.78,0,0,1-.48-.51c0-.69.06-1.38.1-2.06a1.74,1.74,0,0,1,1.45-.71H13.15a1.83,1.83,0,0,0,1.73-1.27l1.25-3.84,2.25-6.93a1.82,1.82,0,0,1,3.46,0l2.25,6.93,1.25,3.84a1.83,1.83,0,0,0,1.73,1.27H38.4a1.81,1.81,0,0,1,1.07,3.28Z"/><path class="cls-3" d="M213.06,229.38l3.5,10.78a1.82,1.82,0,0,0,1.73,1.25h11.33a1.82,1.82,0,0,1,1.07,3.29l-9.17,6.66a1.85,1.85,0,0,0-.66,2l3.51,10.77a1.82,1.82,0,0,1-2.8,2l-9.17-6.66a1.82,1.82,0,0,0-2.13,0l-9.17,6.66a1.82,1.82,0,0,1-2.8-2l3.5-10.77a1.82,1.82,0,0,0-.66-2L192,244.7a1.82,1.82,0,0,1,1.07-3.29h11.33a1.81,1.81,0,0,0,1.73-1.25l3.5-10.78A1.82,1.82,0,0,1,213.06,229.38Z"/><path class="cls-3" d="M148.4,229.38l3.5,10.78a1.81,1.81,0,0,0,1.73,1.25H165A1.82,1.82,0,0,1,166,244.7l-9.17,6.66a1.82,1.82,0,0,0-.66,2l3.5,10.77a1.82,1.82,0,0,1-2.8,2l-9.16-6.66a1.83,1.83,0,0,0-2.14,0l-9.17,6.66a1.82,1.82,0,0,1-2.8-2l3.51-10.77a1.85,1.85,0,0,0-.66-2l-9.17-6.66a1.82,1.82,0,0,1,1.07-3.29h11.33a1.82,1.82,0,0,0,1.73-1.25l3.5-10.78A1.82,1.82,0,0,1,148.4,229.38Z"/><path class="cls-3" d="M83.73,229.38l3.5,10.78A1.81,1.81,0,0,0,89,241.41h11.33a1.82,1.82,0,0,1,1.07,3.29l-9.17,6.66a1.83,1.83,0,0,0-.66,2L95,264.17a1.81,1.81,0,0,1-2.79,2l-9.17-6.66a1.83,1.83,0,0,0-2.14,0l-9.17,6.66a1.81,1.81,0,0,1-2.79-2l3.5-10.77a1.83,1.83,0,0,0-.66-2l-9.17-6.66a1.82,1.82,0,0,1,1.07-3.29H75a1.81,1.81,0,0,0,1.73-1.25l3.5-10.78A1.82,1.82,0,0,1,83.73,229.38Z"/><path class="cls-2" d="M287,1.86c-4,.47-8,1.06-12,1.72a253.72,253.72,0,0,0-76.15,25.74c-.86.44-1.71.91-2.56,1.36q-7.64,4.13-14.94,8.75H119.46q7.31-4.62,14.94-8.75A254.37,254.37,0,0,1,251.59.05h8.82c4.9.07,9.76.3,14.59.65Q281,1.14,287,1.86Z"/><path class="cls-3" d="M181.35,39.43q-7.62,4.78-14.85,10.12c-1.13.82-2.25,1.66-3.37,2.51-4.33,3.3-8.54,6.71-12.64,10.27-.73.61-1.45,1.24-2.17,1.88-4.58,4.05-9,8.28-13.28,12.64l1.44,1a1.8,1.8,0,0,1,.66.92H71.24c.24-.26.49-.51.74-.77q7-7.2,14.45-13.83,7.17-6.33,14.81-12.15c5.88-4.46,12-8.69,18.22-12.63Z"/><path class="cls-2" d="M133.13,78.81a257.94,257.94,0,0,0-17.7,20.51l-1.71,2.24c-.93,1.23-1.85,2.46-2.76,3.71L109.1,111a1.82,1.82,0,0,1-1.73,1.26H106c-1.34,2-2.64,3.94-3.92,5.93H40.23c3.65-5.69,7.52-11.25,11.6-16.62A256.85,256.85,0,0,1,71.24,78.81Z"/><path class="cls-3" d="M102.12,118.18l-1.1,1.75-.87,1.38a256,256,0,0,0-14.73,27.37h0c-1.37,2.93-2.67,5.87-3.91,8.87H19.62c1.24-3,2.54-5.94,3.91-8.88a256,256,0,0,1,14.73-27.37c.65-1,1.31-2.08,2-3.13Z"/><path class="cls-2" d="M81.51,157.56Q77.14,168,73.71,178.9v0q-2.8,8.87-5,18H6.86q2.14-9.15,5-18,3.43-10.92,7.8-21.36Z"/><path class="cls-3" d="M69,200.93l-1.41,1a253.88,253.88,0,0,0-5,34.36H.75a254,254,0,0,1,6.11-39.38H68.75c-.06.27-.13.55-.19.81A1.82,1.82,0,0,1,69,200.93Z"/><path class="cls-2" d="M61.89,256q0,9.93.75,19.69H.75Q0,265.94,0,256V243.25a1.79,1.79,0,0,0,.27.94c0-.69.06-1.38.1-2.06.1-1.95.23-3.88.38-5.82H62.64c-.15,1.94-.28,3.87-.38,5.82,0,.68-.07,1.37-.1,2.06a1.51,1.51,0,0,1-.2-.45c0-.09,0-.17-.05-.25a1.79,1.79,0,0,1,0-.24Z"/><path class="cls-5" d="M68.75,315.07H6.86A253.79,253.79,0,0,1,.75,275.69H62.64A253.79,253.79,0,0,0,68.75,315.07Z"/><path class="cls-6" d="M81.51,354.44H19.62A251.76,251.76,0,0,1,6.86,315.07H68.75A251.76,251.76,0,0,0,81.51,354.44Z"/><path class="cls-5" d="M102.12,393.82H40.23a254,254,0,0,1-20.61-39.38H81.51A254,254,0,0,0,102.12,393.82Z"/><path class="cls-6" d="M133.13,433.2H71.24a257.46,257.46,0,0,1-31-39.38h61.89A257.46,257.46,0,0,0,133.13,433.2Z"/><path class="cls-5" d="M181.35,472.58H119.46A257.16,257.16,0,0,1,71.24,433.2h61.89A257.16,257.16,0,0,0,181.35,472.58Z"/><path class="cls-6" d="M287,510.14A253.08,253.08,0,0,1,261,512H251a254.44,254.44,0,0,1-131.58-39.37h61.89A254.13,254.13,0,0,0,287,510.14Z"/><path class="cls-7" d="M275,.7V3.58a253.72,253.72,0,0,0-76.15,25.74c-.86.44-1.71.91-2.56,1.36q-7.64,4.13-14.94,8.75-7.62,4.78-14.85,10.12c-1.13.82-2.25,1.66-3.37,2.51-4.33,3.3-8.54,6.71-12.64,10.27-.73.61-1.45,1.24-2.17,1.88-4.58,4.05-9,8.28-13.28,12.64l1.44,1a1.8,1.8,0,0,1,.66.92h-4a257.94,257.94,0,0,0-17.7,20.51l-1.71,2.24c-.93,1.23-1.85,2.46-2.76,3.71L109.1,111a1.82,1.82,0,0,1-1.73,1.26H106c-1.34,2-2.64,3.94-3.92,5.93l-1.1,1.75-.87,1.38a256,256,0,0,0-14.73,27.37h0c-1.37,2.93-2.67,5.87-3.91,8.87Q77.14,168,73.71,178.9v0q-2.8,8.87-5,18c-.06.27-.13.55-.19.81a1.82,1.82,0,0,1,.47,3.19l-1.41,1a253.88,253.88,0,0,0-5,34.36c-.15,1.94-.28,3.87-.38,5.82,0,.68-.07,1.37-.1,2.06a1.51,1.51,0,0,1-.2-.45c0-.09,0-.17-.05-.25a1.79,1.79,0,0,1,0-.24V256q0,9.93.75,19.69H.75Q0,265.94,0,256V243.25a1.79,1.79,0,0,0,.27.94c0-.69.06-1.38.1-2.06.1-1.95.23-3.88.38-5.82a254,254,0,0,1,6.11-39.38q2.14-9.15,5-18,3.43-10.92,7.8-21.36c1.24-3,2.54-5.94,3.91-8.88a256,256,0,0,1,14.73-27.37c.65-1,1.31-2.08,2-3.13,3.65-5.69,7.52-11.25,11.6-16.62A256.85,256.85,0,0,1,71.24,78.81c.24-.26.49-.51.74-.77q7-7.2,14.45-13.83,7.17-6.33,14.81-12.15c5.88-4.46,12-8.69,18.22-12.63q7.31-4.62,14.94-8.75A254.37,254.37,0,0,1,251.59.05h8.82C265.31.12,270.17.35,275,.7Z"/><path class="cls-5" d="M123.82,39.43a1.86,1.86,0,0,0,0,1l3.51,10.76a1.82,1.82,0,0,1-2.8,2l-9.17-6.65a1.82,1.82,0,0,0-2.13,0l-9.17,6.65a1.81,1.81,0,0,1-2.86-1.15c5.88-4.46,12-8.69,18.22-12.63q7.31-4.62,14.94-8.75a1.83,1.83,0,0,1-.71,1l-9.17,6.66A1.85,1.85,0,0,0,123.82,39.43Z"/><path class="cls-5" d="M115.43,99.32l-1.71,2.24c-.93,1.23-1.85,2.46-2.76,3.71l1.64-5A1.82,1.82,0,0,1,115.43,99.32Z"/><path class="cls-5" d="M69,115.55l-3.63,2.63-5.54,4a1.82,1.82,0,0,0-.66,2L62.7,135a1.83,1.83,0,0,1-2.8,2l-9.16-6.67a1.83,1.83,0,0,0-2.14,0l-9.17,6.67a1.83,1.83,0,0,1-2.8-2l3.51-10.77a1.85,1.85,0,0,0-.66-2l-1.22-.89c.65-1,1.31-2.08,2-3.13,3.65-5.69,7.52-11.25,11.6-16.62L54.9,111a1.82,1.82,0,0,0,1.73,1.26H68A1.83,1.83,0,0,1,69,115.55Z"/><path class="cls-5" d="M69,200.93l-1.41,1-7.76,5.65a1.78,1.78,0,0,0-.66,2l3.5,10.77a1.82,1.82,0,0,1-2.8,2l-9.16-6.66a1.83,1.83,0,0,0-2.14,0l-9.17,6.66a1.82,1.82,0,0,1-2.8-2l3.51-10.77a1.81,1.81,0,0,0-.66-2l-9.17-6.67a1.82,1.82,0,0,1,1.07-3.29H42.71a1.82,1.82,0,0,0,1.44-.71,2.06,2.06,0,0,0,.29-.55l3.5-10.77a1.82,1.82,0,0,1,3.46,0l3.5,10.77a2.06,2.06,0,0,0,.29.55,1.82,1.82,0,0,0,1.44.71H68a1.89,1.89,0,0,1,.6.1A1.82,1.82,0,0,1,69,200.93Z"/><path class="cls-5" d="M91.53,78.81a1.86,1.86,0,0,0,0,1.12L95,90.7a1.82,1.82,0,0,1-2.79,2l-9.17-6.67a1.83,1.83,0,0,0-2.14,0l-9.17,6.67a1.82,1.82,0,0,1-2.79-2l3.5-10.77a1.86,1.86,0,0,0,0-1.12A1.65,1.65,0,0,0,72,78q7-7.2,14.45-13.83l.8,2.47A1.82,1.82,0,0,0,89,67.94h11.33a1.83,1.83,0,0,1,1.07,3.3l-9.17,6.65A1.8,1.8,0,0,0,91.53,78.81Z"/><path class="cls-5" d="M40.21,157.56a1.73,1.73,0,0,1-.74,1.25l-9.17,6.67a1.83,1.83,0,0,0-.66,2l3.5,10.78a1.81,1.81,0,0,1-2.79,2l-9.17-6.65a1.77,1.77,0,0,0-2.14,0l-7.22,5.25q3.43-10.92,7.8-21.36c1.24-3,2.54-5.94,3.91-8.88l1.81,5.59a1.83,1.83,0,0,0,1.73,1.27H38.4A1.82,1.82,0,0,1,40.21,157.56Z"/><path class="cls-5" d="M30.3,251.37a1.81,1.81,0,0,0-.66,2l3.5,10.79a1.81,1.81,0,0,1-2.79,2l-9.17-6.65a1.8,1.8,0,0,0-2.14,0L9.88,266.2a1.81,1.81,0,0,1-2.8-2l3.5-10.79a1.79,1.79,0,0,0-.66-2L.75,244.7a1.78,1.78,0,0,1-.48-.51c0-.69.06-1.38.1-2.06a1.74,1.74,0,0,1,1.45-.71H13.15a1.83,1.83,0,0,0,1.73-1.27l1.25-3.84,2.25-6.93a1.82,1.82,0,0,1,3.46,0l2.25,6.93,1.25,3.84a1.83,1.83,0,0,0,1.73,1.27H38.4a1.81,1.81,0,0,1,1.07,3.28Z"/><path class="cls-3" d="M61.89,243.25a1.9,1.9,0,0,1,.37-1.12c0,.68-.07,1.37-.1,2.06a1.51,1.51,0,0,1-.2-.45c0-.09,0-.17-.05-.25A1.79,1.79,0,0,1,61.89,243.25Z"/><path class="cls-3" d="M83.73,143.5l3.5,10.78A1.82,1.82,0,0,0,89,155.53h11.33a1.82,1.82,0,0,1,1.07,3.29l-9.17,6.66a1.81,1.81,0,0,0-.66,2L95,178.29a1.81,1.81,0,0,1-2.79,2l-9.17-6.66a1.83,1.83,0,0,0-2.14,0l-9.17,6.66a1.81,1.81,0,0,1-2.79-2l3.5-10.78a1.81,1.81,0,0,0-.66-2l-9.17-6.66a1.82,1.82,0,0,1,1.07-3.29H75a1.82,1.82,0,0,0,1.73-1.25l3.5-10.78A1.82,1.82,0,0,1,83.73,143.5Z"/><path class="cls-5" d="M85.42,148.68h0c-1.37,2.93-2.67,5.87-3.91,8.87Q77.14,168,73.71,178.9v0l-1.95,1.4a1.81,1.81,0,0,1-2.79-2l3.5-10.78a1.81,1.81,0,0,0-.66-2l-9.17-6.67a1.73,1.73,0,0,1-.74-1.25,1.82,1.82,0,0,1,1.81-2H75a1.83,1.83,0,0,0,1.73-1.27l3.5-10.78a1.82,1.82,0,0,1,3.46,0Z"/><path class="cls-3" d="M116.06,100.22l3.5,10.78a1.82,1.82,0,0,0,1.73,1.25h11.33a1.82,1.82,0,0,1,1.07,3.29l-9.17,6.66a1.83,1.83,0,0,0-.66,2L127.37,135a1.82,1.82,0,0,1-2.8,2l-9.17-6.66a1.82,1.82,0,0,0-2.13,0L104.1,137a1.82,1.82,0,0,1-2.8-2l3.5-10.78a1.8,1.8,0,0,0-.66-2L95,115.54A1.82,1.82,0,0,1,96,112.25h11.33A1.81,1.81,0,0,0,109.1,111l3.5-10.78A1.82,1.82,0,0,1,116.06,100.22Z"/><path class="cls-5" d="M96,112.25h10c-1.34,2-2.64,3.94-3.92,5.93l-1.1,1.75-2.42-1.75L95,115.55A1.83,1.83,0,0,1,96,112.25Z"/><path class="cls-3" d="M148.4,55.91l3.5,10.78a1.81,1.81,0,0,0,1.73,1.25H165A1.82,1.82,0,0,1,166,71.23l-9.17,6.66a1.8,1.8,0,0,0-.66,2l3.5,10.78a1.82,1.82,0,0,1-2.8,2l-9.16-6.66a1.83,1.83,0,0,0-2.14,0l-9.17,6.66a1.82,1.82,0,0,1-2.8-2l3.51-10.78a1.83,1.83,0,0,0-.66-2l-9.17-6.66a1.82,1.82,0,0,1,1.07-3.29h11.33a1.82,1.82,0,0,0,1.73-1.25l3.5-10.78A1.82,1.82,0,0,1,148.4,55.91Z"/><path class="cls-5" d="M150.49,62.33c-.73.61-1.45,1.24-2.17,1.88-4.58,4.05-9,8.28-13.28,12.64l-7.73-5.61a1.82,1.82,0,0,1,1.07-3.3h11.33a1.83,1.83,0,0,0,1.73-1.26l3.5-10.76a1.82,1.82,0,0,1,3.46,0Z"/><path class="cls-3" d="M180.73,16.4l3.5,10.77A1.82,1.82,0,0,0,186,28.43h11.33a1.82,1.82,0,0,1,1.07,3.29l-9.17,6.66a1.81,1.81,0,0,0-.66,2L192,51.19a1.81,1.81,0,0,1-2.79,2l-9.17-6.66a1.83,1.83,0,0,0-2.14,0l-9.17,6.66a1.81,1.81,0,0,1-2.79-2l3.5-10.78a1.81,1.81,0,0,0-.66-2l-9.17-6.66a1.82,1.82,0,0,1,1.07-3.29H172a1.82,1.82,0,0,0,1.73-1.26l3.5-10.77A1.82,1.82,0,0,1,180.73,16.4Z"/><path class="cls-5" d="M198.85,29.32c-.86.44-1.71.91-2.56,1.36q-7.64,4.13-14.94,8.75-7.62,4.78-14.85,10.12l3-9.13a1.86,1.86,0,0,0,0-1,1.82,1.82,0,0,0-.7-1.06l-9.17-6.66a1.81,1.81,0,0,1,1.07-3.28H172a1.81,1.81,0,0,0,1.73-1.25l3.5-10.79a1.82,1.82,0,0,1,3.46,0l3.5,10.79A1.81,1.81,0,0,0,186,28.43h11.33A1.77,1.77,0,0,1,198.85,29.32Z"/><circle class="cls-8" cx="481.31" cy="255.91" r="16.28"/><circle class="cls-8" cx="447.4" cy="255.91" r="11.53"/></g></svg>