<?xml version="1.0" encoding="UTF-8" standalone="no"?>
<!DOCTYPE svg PUBLIC "-//W3C//DTD SVG 1.1//EN" "http://www.w3.org/Graphics/SVG/1.1/DTD/svg11.dtd">
<svg width="100%" height="100%" viewBox="0 0 512 512" version="1.1" xmlns="http://www.w3.org/2000/svg" xmlns:xlink="http://www.w3.org/1999/xlink" xml:space="preserve" xmlns:serif="http://www.serif.com/" style="fill-rule:evenodd;clip-rule:evenodd;stroke-linejoin:round;stroke-miterlimit:2;">
    <g transform="matrix(1,0,0,1,0.29891,-0.201349)">
        <g id="BULINE">
            <circle cx="256" cy="256" r="256" style="fill:rgb(255,187,0);"/>
        </g>
    </g>
    <g id="Icons">
        <g transform="matrix(1,0,0,1,5.31598,-230.219)">
            <circle cx="442.44" cy="370.72" r="16.28" style="fill:white;fill-opacity:0.2;"/>
        </g>
        <g transform="matrix(1,0,0,1,-37.944,-237.049)">
            <circle cx="466.42" cy="346.74" r="11.53" style="fill:white;fill-opacity:0.2;"/>
        </g>
        <g transform="matrix(1.37086,0,0,1.33371,-119.767,-91.7314)">
            <path d="M341.192,218.415C342.422,221.857 341.939,225.698 339.897,228.705C337.856,231.711 334.514,233.502 330.947,233.502C303.182,233.502 245.586,233.502 217.765,233.502C214.181,233.502 210.823,231.702 208.771,228.681C206.72,225.66 206.234,221.799 207.47,218.341C215.776,195.102 231.238,151.841 236.432,137.311C237.485,134.365 240.213,132.407 243.266,132.407L305.359,132.407C308.418,132.407 311.152,134.369 312.207,137.321C317.41,151.877 332.895,195.2 341.192,218.415Z" style="fill:white;"/>
        </g>
        <g transform="matrix(1.37086,0,0,1.33371,-222.652,73.8333)">
            <path d="M341.192,218.415C342.422,221.857 341.939,225.698 339.897,228.705C337.856,231.711 334.514,233.502 330.947,233.502C303.182,233.502 245.586,233.502 217.765,233.502C214.181,233.502 210.823,231.702 208.771,228.681C206.72,225.66 206.234,221.799 207.47,218.341C215.776,195.102 231.238,151.841 236.432,137.311C237.485,134.365 240.213,132.407 243.266,132.407L305.359,132.407C308.418,132.407 311.152,134.369 312.207,137.321C317.41,151.877 332.895,195.2 341.192,218.415Z" style="fill:white;"/>
        </g>
        <g transform="matrix(1.37086,0,0,1.33371,-17.4525,73.8333)">
            <path d="M341.192,218.415C342.422,221.857 341.939,225.698 339.897,228.705C337.856,231.711 334.514,233.502 330.947,233.502C303.182,233.502 245.586,233.502 217.765,233.502C214.181,233.502 210.823,231.702 208.771,228.681C206.72,225.66 206.234,221.799 207.47,218.341C215.776,195.102 231.238,151.841 236.432,137.311C237.485,134.365 240.213,132.407 243.266,132.407L305.359,132.407C308.418,132.407 311.152,134.369 312.207,137.321C317.41,151.877 332.895,195.2 341.192,218.415Z" style="fill:white;"/>
        </g>
        <path d="M0,255.91C0.142,115.499 115.719,0.039 256.13,0.039C266.704,0.039 277.267,0.694 287.76,2C160.281,17.891 63.542,127.453 63.55,255.91L63.55,256C63.559,384.474 160.28,494.046 287.76,510C277.225,511.317 266.617,511.978 256,511.978C115.571,511.978 0.012,396.429 -0,256L0,255.91Z" style="fill:rgb(17,17,17);fill-opacity:0.1;"/>
    </g>
</svg>
