<svg xmlns="http://www.w3.org/2000/svg" viewBox="0 0 512 512"><defs><style>.cls-1{fill:#7cc8fb;}.cls-2{fill:#db1b1b;}.cls-3{fill:#225db2;}.cls-4{fill:#fff;}.cls-5{fill:#00b564;}.cls-6{fill:#c11616;}.cls-7{fill:#dbdbdb;}.cls-8{fill:#009e52;}.cls-9{fill:#f7bb38;}.cls-10{fill:#dba12c;}.cls-11{fill:#27273d;}.cls-12{fill:#1c1c2b;}.cls-13{fill:#ea3d3d;}</style></defs><title>Country Flags</title><g id="BULINE"><circle class="cls-1" cx="256" cy="256" r="256"/></g><g id="Icons"><path class="cls-2" d="M509,216.76H3A255.05,255.05,0,0,1,40.3,118.07,256,256,0,0,1,256,0C374,0,473.32,79.8,503,188.38A251.7,251.7,0,0,1,509,216.76Z"/><path class="cls-3" d="M510,287.93c-.21,1.77-.45,3.54-.71,5.3a250.3,250.3,0,0,1-5,25.38C476.36,429.73,375.79,512,256,512A255.9,255.9,0,0,1,85.85,447.28,257.46,257.46,0,0,1,39.46,392.6,254.65,254.65,0,0,1,2,287.93Z"/><path class="cls-4" d="M512,256a256.91,256.91,0,0,1-2,31.93c-.21,1.77-.45,3.54-.71,5.3a250.3,250.3,0,0,1-5,25.38h-218l-179,145.75a256.07,256.07,0,0,1,1.53-417.81L286.25,188.38H503a251.7,251.7,0,0,1,6,28.38A257.79,257.79,0,0,1,512,256Z"/><path class="cls-5" d="M512,256a256.91,256.91,0,0,1-2,31.93c-.21,1.77-.45,3.54-.71,5.3H277.05l-191.2,154A257.46,257.46,0,0,1,39.46,392.6,254.65,254.65,0,0,1,2,287.93a258.74,258.74,0,0,1,1-71.17A255.05,255.05,0,0,1,40.3,118.07,257.13,257.13,0,0,1,87,63.67l190,153.09H509A257.79,257.79,0,0,1,512,256Z"/><path class="cls-6" d="M282,1.31A255.76,255.76,0,0,0,139,63.67c-1.4,1.23-2.78,2.47-4.15,3.74a251.81,251.81,0,0,0-19.06,19.46,255.66,255.66,0,0,0-36.25,53.44q-1.69,3.34-3.31,6.74A254.61,254.61,0,0,0,55,216.76H3A255.05,255.05,0,0,1,40.3,118.07,256.23,256.23,0,0,1,282,1.31Z"/><path class="cls-3" d="M282,510.7a259.63,259.63,0,0,1-26,1.3A255.9,255.9,0,0,1,85.85,447.28,257.46,257.46,0,0,1,39.46,392.6,254.65,254.65,0,0,1,2,287.93H54A253.75,253.75,0,0,0,75.6,363.48q1.58,3.42,3.26,6.78a253.16,253.16,0,0,0,12.6,22.34A255.76,255.76,0,0,0,114.8,424a252.14,252.14,0,0,0,18.52,19.18q2.24,2.12,4.53,4.15A256,256,0,0,0,282,510.7Z"/><path class="cls-7" d="M133.32,443.13l-26.07,21.23a256.07,256.07,0,0,1,1.53-417.81l26.11,20.86a251.81,251.81,0,0,0-19.06,19.46,255.66,255.66,0,0,0-36.25,53.44q-1.69,3.34-3.31,6.74a255.76,255.76,0,0,0-.67,216.43q1.58,3.42,3.26,6.78a253.16,253.16,0,0,0,12.6,22.34A255.76,255.76,0,0,0,114.8,424,252.14,252.14,0,0,0,133.32,443.13Z"/><path class="cls-8" d="M91.46,392.6A255.76,255.76,0,0,0,114.8,424L85.85,447.28A257.46,257.46,0,0,1,39.46,392.6,254.65,254.65,0,0,1,2,287.93a258.74,258.74,0,0,1,1-71.17A255.05,255.05,0,0,1,40.3,118.07,257.13,257.13,0,0,1,87,63.67l28.79,23.2a255.66,255.66,0,0,0-36.25,53.44q-1.69,3.34-3.31,6.74a255.76,255.76,0,0,0-.67,216.43q1.58,3.42,3.26,6.78A253.16,253.16,0,0,0,91.46,392.6Z"/><path class="cls-9" d="M210.25,255l-40.87,32.93L39.46,392.6A254.65,254.65,0,0,1,2,287.93a258.74,258.74,0,0,1,1-71.17A255.05,255.05,0,0,1,40.3,118.07l122.49,98.69Z"/><path class="cls-10" d="M65.74,338.94a254.29,254.29,0,0,0,9.86,24.54L39.46,392.6A254.65,254.65,0,0,1,2,287.93a258.74,258.74,0,0,1,1-71.17A255.05,255.05,0,0,1,40.3,118.07l36,29A256.81,256.81,0,0,0,65.74,338.94Z"/><path class="cls-11" d="M169.92,255l-40.87,32.93L26.86,370.26A253.91,253.91,0,0,1,2,287.93a258.74,258.74,0,0,1,1-71.17,253.92,253.92,0,0,1,24.59-76.45l94.88,76.45Z"/><path class="cls-12" d="M54,287.93a254,254,0,0,0,11.76,51L26.86,370.26A253.91,253.91,0,0,1,2,287.93a258.74,258.74,0,0,1,1-71.17,253.92,253.92,0,0,1,24.59-76.45l38.7,31.18A254.52,254.52,0,0,0,55,216.76a258.74,258.74,0,0,0-1,71.17Z"/><circle class="cls-13" cx="428.81" cy="106.07" r="16.28"/><circle class="cls-13" cx="404.83" cy="82.09" r="11.53"/></g></svg>